G04 #@! TF.GenerationSoftware,KiCad,Pcbnew,(5.99.0-263-g133772e96)*
G04 #@! TF.CreationDate,2019-11-01T12:35:40+01:00*
G04 #@! TF.ProjectId,pocasicko,706f6361-7369-4636-9b6f-2e6b69636164,1*
G04 #@! TF.SameCoordinates,Original*
G04 #@! TF.FileFunction,Copper,L1,Top*
G04 #@! TF.FilePolarity,Positive*
%FSLAX46Y46*%
G04 Gerber Fmt 4.6, Leading zero omitted, Abs format (unit mm)*
G04 Created by KiCad (PCBNEW (5.99.0-263-g133772e96)) date 2019-11-01 12:35:40*
%MOMM*%
%LPD*%
G04 APERTURE LIST*
%ADD10R,4.200000X1.350000*%
%ADD11C,5.600000*%
%ADD12R,3.200000X1.000000*%
%ADD13C,0.800000*%
%ADD14C,0.600000*%
%ADD15C,0.900000*%
%ADD16C,0.150000*%
%ADD17C,0.250000*%
%ADD18C,0.200000*%
%ADD19C,0.400000*%
%ADD20C,0.600000*%
%ADD21C,0.254000*%
G04 APERTURE END LIST*
D10*
X102100000Y-55175000D03*
X102100000Y-60825000D03*
D11*
X180000000Y-134000000D03*
X126000000Y-134000000D03*
D12*
X194400000Y-136000000D03*
X187600000Y-136000000D03*
X187600000Y-132000000D03*
X194400000Y-132000000D03*
X171400000Y-136000000D03*
X164600000Y-136000000D03*
X164600000Y-132000000D03*
X171400000Y-132000000D03*
X140400000Y-136000000D03*
X133600000Y-136000000D03*
X133600000Y-132000000D03*
X140400000Y-132000000D03*
X117400000Y-136000000D03*
X110600000Y-136000000D03*
X110600000Y-132000000D03*
X117400000Y-132000000D03*
D13*
X144600000Y-56000000D03*
X159200000Y-56500000D03*
X130700000Y-51900000D03*
D14*
X127700000Y-53400000D03*
X141000000Y-52197990D03*
X139745066Y-52197990D03*
D13*
X131488199Y-53802010D03*
X138500000Y-51900000D03*
X128600000Y-51000000D03*
D14*
X126700000Y-54500000D03*
X128700000Y-54500000D03*
X123700000Y-62300000D03*
X122900000Y-62300000D03*
X122173702Y-62332224D03*
X120000000Y-61943968D03*
D13*
X109000000Y-82100000D03*
D14*
X133400000Y-65100000D03*
X135100000Y-66000000D03*
X133400000Y-65900000D03*
X135100000Y-65100000D03*
X147800000Y-92900000D03*
X139200000Y-92500000D03*
X138500000Y-92500000D03*
D15*
X134400000Y-92500000D03*
D14*
X108800000Y-67900000D03*
X114900000Y-74000000D03*
D13*
X132400000Y-114500000D03*
X120000000Y-106600000D03*
X122000000Y-106600000D03*
X124000000Y-106600000D03*
X126000000Y-106600000D03*
X130000000Y-106600000D03*
X132000000Y-106600000D03*
X134000000Y-106600000D03*
X136000000Y-106600000D03*
D15*
X144900000Y-113000000D03*
X147400000Y-113000000D03*
X144000000Y-116900000D03*
X144100000Y-118200000D03*
X160200000Y-118400000D03*
X152200000Y-112600000D03*
D14*
X167845000Y-67460000D03*
X167900000Y-84000000D03*
X145400000Y-86500000D03*
X141700000Y-85300000D03*
X142000000Y-82600000D03*
X139300000Y-54100000D03*
X136500000Y-81000000D03*
X136300000Y-71200000D03*
X136500000Y-73000000D03*
X129100000Y-73700000D03*
X132900000Y-68400000D03*
D15*
X151600000Y-90100000D03*
D13*
X133100000Y-55700000D03*
X129400000Y-55700000D03*
D14*
X127800000Y-57200000D03*
X120000000Y-59400000D03*
X118000000Y-57200000D03*
X119584902Y-58519469D03*
X118887797Y-57768837D03*
X115621334Y-57000000D03*
X114514000Y-57000000D03*
X113406667Y-57000000D03*
X112299333Y-57000000D03*
X111192000Y-57000000D03*
X110084666Y-57000000D03*
X108977333Y-57000000D03*
X116800000Y-57000000D03*
X107870000Y-57000000D03*
X108891137Y-59000000D03*
X109912275Y-59000000D03*
X110933413Y-59000000D03*
X111954550Y-59000000D03*
X112975688Y-59000000D03*
X113996826Y-59000000D03*
X115017963Y-59000000D03*
X116039101Y-59000000D03*
X117056461Y-59046051D03*
X117892886Y-59595427D03*
X107870000Y-59000000D03*
D13*
X131600000Y-64600000D03*
D14*
X127600000Y-114700000D03*
D13*
X130700000Y-63800000D03*
X130000000Y-62200000D03*
D14*
X129100000Y-116500000D03*
D13*
X114800000Y-97900000D03*
X115900000Y-100100000D03*
D14*
X121100000Y-110900000D03*
X130600000Y-118300000D03*
X130100000Y-117700000D03*
X129600000Y-117100000D03*
X128600000Y-115900000D03*
X128100000Y-115300000D03*
X138300000Y-67300000D03*
X137200000Y-86300000D03*
X137200000Y-85600000D03*
X136500000Y-85600000D03*
X136500000Y-86300000D03*
X135800000Y-85600000D03*
X135800000Y-86300000D03*
X139900000Y-90800000D03*
X139900000Y-91500000D03*
X139900000Y-92200000D03*
X136100000Y-92400000D03*
X141800000Y-91700000D03*
X144100000Y-87400000D03*
X143800000Y-88800000D03*
X131400000Y-57300000D03*
X107300000Y-131900000D03*
X127000000Y-58900000D03*
X106600000Y-116300000D03*
X107700000Y-116300000D03*
X108900000Y-116300000D03*
D13*
X126800000Y-67800000D03*
X129200000Y-67800000D03*
X125600000Y-70900000D03*
X125600000Y-73600000D03*
X122400000Y-70900000D03*
X122400000Y-73600000D03*
D14*
X118700000Y-62000000D03*
X132850000Y-81800000D03*
X120100000Y-96550000D03*
X122900000Y-77800000D03*
X124800000Y-77800000D03*
X126700000Y-77800000D03*
X124500000Y-56000000D03*
D15*
X187500000Y-120900000D03*
X194600000Y-120900000D03*
X191000000Y-124400000D03*
X191000000Y-130800000D03*
X191000000Y-137200000D03*
X188800000Y-134300000D03*
X193100000Y-134300000D03*
D13*
X108300000Y-74800000D03*
X108700000Y-80300000D03*
X107500000Y-75500000D03*
D15*
X141602442Y-96279021D03*
D13*
X113900000Y-96429021D03*
D14*
X106900000Y-56700000D03*
X106100000Y-56200000D03*
X105200000Y-55700000D03*
X104800000Y-54900000D03*
X104500000Y-54000000D03*
X103700000Y-54000000D03*
X102900000Y-54000000D03*
X102100000Y-54000000D03*
X101300000Y-54000000D03*
X100500000Y-54000000D03*
X102100000Y-62000000D03*
X102900000Y-62000000D03*
X101300000Y-62000000D03*
X100500000Y-62000000D03*
X106100000Y-59800000D03*
X103700000Y-62000000D03*
X105200000Y-60300000D03*
X107000000Y-59300000D03*
X104800000Y-61100000D03*
X104500000Y-62000000D03*
D13*
X122100000Y-88200000D03*
X119300000Y-89400000D03*
X117800000Y-83800000D03*
X117100000Y-78200000D03*
X111000000Y-78000000D03*
X110400000Y-75500000D03*
X111900000Y-74000000D03*
X108200000Y-72500000D03*
X109800000Y-70900000D03*
X112300000Y-68800000D03*
X110500000Y-91100000D03*
X114000000Y-94200000D03*
X118000000Y-92400000D03*
X117000000Y-94000000D03*
X127400000Y-92300000D03*
X130100000Y-94200000D03*
X124600000Y-94200000D03*
X115600000Y-96400000D03*
X115900000Y-98900000D03*
X113000000Y-98800000D03*
X112700000Y-97100000D03*
X108600000Y-93900000D03*
X107700000Y-95600000D03*
X112700000Y-101400000D03*
X110000000Y-116100000D03*
X109000000Y-110700000D03*
X108700000Y-102700000D03*
X105700000Y-117400000D03*
X105700000Y-121000000D03*
X105900000Y-126900000D03*
X105600000Y-108600000D03*
X105600000Y-99700000D03*
X105600000Y-89600000D03*
X105600000Y-78000000D03*
X105700000Y-70800000D03*
X107600000Y-69100000D03*
X111900000Y-61200000D03*
X108900000Y-64500000D03*
X102300000Y-64100000D03*
X107500000Y-61900000D03*
X105300000Y-66200000D03*
X100900000Y-50800000D03*
X100900000Y-52900000D03*
X103700000Y-51700000D03*
X116300000Y-51000000D03*
X109600000Y-51000000D03*
X116500000Y-55600000D03*
X109600000Y-55800000D03*
X126100000Y-50900000D03*
X137600000Y-54300000D03*
X134700000Y-54300000D03*
X135400000Y-56500000D03*
X133200000Y-57400000D03*
X130900000Y-58300000D03*
X133100000Y-60000000D03*
X129800000Y-60500000D03*
X132900000Y-63900000D03*
X132600000Y-69100000D03*
X127100000Y-83700000D03*
X124700000Y-83700000D03*
X129800000Y-88400000D03*
X127200000Y-80800000D03*
X124700000Y-80800000D03*
X122200000Y-80800000D03*
X134200000Y-89800000D03*
X132600000Y-86700000D03*
X137900000Y-81000000D03*
X135000000Y-83100000D03*
X153800000Y-90400000D03*
X165100000Y-83900000D03*
X159500000Y-89900000D03*
X154100000Y-95300000D03*
X146200000Y-96800000D03*
X156300000Y-87500000D03*
X159700000Y-84000000D03*
X163500000Y-80200000D03*
X172700000Y-76900000D03*
X165500000Y-76800000D03*
X172700000Y-86600000D03*
X165300000Y-86900000D03*
X173100000Y-74600000D03*
X165400000Y-74600000D03*
X172700000Y-59600000D03*
X164300000Y-59400000D03*
X162900000Y-66600000D03*
X162700000Y-70800000D03*
X142200000Y-66200000D03*
X135600000Y-67400000D03*
X138300000Y-71300000D03*
X137100000Y-77100000D03*
X142700000Y-71300000D03*
X140500000Y-71400000D03*
X140200000Y-82700000D03*
X135900000Y-60700000D03*
X142000000Y-57400000D03*
X169000000Y-51100000D03*
X144400000Y-82500000D03*
X145100000Y-70300000D03*
X145200000Y-78000000D03*
X122000000Y-104800000D03*
X120000000Y-104800000D03*
X124000000Y-104700000D03*
X126000000Y-104700000D03*
D14*
X130000000Y-105800000D03*
D13*
X138000000Y-106000000D03*
X133500000Y-114500000D03*
X126400000Y-114000000D03*
X129700000Y-119500000D03*
X143900000Y-119800000D03*
X137600000Y-118000000D03*
X133400000Y-119000000D03*
X138100000Y-111700000D03*
X122900000Y-111400000D03*
X125300000Y-120000000D03*
X127200000Y-121800000D03*
X130900000Y-123400000D03*
X136400000Y-123600000D03*
X142600000Y-123700000D03*
X149700000Y-123800000D03*
X154100000Y-122200000D03*
X149400000Y-120700000D03*
X152600000Y-115100000D03*
X162600000Y-109200000D03*
X163000000Y-115900000D03*
X154800000Y-107100000D03*
X158600000Y-107000000D03*
X163400000Y-112600000D03*
X162000000Y-120900000D03*
X157500000Y-122200000D03*
X149300000Y-105800000D03*
X146300000Y-105500000D03*
X144800000Y-101500000D03*
X142700000Y-104900000D03*
X139700000Y-108700000D03*
X122500000Y-120400000D03*
X115800000Y-116400000D03*
X112500000Y-116500000D03*
X112400000Y-107000000D03*
X120300000Y-98500000D03*
X139900000Y-96600000D03*
X138400000Y-103400000D03*
X124100000Y-96800000D03*
X121000000Y-136900000D03*
X106300000Y-136800000D03*
X129800000Y-136800000D03*
X144600000Y-136600000D03*
X152200000Y-136800000D03*
X161000000Y-136800000D03*
X175800000Y-136600000D03*
X183700000Y-136800000D03*
X198200000Y-136600000D03*
X198600000Y-51200000D03*
X198400000Y-63200000D03*
X198600000Y-82500000D03*
X198700000Y-105600000D03*
X181400000Y-112000000D03*
X181800000Y-82900000D03*
X186400000Y-67900000D03*
X154500000Y-80400000D03*
X174200000Y-119500000D03*
X176900000Y-128300000D03*
X170000000Y-128300000D03*
X130500000Y-130000000D03*
X140400000Y-128500000D03*
X117200000Y-128800000D03*
X164000000Y-129600000D03*
X116300000Y-124000000D03*
D16*
X127700000Y-53824264D02*
X127700000Y-53400000D01*
X127700000Y-54724264D02*
X127700000Y-53824264D01*
X122900000Y-59524264D02*
X127700000Y-54724264D01*
X122900000Y-62300000D02*
X122900000Y-59524264D01*
X139300000Y-52643056D02*
X139745066Y-52197990D01*
X139300000Y-54100000D02*
X139300000Y-52643056D01*
X126700000Y-55000000D02*
X126700000Y-54500000D01*
X122173702Y-59526298D02*
X126700000Y-55000000D01*
X122173702Y-62332224D02*
X122173702Y-59526298D01*
X123700000Y-59500000D02*
X128700000Y-54500000D01*
X123700000Y-62300000D02*
X123700000Y-59500000D01*
D17*
X107500000Y-80600000D02*
X109000000Y-82100000D01*
X107500000Y-75500000D02*
X107500000Y-80600000D01*
X135100000Y-65100000D02*
X133400000Y-65100000D01*
X135000000Y-65900000D02*
X135100000Y-66000000D01*
X133400000Y-65900000D02*
X135000000Y-65900000D01*
X114900000Y-74000000D02*
X108800000Y-67900000D01*
D18*
X144100000Y-87400000D02*
X145000000Y-86500000D01*
X145000000Y-86500000D02*
X145400000Y-86500000D01*
D17*
X141700000Y-82900000D02*
X141700000Y-85300000D01*
X142000000Y-82600000D02*
X141700000Y-82900000D01*
D19*
X129400000Y-55700000D02*
X133100000Y-55700000D01*
D16*
X131400000Y-57300000D02*
X127900000Y-57300000D01*
X127900000Y-57300000D02*
X127800000Y-57200000D01*
D17*
X130700000Y-83300000D02*
X130700000Y-64365685D01*
X116800000Y-96000000D02*
X130000000Y-82800000D01*
X128600000Y-115900000D02*
X128300001Y-116199999D01*
X116800000Y-111400000D02*
X116800000Y-96000000D01*
X128300001Y-116199999D02*
X122799999Y-116199999D01*
X130700000Y-64365685D02*
X130700000Y-63800000D01*
X122200000Y-116800000D02*
X116800000Y-111400000D01*
X128800001Y-116799999D02*
X122200000Y-116800000D01*
X117900000Y-96100000D02*
X130700000Y-83300000D01*
X117900000Y-111300000D02*
X117900000Y-96100000D01*
X129100000Y-116500000D02*
X128800001Y-116799999D01*
X130000000Y-73400000D02*
X130000000Y-62200000D01*
X130000000Y-82800000D02*
X130000000Y-73400000D01*
X122799999Y-116199999D02*
X117900000Y-111300000D01*
X131600000Y-83500000D02*
X131600000Y-76300000D01*
X118900000Y-111200000D02*
X118900000Y-96200000D01*
X123300000Y-115600000D02*
X118900000Y-111200000D01*
X128100000Y-115300000D02*
X127800000Y-115600000D01*
X118900000Y-96200000D02*
X131600000Y-83500000D01*
X127800000Y-115600000D02*
X123300000Y-115600000D01*
X131600000Y-76300000D02*
X131600000Y-64600000D01*
X127300000Y-115000000D02*
X127600000Y-114700000D01*
X125200000Y-115000000D02*
X127300000Y-115000000D01*
X121100000Y-110900000D02*
X125200000Y-115000000D01*
X114800000Y-111500000D02*
X121300000Y-118000000D01*
X114800000Y-97900000D02*
X114800000Y-111500000D01*
X121300000Y-118000000D02*
X129800001Y-117999999D01*
X129800001Y-117999999D02*
X130100000Y-117700000D01*
X129300000Y-117400000D02*
X121700000Y-117400000D01*
X121700000Y-117400000D02*
X115900000Y-111600000D01*
X115900000Y-111600000D02*
X115900000Y-100665685D01*
X115900000Y-100665685D02*
X115900000Y-100100000D01*
X129600000Y-117100000D02*
X129300000Y-117400000D01*
D18*
X136100000Y-92400000D02*
X137000000Y-93300000D01*
X143800000Y-91700000D02*
X143800000Y-89224264D01*
X143800000Y-89224264D02*
X143800000Y-88800000D01*
X142200000Y-93300000D02*
X143800000Y-91700000D01*
X137000000Y-93300000D02*
X142200000Y-93300000D01*
D16*
X110500000Y-131900000D02*
X110600000Y-132000000D01*
X107300000Y-131900000D02*
X110500000Y-131900000D01*
X138300000Y-67300000D02*
X129900000Y-58900000D01*
X127424264Y-58900000D02*
X127000000Y-58900000D01*
X129900000Y-58900000D02*
X127424264Y-58900000D01*
X106600000Y-123800000D02*
X106600000Y-116300000D01*
X112800000Y-130000000D02*
X106600000Y-123800000D01*
X133600000Y-132000000D02*
X130121481Y-132000000D01*
X128121481Y-130000000D02*
X112800000Y-130000000D01*
X130121481Y-132000000D02*
X128121481Y-130000000D01*
X108900000Y-116300000D02*
X108900000Y-122800000D01*
X108900000Y-122800000D02*
X112500000Y-126400000D01*
X112500000Y-126400000D02*
X178700000Y-126400000D01*
X184300000Y-132000000D02*
X187600000Y-132000000D01*
X178700000Y-126400000D02*
X184300000Y-132000000D01*
X132850000Y-81800000D02*
X132850000Y-82224264D01*
X132850000Y-82224264D02*
X132850000Y-83450000D01*
X132850000Y-82224264D02*
X132850000Y-83800000D01*
X132850000Y-83800000D02*
X120100000Y-96550000D01*
D17*
X194400000Y-132000000D02*
X187600000Y-132000000D01*
X171400000Y-132000000D02*
X164600000Y-132000000D01*
X138550000Y-132000000D02*
X133600000Y-132000000D01*
X140400000Y-132000000D02*
X138550000Y-132000000D01*
X117400000Y-132000000D02*
X110600000Y-132000000D01*
X108300000Y-74800000D02*
X108300001Y-79900001D01*
X108300001Y-79900001D02*
X108700000Y-80300000D01*
X130300000Y-118600000D02*
X120700000Y-118600000D01*
X120700000Y-118600000D02*
X113900000Y-111800000D01*
X113900000Y-111800000D02*
X113900000Y-96994706D01*
X113900000Y-96994706D02*
X113900000Y-96429021D01*
X130600000Y-118300000D02*
X130300000Y-118600000D01*
D20*
X141602442Y-96202442D02*
X141602442Y-96279021D01*
X140100000Y-94700000D02*
X141602442Y-96202442D01*
X134400000Y-92500000D02*
X136600000Y-94700000D01*
X136600000Y-94700000D02*
X140100000Y-94700000D01*
D16*
X107700000Y-123400000D02*
X111100000Y-126800000D01*
X107700000Y-116300000D02*
X107700000Y-123400000D01*
X111100000Y-126800000D02*
X164300000Y-126800000D01*
X164300000Y-126800000D02*
X167900000Y-130400000D01*
X167900000Y-132000000D02*
X164600000Y-132000000D01*
X167900000Y-130400000D02*
X167900000Y-132000000D01*
G36*
X144924519Y-54384097D02*
G01*
X144934031Y-54437229D01*
X144934058Y-54438272D01*
X144934586Y-54440332D01*
X144934927Y-54442235D01*
X144935299Y-54443112D01*
X144937700Y-54452473D01*
X145069180Y-54962707D01*
X145069291Y-54963798D01*
X145069999Y-54965886D01*
X145070447Y-54967623D01*
X145070860Y-54968424D01*
X145074001Y-54977681D01*
X145243350Y-55476567D01*
X145243545Y-55477660D01*
X145244416Y-55479707D01*
X145244980Y-55481368D01*
X145245444Y-55482122D01*
X145249284Y-55491145D01*
X145249283Y-55491145D01*
X145455556Y-55975918D01*
X145455852Y-55977071D01*
X145456933Y-55979155D01*
X145457543Y-55980588D01*
X145458015Y-55981240D01*
X145462641Y-55990156D01*
X145704605Y-56457952D01*
X145704991Y-56459092D01*
X145706236Y-56461106D01*
X145706939Y-56462464D01*
X145707452Y-56463071D01*
X145712654Y-56471483D01*
X145989093Y-56919951D01*
X145989568Y-56921069D01*
X145990974Y-56923002D01*
X145991762Y-56924280D01*
X145992309Y-56924836D01*
X145998252Y-56933006D01*
X146307427Y-57359331D01*
X146307930Y-57360305D01*
X146309356Y-57361990D01*
X146310408Y-57363441D01*
X146311085Y-57364033D01*
X146317399Y-57371496D01*
X146657804Y-57773597D01*
X146658386Y-57774543D01*
X146659951Y-57776133D01*
X146661088Y-57777476D01*
X146661797Y-57778008D01*
X146668670Y-57784991D01*
X147038264Y-58160437D01*
X147038842Y-58161235D01*
X147040366Y-58162572D01*
X147041818Y-58164047D01*
X147042665Y-58164589D01*
X147049858Y-58170899D01*
X147446647Y-58517650D01*
X147447303Y-58518426D01*
X147448966Y-58519676D01*
X147450474Y-58520994D01*
X147451337Y-58521459D01*
X147459021Y-58527235D01*
X147880671Y-58843244D01*
X147881426Y-58844012D01*
X147883260Y-58845184D01*
X147884729Y-58846285D01*
X147885566Y-58846658D01*
X147893775Y-58851904D01*
X148337885Y-59135378D01*
X148338693Y-59136085D01*
X148340603Y-59137112D01*
X148342161Y-59138107D01*
X148343030Y-59138418D01*
X148351603Y-59143030D01*
X148815719Y-59392409D01*
X148816634Y-59393096D01*
X148818715Y-59394019D01*
X148820180Y-59394806D01*
X148820998Y-59395031D01*
X148830069Y-59399054D01*
X149311467Y-59612883D01*
X149312450Y-59613512D01*
X149314629Y-59614288D01*
X149316104Y-59614943D01*
X149316918Y-59615103D01*
X149326207Y-59618410D01*
X149822355Y-59795569D01*
X149823292Y-59796073D01*
X149825371Y-59796645D01*
X149827137Y-59797276D01*
X149828062Y-59797386D01*
X149837424Y-59799964D01*
X150345513Y-59939438D01*
X150346452Y-59939856D01*
X150348509Y-59940260D01*
X150350402Y-59940780D01*
X150351367Y-59940822D01*
X150360833Y-59942683D01*
X150877983Y-60043676D01*
X150879026Y-60044049D01*
X150881230Y-60044310D01*
X150882952Y-60044646D01*
X150883838Y-60044618D01*
X150893576Y-60045770D01*
X150893576Y-60045771D01*
X151416751Y-60107692D01*
X151417881Y-60108003D01*
X151420202Y-60108100D01*
X151421797Y-60108289D01*
X151422617Y-60108201D01*
X151432583Y-60108619D01*
X151958812Y-60131134D01*
X151959991Y-60131365D01*
X151962360Y-60131285D01*
X151963892Y-60131351D01*
X151964673Y-60131208D01*
X151974727Y-60130870D01*
X152501118Y-60113868D01*
X152502335Y-60114013D01*
X152504724Y-60113751D01*
X152506191Y-60113704D01*
X152506932Y-60113510D01*
X152516973Y-60112410D01*
X153040594Y-60055989D01*
X153041716Y-60056038D01*
X153043924Y-60055630D01*
X153045643Y-60055445D01*
X153046471Y-60055160D01*
X153056120Y-60053378D01*
X153574206Y-59957824D01*
X153575303Y-59957790D01*
X153577441Y-59957228D01*
X153579207Y-59956902D01*
X153580034Y-59956546D01*
X153589482Y-59954061D01*
X154098968Y-59819924D01*
X154100120Y-59819801D01*
X154102293Y-59819049D01*
X154103876Y-59818632D01*
X154104619Y-59818244D01*
X154113928Y-59815021D01*
X154611908Y-59643066D01*
X154612999Y-59642866D01*
X154615042Y-59641984D01*
X154616699Y-59641412D01*
X154617449Y-59640945D01*
X154626453Y-59637059D01*
X155110143Y-59428248D01*
X155111207Y-59427969D01*
X155113165Y-59426944D01*
X155114797Y-59426239D01*
X155115519Y-59425711D01*
X155124189Y-59421170D01*
X155590862Y-59176681D01*
X155591831Y-59176347D01*
X155593611Y-59175241D01*
X155595362Y-59174323D01*
X155596099Y-59173693D01*
X155604280Y-59168607D01*
X156051378Y-58889770D01*
X156052278Y-58889382D01*
X156053910Y-58888190D01*
X156055681Y-58887086D01*
X156056398Y-58886374D01*
X156064114Y-58880741D01*
X156489077Y-58569145D01*
X156489973Y-58568677D01*
X156491549Y-58567333D01*
X156493173Y-58566142D01*
X156493818Y-58565397D01*
X156501127Y-58559163D01*
X156901505Y-58216603D01*
X156902485Y-58215993D01*
X156904111Y-58214373D01*
X156905362Y-58213303D01*
X156905863Y-58212628D01*
X156912900Y-58205619D01*
X157286334Y-57834134D01*
X157287273Y-57833447D01*
X157288784Y-57831697D01*
X157289941Y-57830546D01*
X157290387Y-57829841D01*
X157296826Y-57822383D01*
X157641418Y-57423872D01*
X157642234Y-57423175D01*
X157643527Y-57421433D01*
X157644734Y-57420037D01*
X157645166Y-57419225D01*
X157650969Y-57411406D01*
X157964737Y-56988146D01*
X157965539Y-56987349D01*
X157966741Y-56985442D01*
X157967750Y-56984081D01*
X157968097Y-56983292D01*
X157973339Y-56974975D01*
X157973340Y-56974975D01*
X158254463Y-56529421D01*
X158255262Y-56528499D01*
X158256381Y-56526382D01*
X158257172Y-56525128D01*
X158257429Y-56524399D01*
X158262062Y-56515631D01*
X158508990Y-56050249D01*
X158509616Y-56049406D01*
X158510473Y-56047453D01*
X158511368Y-56045767D01*
X158511614Y-56044854D01*
X158515508Y-56035985D01*
X158726871Y-55553342D01*
X158727435Y-55552450D01*
X158728145Y-55550432D01*
X158728904Y-55548700D01*
X158729080Y-55547778D01*
X158732302Y-55538626D01*
X158906878Y-55041509D01*
X158907380Y-55040564D01*
X158907944Y-55038472D01*
X158908560Y-55036718D01*
X158908665Y-55035799D01*
X158911196Y-55026410D01*
X159026132Y-54598950D01*
X161996354Y-50326000D01*
X199674000Y-50326000D01*
X199674001Y-137674000D01*
X105326000Y-137674000D01*
X105326000Y-136128000D01*
X108358163Y-136128000D01*
X108358163Y-136516588D01*
X108438795Y-136817512D01*
X108586185Y-136993165D01*
X108779814Y-137104956D01*
X108988976Y-137141837D01*
X110472000Y-137141837D01*
X110472000Y-136128000D01*
X110728000Y-136128000D01*
X110728000Y-137141837D01*
X112216588Y-137141837D01*
X112517512Y-137061205D01*
X112693165Y-136913815D01*
X112804956Y-136720186D01*
X112841837Y-136511024D01*
X112841837Y-136128000D01*
X115158163Y-136128000D01*
X115158163Y-136516588D01*
X115238795Y-136817512D01*
X115386185Y-136993165D01*
X115579814Y-137104956D01*
X115788976Y-137141837D01*
X117272000Y-137141837D01*
X117272000Y-136128000D01*
X117528000Y-136128000D01*
X117528000Y-137141837D01*
X119016588Y-137141837D01*
X119317512Y-137061205D01*
X119493165Y-136913815D01*
X119604956Y-136720186D01*
X119641837Y-136511024D01*
X119641837Y-136128000D01*
X117528000Y-136128000D01*
X117272000Y-136128000D01*
X115158163Y-136128000D01*
X112841837Y-136128000D01*
X110728000Y-136128000D01*
X110472000Y-136128000D01*
X108358163Y-136128000D01*
X105326000Y-136128000D01*
X105326000Y-135488976D01*
X108358163Y-135488976D01*
X108358163Y-135872000D01*
X110472000Y-135872000D01*
X110472000Y-134858163D01*
X110728000Y-134858163D01*
X110728000Y-135872000D01*
X112841837Y-135872000D01*
X112841837Y-135488976D01*
X115158163Y-135488976D01*
X115158163Y-135872000D01*
X117272000Y-135872000D01*
X117272000Y-134858163D01*
X117528000Y-134858163D01*
X117528000Y-135872000D01*
X119641837Y-135872000D01*
X119641837Y-135483412D01*
X119561205Y-135182489D01*
X119413815Y-135006835D01*
X119220186Y-134895044D01*
X119011024Y-134858163D01*
X117528000Y-134858163D01*
X117272000Y-134858163D01*
X115783412Y-134858163D01*
X115482489Y-134938795D01*
X115306835Y-135086185D01*
X115195044Y-135279814D01*
X115158163Y-135488976D01*
X112841837Y-135488976D01*
X112841837Y-135483412D01*
X112761205Y-135182489D01*
X112613815Y-135006835D01*
X112420186Y-134895044D01*
X112211024Y-134858163D01*
X110728000Y-134858163D01*
X110472000Y-134858163D01*
X108983412Y-134858163D01*
X108682489Y-134938795D01*
X108506835Y-135086185D01*
X108395044Y-135279814D01*
X108358163Y-135488976D01*
X105326000Y-135488976D01*
X105326000Y-134081968D01*
X122869780Y-134081968D01*
X122899946Y-134441203D01*
X122971201Y-134794591D01*
X123082602Y-135137446D01*
X123232671Y-135465225D01*
X123419420Y-135773584D01*
X123640372Y-136058435D01*
X123892601Y-136316002D01*
X124172762Y-136542871D01*
X124477141Y-136736037D01*
X124801706Y-136892938D01*
X125142154Y-137011494D01*
X125493971Y-137090134D01*
X125852496Y-137127817D01*
X126212976Y-137124042D01*
X126570633Y-137078860D01*
X126920727Y-136992868D01*
X127258617Y-136867208D01*
X127579824Y-136703545D01*
X127880092Y-136504048D01*
X128155440Y-136271360D01*
X128290063Y-136128000D01*
X131358163Y-136128000D01*
X131358163Y-136516588D01*
X131438795Y-136817512D01*
X131586185Y-136993165D01*
X131779814Y-137104956D01*
X131988976Y-137141837D01*
X133472000Y-137141837D01*
X133472000Y-136128000D01*
X133728000Y-136128000D01*
X133728000Y-137141837D01*
X135216588Y-137141837D01*
X135517512Y-137061205D01*
X135693165Y-136913815D01*
X135804956Y-136720186D01*
X135841837Y-136511024D01*
X135841837Y-136128000D01*
X138158163Y-136128000D01*
X138158163Y-136516588D01*
X138238795Y-136817512D01*
X138386185Y-136993165D01*
X138579814Y-137104956D01*
X138788976Y-137141837D01*
X140272000Y-137141837D01*
X140272000Y-136128000D01*
X140528000Y-136128000D01*
X140528000Y-137141837D01*
X142016588Y-137141837D01*
X142317512Y-137061205D01*
X142493165Y-136913815D01*
X142604956Y-136720186D01*
X142641837Y-136511024D01*
X142641837Y-136128000D01*
X162358163Y-136128000D01*
X162358163Y-136516588D01*
X162438795Y-136817512D01*
X162586185Y-136993165D01*
X162779814Y-137104956D01*
X162988976Y-137141837D01*
X164472000Y-137141837D01*
X164472000Y-136128000D01*
X164728000Y-136128000D01*
X164728000Y-137141837D01*
X166216588Y-137141837D01*
X166517512Y-137061205D01*
X166693165Y-136913815D01*
X166804956Y-136720186D01*
X166841837Y-136511024D01*
X166841837Y-136128000D01*
X169158163Y-136128000D01*
X169158163Y-136516588D01*
X169238795Y-136817512D01*
X169386185Y-136993165D01*
X169579814Y-137104956D01*
X169788976Y-137141837D01*
X171272000Y-137141837D01*
X171272000Y-136128000D01*
X171528000Y-136128000D01*
X171528000Y-137141837D01*
X173016588Y-137141837D01*
X173317512Y-137061205D01*
X173493165Y-136913815D01*
X173604956Y-136720186D01*
X173641837Y-136511024D01*
X173641837Y-136128000D01*
X171528000Y-136128000D01*
X171272000Y-136128000D01*
X169158163Y-136128000D01*
X166841837Y-136128000D01*
X164728000Y-136128000D01*
X164472000Y-136128000D01*
X162358163Y-136128000D01*
X142641837Y-136128000D01*
X140528000Y-136128000D01*
X140272000Y-136128000D01*
X138158163Y-136128000D01*
X135841837Y-136128000D01*
X133728000Y-136128000D01*
X133472000Y-136128000D01*
X131358163Y-136128000D01*
X128290063Y-136128000D01*
X128402219Y-136008567D01*
X128617158Y-135719152D01*
X128750049Y-135488976D01*
X131358163Y-135488976D01*
X131358163Y-135872000D01*
X133472000Y-135872000D01*
X133472000Y-134858163D01*
X133728000Y-134858163D01*
X133728000Y-135872000D01*
X135841837Y-135872000D01*
X135841837Y-135488976D01*
X138158163Y-135488976D01*
X138158163Y-135872000D01*
X140272000Y-135872000D01*
X140272000Y-134858163D01*
X140528000Y-134858163D01*
X140528000Y-135872000D01*
X142641837Y-135872000D01*
X142641837Y-135488976D01*
X162358163Y-135488976D01*
X162358163Y-135872000D01*
X164472000Y-135872000D01*
X164472000Y-134858163D01*
X164728000Y-134858163D01*
X164728000Y-135872000D01*
X166841837Y-135872000D01*
X166841837Y-135488976D01*
X169158163Y-135488976D01*
X169158163Y-135872000D01*
X171272000Y-135872000D01*
X171272000Y-134858163D01*
X171528000Y-134858163D01*
X171528000Y-135872000D01*
X173641837Y-135872000D01*
X173641837Y-135483412D01*
X173561205Y-135182489D01*
X173413815Y-135006835D01*
X173220186Y-134895044D01*
X173011024Y-134858163D01*
X171528000Y-134858163D01*
X171272000Y-134858163D01*
X169783412Y-134858163D01*
X169482489Y-134938795D01*
X169306835Y-135086185D01*
X169195044Y-135279814D01*
X169158163Y-135488976D01*
X166841837Y-135488976D01*
X166841837Y-135483412D01*
X166761205Y-135182489D01*
X166613815Y-135006835D01*
X166420186Y-134895044D01*
X166211024Y-134858163D01*
X164728000Y-134858163D01*
X164472000Y-134858163D01*
X162983412Y-134858163D01*
X162682489Y-134938795D01*
X162506835Y-135086185D01*
X162395044Y-135279814D01*
X162358163Y-135488976D01*
X142641837Y-135488976D01*
X142641837Y-135483412D01*
X142561205Y-135182489D01*
X142413815Y-135006835D01*
X142220186Y-134895044D01*
X142011024Y-134858163D01*
X140528000Y-134858163D01*
X140272000Y-134858163D01*
X138783412Y-134858163D01*
X138482489Y-134938795D01*
X138306835Y-135086185D01*
X138195044Y-135279814D01*
X138158163Y-135488976D01*
X135841837Y-135488976D01*
X135841837Y-135483412D01*
X135761205Y-135182489D01*
X135613815Y-135006835D01*
X135420186Y-134895044D01*
X135211024Y-134858163D01*
X133728000Y-134858163D01*
X133472000Y-134858163D01*
X131983412Y-134858163D01*
X131682489Y-134938795D01*
X131506835Y-135086185D01*
X131395044Y-135279814D01*
X131358163Y-135488976D01*
X128750049Y-135488976D01*
X128797408Y-135406949D01*
X128940579Y-135076099D01*
X129044775Y-134730986D01*
X129108966Y-134374227D01*
X129118150Y-134081968D01*
X176869780Y-134081968D01*
X176899946Y-134441203D01*
X176971201Y-134794591D01*
X177082602Y-135137446D01*
X177232671Y-135465225D01*
X177419420Y-135773584D01*
X177640372Y-136058435D01*
X177892601Y-136316002D01*
X178172762Y-136542871D01*
X178477141Y-136736037D01*
X178801706Y-136892938D01*
X179142154Y-137011494D01*
X179493971Y-137090134D01*
X179852496Y-137127817D01*
X180212976Y-137124042D01*
X180570633Y-137078860D01*
X180920727Y-136992868D01*
X181258617Y-136867208D01*
X181579824Y-136703545D01*
X181880092Y-136504048D01*
X182155440Y-136271360D01*
X182290063Y-136128000D01*
X185358163Y-136128000D01*
X185358163Y-136516588D01*
X185438795Y-136817512D01*
X185586185Y-136993165D01*
X185779814Y-137104956D01*
X185988976Y-137141837D01*
X187472000Y-137141837D01*
X187472000Y-136128000D01*
X187728000Y-136128000D01*
X187728000Y-137141837D01*
X189216588Y-137141837D01*
X189517512Y-137061205D01*
X189693165Y-136913815D01*
X189804956Y-136720186D01*
X189841837Y-136511024D01*
X189841837Y-136128000D01*
X192158163Y-136128000D01*
X192158163Y-136516588D01*
X192238795Y-136817512D01*
X192386185Y-136993165D01*
X192579814Y-137104956D01*
X192788976Y-137141837D01*
X194272000Y-137141837D01*
X194272000Y-136128000D01*
X194528000Y-136128000D01*
X194528000Y-137141837D01*
X196016588Y-137141837D01*
X196317512Y-137061205D01*
X196493165Y-136913815D01*
X196604956Y-136720186D01*
X196641837Y-136511024D01*
X196641837Y-136128000D01*
X194528000Y-136128000D01*
X194272000Y-136128000D01*
X192158163Y-136128000D01*
X189841837Y-136128000D01*
X187728000Y-136128000D01*
X187472000Y-136128000D01*
X185358163Y-136128000D01*
X182290063Y-136128000D01*
X182402219Y-136008567D01*
X182617158Y-135719152D01*
X182750049Y-135488976D01*
X185358163Y-135488976D01*
X185358163Y-135872000D01*
X187472000Y-135872000D01*
X187472000Y-134858163D01*
X187728000Y-134858163D01*
X187728000Y-135872000D01*
X189841837Y-135872000D01*
X189841837Y-135488976D01*
X192158163Y-135488976D01*
X192158163Y-135872000D01*
X194272000Y-135872000D01*
X194272000Y-134858163D01*
X194528000Y-134858163D01*
X194528000Y-135872000D01*
X196641837Y-135872000D01*
X196641837Y-135483412D01*
X196561205Y-135182489D01*
X196413815Y-135006835D01*
X196220186Y-134895044D01*
X196011024Y-134858163D01*
X194528000Y-134858163D01*
X194272000Y-134858163D01*
X192783412Y-134858163D01*
X192482489Y-134938795D01*
X192306835Y-135086185D01*
X192195044Y-135279814D01*
X192158163Y-135488976D01*
X189841837Y-135488976D01*
X189841837Y-135483412D01*
X189761205Y-135182489D01*
X189613815Y-135006835D01*
X189420186Y-134895044D01*
X189211024Y-134858163D01*
X187728000Y-134858163D01*
X187472000Y-134858163D01*
X185983412Y-134858163D01*
X185682489Y-134938795D01*
X185506835Y-135086185D01*
X185395044Y-135279814D01*
X185358163Y-135488976D01*
X182750049Y-135488976D01*
X182797408Y-135406949D01*
X182940579Y-135076099D01*
X183044775Y-134730986D01*
X183108966Y-134374227D01*
X183126329Y-133821724D01*
X183084666Y-133461640D01*
X183002346Y-133110665D01*
X182880231Y-132771477D01*
X182719940Y-132448573D01*
X182523598Y-132146233D01*
X182293807Y-131868464D01*
X182033612Y-131618946D01*
X181746463Y-131400988D01*
X181436166Y-131217479D01*
X181106834Y-131070850D01*
X180762830Y-130963046D01*
X180408716Y-130895495D01*
X180049185Y-130869093D01*
X179689001Y-130884189D01*
X179332940Y-130940584D01*
X178985720Y-131037529D01*
X178651944Y-131173740D01*
X178336036Y-131347412D01*
X178042182Y-131556243D01*
X177774279Y-131797465D01*
X177535875Y-132067879D01*
X177330134Y-132363904D01*
X177159780Y-132681613D01*
X177027071Y-133016797D01*
X176933766Y-133365013D01*
X176881103Y-133721646D01*
X176869780Y-134081968D01*
X129118150Y-134081968D01*
X129126329Y-133821724D01*
X129084666Y-133461640D01*
X129002346Y-133110665D01*
X128880231Y-132771477D01*
X128719940Y-132448573D01*
X128523598Y-132146233D01*
X128293807Y-131868464D01*
X128033612Y-131618946D01*
X127746463Y-131400988D01*
X127436166Y-131217479D01*
X127106834Y-131070850D01*
X126762830Y-130963046D01*
X126408716Y-130895495D01*
X126049185Y-130869093D01*
X125689001Y-130884189D01*
X125332940Y-130940584D01*
X124985720Y-131037529D01*
X124651944Y-131173740D01*
X124336036Y-131347412D01*
X124042182Y-131556243D01*
X123774279Y-131797465D01*
X123535875Y-132067879D01*
X123330134Y-132363904D01*
X123159780Y-132681613D01*
X123027071Y-133016797D01*
X122933766Y-133365013D01*
X122881103Y-133721646D01*
X122869780Y-134081968D01*
X105326000Y-134081968D01*
X105326000Y-131789620D01*
X106674000Y-131789620D01*
X106674000Y-132010380D01*
X106749505Y-132217828D01*
X106891407Y-132386942D01*
X107082593Y-132497322D01*
X107300000Y-132535657D01*
X107517407Y-132497322D01*
X107708593Y-132386942D01*
X107780706Y-132301000D01*
X108670082Y-132301000D01*
X108670082Y-132512410D01*
X108692914Y-132627199D01*
X108764967Y-132735033D01*
X108872801Y-132807086D01*
X108987590Y-132829918D01*
X112212410Y-132829918D01*
X112327199Y-132807086D01*
X112435033Y-132735033D01*
X112507086Y-132627199D01*
X112529918Y-132512410D01*
X112529918Y-132451000D01*
X115470082Y-132451000D01*
X115470082Y-132512410D01*
X115492914Y-132627199D01*
X115564967Y-132735033D01*
X115672801Y-132807086D01*
X115787590Y-132829918D01*
X119012410Y-132829918D01*
X119127199Y-132807086D01*
X119235033Y-132735033D01*
X119307086Y-132627199D01*
X119329918Y-132512410D01*
X119329918Y-131487590D01*
X119307086Y-131372801D01*
X119235033Y-131264967D01*
X119127199Y-131192914D01*
X119012410Y-131170082D01*
X115787590Y-131170082D01*
X115672801Y-131192914D01*
X115564967Y-131264967D01*
X115492914Y-131372801D01*
X115470082Y-131487590D01*
X115470082Y-131549000D01*
X112529918Y-131549000D01*
X112529918Y-131487590D01*
X112507086Y-131372801D01*
X112435033Y-131264967D01*
X112327199Y-131192914D01*
X112212410Y-131170082D01*
X108987590Y-131170082D01*
X108872801Y-131192914D01*
X108764967Y-131264967D01*
X108692914Y-131372801D01*
X108670082Y-131487590D01*
X108670082Y-131499000D01*
X107780706Y-131499000D01*
X107708593Y-131413058D01*
X107517407Y-131302678D01*
X107300000Y-131264343D01*
X107082593Y-131302678D01*
X106891407Y-131413058D01*
X106749505Y-131582172D01*
X106674000Y-131789620D01*
X105326000Y-131789620D01*
X105326000Y-116189620D01*
X105974000Y-116189620D01*
X105974000Y-116410380D01*
X106049505Y-116617828D01*
X106191407Y-116786942D01*
X106199001Y-116791326D01*
X106199000Y-123761805D01*
X106185990Y-123830000D01*
X106204734Y-123872097D01*
X106234020Y-123991328D01*
X106282100Y-124045866D01*
X106284774Y-124051872D01*
X106306909Y-124074006D01*
X106364310Y-124139115D01*
X106376820Y-124143917D01*
X112489439Y-130256538D01*
X112528464Y-130313962D01*
X112571485Y-130330476D01*
X112676503Y-130394076D01*
X112749064Y-130398641D01*
X112755208Y-130401000D01*
X112786553Y-130401000D01*
X112873132Y-130406448D01*
X112885368Y-130401000D01*
X127955383Y-130401000D01*
X129810922Y-132256541D01*
X129849945Y-132313962D01*
X129892966Y-132330476D01*
X129997984Y-132394076D01*
X130070545Y-132398641D01*
X130076689Y-132401000D01*
X130108034Y-132401000D01*
X130194613Y-132406448D01*
X130206849Y-132401000D01*
X131670082Y-132401000D01*
X131670082Y-132512410D01*
X131692914Y-132627199D01*
X131764967Y-132735033D01*
X131872801Y-132807086D01*
X131987590Y-132829918D01*
X135212410Y-132829918D01*
X135327199Y-132807086D01*
X135435033Y-132735033D01*
X135507086Y-132627199D01*
X135529918Y-132512410D01*
X135529918Y-132451000D01*
X138470082Y-132451000D01*
X138470082Y-132512410D01*
X138492914Y-132627199D01*
X138564967Y-132735033D01*
X138672801Y-132807086D01*
X138787590Y-132829918D01*
X142012410Y-132829918D01*
X142127199Y-132807086D01*
X142235033Y-132735033D01*
X142307086Y-132627199D01*
X142329918Y-132512410D01*
X142329918Y-131625490D01*
X142361096Y-131688852D01*
X142373194Y-131703765D01*
X142381341Y-131721357D01*
X142390297Y-131732878D01*
X142522870Y-131903791D01*
X142537723Y-131915969D01*
X142549141Y-131931429D01*
X142560255Y-131940984D01*
X142724559Y-132081809D01*
X142741554Y-132090751D01*
X142755983Y-132103720D01*
X142768879Y-132110848D01*
X142768879Y-132110847D01*
X142957927Y-132215638D01*
X142976372Y-132220979D01*
X142993070Y-132230757D01*
X143007089Y-132235143D01*
X143213436Y-132299808D01*
X143232581Y-132301332D01*
X143250902Y-132307551D01*
X143265514Y-132309029D01*
X143480652Y-132330882D01*
X143520125Y-132326000D01*
X161475591Y-132326000D01*
X161510884Y-132331306D01*
X161525406Y-132330167D01*
X161692537Y-132317306D01*
X161707010Y-132312813D01*
X161722251Y-132312373D01*
X161736436Y-132308684D01*
X161945773Y-132254156D01*
X161962820Y-132245301D01*
X161981629Y-132240872D01*
X161994774Y-132234403D01*
X162188852Y-132138904D01*
X162203765Y-132126806D01*
X162221357Y-132118659D01*
X162232878Y-132109703D01*
X162403791Y-131977130D01*
X162415969Y-131962277D01*
X162431429Y-131950859D01*
X162440984Y-131939745D01*
X162581809Y-131775441D01*
X162590751Y-131758446D01*
X162603720Y-131744017D01*
X162610848Y-131731121D01*
X162610847Y-131731121D01*
X162670082Y-131624258D01*
X162670082Y-132512410D01*
X162692914Y-132627199D01*
X162764967Y-132735033D01*
X162872801Y-132807086D01*
X162987590Y-132829918D01*
X166212410Y-132829918D01*
X166327199Y-132807086D01*
X166435033Y-132735033D01*
X166507086Y-132627199D01*
X166529918Y-132512410D01*
X166529918Y-132451000D01*
X169470082Y-132451000D01*
X169470082Y-132512410D01*
X169492914Y-132627199D01*
X169564967Y-132735033D01*
X169672801Y-132807086D01*
X169787590Y-132829918D01*
X173012410Y-132829918D01*
X173127199Y-132807086D01*
X173235033Y-132735033D01*
X173307086Y-132627199D01*
X173329918Y-132512410D01*
X173329918Y-131487590D01*
X173307086Y-131372801D01*
X173235033Y-131264967D01*
X173127199Y-131192914D01*
X173012410Y-131170082D01*
X169787590Y-131170082D01*
X169672801Y-131192914D01*
X169564967Y-131264967D01*
X169492914Y-131372801D01*
X169470082Y-131487590D01*
X169470082Y-131549000D01*
X168301000Y-131549000D01*
X168301000Y-130438195D01*
X168314010Y-130370000D01*
X168295267Y-130327905D01*
X168265980Y-130208671D01*
X168217892Y-130154125D01*
X168215217Y-130148118D01*
X168193079Y-130125980D01*
X168135692Y-130060887D01*
X168123183Y-130056085D01*
X164868098Y-126801000D01*
X178533903Y-126801000D01*
X183989439Y-132256538D01*
X184028464Y-132313962D01*
X184071485Y-132330476D01*
X184176503Y-132394076D01*
X184249064Y-132398641D01*
X184255208Y-132401000D01*
X184286553Y-132401000D01*
X184373132Y-132406448D01*
X184385368Y-132401000D01*
X185670082Y-132401000D01*
X185670082Y-132512410D01*
X185692914Y-132627199D01*
X185764967Y-132735033D01*
X185872801Y-132807086D01*
X185987590Y-132829918D01*
X189212410Y-132829918D01*
X189327199Y-132807086D01*
X189435033Y-132735033D01*
X189507086Y-132627199D01*
X189529918Y-132512410D01*
X189529918Y-132451000D01*
X192470082Y-132451000D01*
X192470082Y-132512410D01*
X192492914Y-132627199D01*
X192564967Y-132735033D01*
X192672801Y-132807086D01*
X192787590Y-132829918D01*
X196012410Y-132829918D01*
X196127199Y-132807086D01*
X196235033Y-132735033D01*
X196307086Y-132627199D01*
X196329918Y-132512410D01*
X196329918Y-131487590D01*
X196307086Y-131372801D01*
X196235033Y-131264967D01*
X196127199Y-131192914D01*
X196012410Y-131170082D01*
X192787590Y-131170082D01*
X192672801Y-131192914D01*
X192564967Y-131264967D01*
X192492914Y-131372801D01*
X192470082Y-131487590D01*
X192470082Y-131549000D01*
X189529918Y-131549000D01*
X189529918Y-131487590D01*
X189507086Y-131372801D01*
X189435033Y-131264967D01*
X189327199Y-131192914D01*
X189212410Y-131170082D01*
X185987590Y-131170082D01*
X185872801Y-131192914D01*
X185764967Y-131264967D01*
X185692914Y-131372801D01*
X185670082Y-131487590D01*
X185670082Y-131599000D01*
X184466098Y-131599000D01*
X179010563Y-126143465D01*
X178971536Y-126086039D01*
X178928513Y-126069524D01*
X178823496Y-126005924D01*
X178750929Y-126001358D01*
X178744783Y-125999000D01*
X178713446Y-125999000D01*
X178626868Y-125993552D01*
X178614632Y-125999000D01*
X112666098Y-125999000D01*
X109301000Y-122633902D01*
X109301000Y-116791325D01*
X109308593Y-116786941D01*
X109450495Y-116617828D01*
X109526000Y-116410380D01*
X109526000Y-116189620D01*
X109450495Y-115982172D01*
X109308593Y-115813058D01*
X109117407Y-115702678D01*
X108900000Y-115664343D01*
X108682593Y-115702678D01*
X108491407Y-115813058D01*
X108349505Y-115982172D01*
X108300000Y-116118186D01*
X108250495Y-115982172D01*
X108108593Y-115813058D01*
X107917407Y-115702678D01*
X107700000Y-115664343D01*
X107482593Y-115702678D01*
X107291407Y-115813058D01*
X107150000Y-115981582D01*
X107008593Y-115813058D01*
X106817407Y-115702678D01*
X106600000Y-115664343D01*
X106382593Y-115702678D01*
X106191407Y-115813058D01*
X106049505Y-115982172D01*
X105974000Y-116189620D01*
X105326000Y-116189620D01*
X105326000Y-96314034D01*
X113174000Y-96314034D01*
X113174000Y-96544008D01*
X113245066Y-96762727D01*
X113380241Y-96948780D01*
X113449000Y-96998736D01*
X113449000Y-97041337D01*
X113449001Y-97041342D01*
X113449000Y-111788216D01*
X113444237Y-111879097D01*
X113463969Y-111917823D01*
X113478787Y-111987535D01*
X113591481Y-112142645D01*
X113623079Y-112160888D01*
X120372744Y-118910553D01*
X120433656Y-118978203D01*
X120474997Y-118991637D01*
X120534765Y-119030450D01*
X120724131Y-119060442D01*
X120759371Y-119051000D01*
X130288216Y-119051000D01*
X130379097Y-119055763D01*
X130417823Y-119036031D01*
X130487536Y-119021213D01*
X130606990Y-118934425D01*
X130817407Y-118897322D01*
X131008593Y-118786942D01*
X131150495Y-118617828D01*
X131226000Y-118410380D01*
X131226000Y-118189620D01*
X131150495Y-117982172D01*
X131008593Y-117813058D01*
X130817407Y-117702678D01*
X130726000Y-117686560D01*
X130726000Y-117589620D01*
X130650495Y-117382172D01*
X130508593Y-117213058D01*
X130317407Y-117102678D01*
X130226000Y-117086560D01*
X130226000Y-116989620D01*
X130150495Y-116782172D01*
X130008593Y-116613058D01*
X129817407Y-116502678D01*
X129726000Y-116486560D01*
X129726000Y-116389620D01*
X129650495Y-116182172D01*
X129508593Y-116013058D01*
X129317407Y-115902678D01*
X129226000Y-115886560D01*
X129226000Y-115789620D01*
X129150495Y-115582172D01*
X129008593Y-115413058D01*
X128817407Y-115302678D01*
X128726000Y-115286560D01*
X128726000Y-115189620D01*
X128650495Y-114982172D01*
X128508593Y-114813058D01*
X128317407Y-114702678D01*
X128226000Y-114686560D01*
X128226000Y-114589620D01*
X128150495Y-114382172D01*
X128008593Y-114213058D01*
X127817407Y-114102678D01*
X127600000Y-114064343D01*
X127382593Y-114102678D01*
X127191407Y-114213058D01*
X127049505Y-114382172D01*
X126988784Y-114549000D01*
X125386809Y-114549000D01*
X121726000Y-110888192D01*
X121726000Y-110789620D01*
X121650495Y-110582172D01*
X121508593Y-110413058D01*
X121317407Y-110302678D01*
X121100000Y-110264343D01*
X120882593Y-110302678D01*
X120691407Y-110413058D01*
X120549505Y-110582172D01*
X120474000Y-110789620D01*
X120474000Y-111010380D01*
X120549505Y-111217828D01*
X120691407Y-111386942D01*
X120882593Y-111497322D01*
X121097387Y-111535196D01*
X124711191Y-115149000D01*
X123486809Y-115149000D01*
X119351000Y-111013192D01*
X119351000Y-96439620D01*
X119474000Y-96439620D01*
X119474000Y-96660380D01*
X119549505Y-96867828D01*
X119691407Y-97036942D01*
X119882593Y-97147322D01*
X120100000Y-97185657D01*
X120317407Y-97147322D01*
X120508593Y-97036942D01*
X120650495Y-96867828D01*
X120726000Y-96660380D01*
X120726000Y-96491097D01*
X124723945Y-92493152D01*
X133615273Y-92493152D01*
X133647949Y-92724196D01*
X133747118Y-92935418D01*
X133904010Y-93108143D01*
X134104755Y-93227100D01*
X134285321Y-93270617D01*
X136138021Y-95123318D01*
X136191407Y-95186942D01*
X136263331Y-95228466D01*
X136331360Y-95276101D01*
X136358372Y-95283338D01*
X136382592Y-95297322D01*
X136464380Y-95311744D01*
X136544599Y-95333238D01*
X136627333Y-95326000D01*
X139840704Y-95326000D01*
X140822795Y-96308092D01*
X140850391Y-96503217D01*
X140949560Y-96714439D01*
X141106452Y-96887164D01*
X141307197Y-97006121D01*
X141534046Y-97060792D01*
X141766942Y-97046343D01*
X141985293Y-96964052D01*
X142169796Y-96821196D01*
X142304136Y-96630403D01*
X142376593Y-96408063D01*
X142378728Y-96163511D01*
X142310161Y-95939938D01*
X142179171Y-95746831D01*
X141997191Y-95600776D01*
X141812934Y-95527637D01*
X140561984Y-94276688D01*
X140508593Y-94213058D01*
X140436660Y-94171528D01*
X140368640Y-94123900D01*
X140341628Y-94116662D01*
X140317407Y-94102678D01*
X140235620Y-94088256D01*
X140155401Y-94066762D01*
X140072667Y-94074000D01*
X136859297Y-94074000D01*
X135176230Y-92390934D01*
X135176286Y-92384490D01*
X135147191Y-92289620D01*
X135474000Y-92289620D01*
X135474000Y-92510380D01*
X135549505Y-92717828D01*
X135691407Y-92886942D01*
X135882593Y-92997322D01*
X136100000Y-93035657D01*
X136128226Y-93030680D01*
X136647401Y-93549856D01*
X136658039Y-93572009D01*
X136715541Y-93617995D01*
X136732720Y-93635174D01*
X136752818Y-93647806D01*
X136809871Y-93693433D01*
X136834320Y-93699032D01*
X136855579Y-93712395D01*
X136928814Y-93720673D01*
X136952068Y-93726000D01*
X136975927Y-93726000D01*
X137048706Y-93734228D01*
X137072267Y-93726000D01*
X142127351Y-93726000D01*
X142150536Y-93734142D01*
X142223700Y-93726000D01*
X142248010Y-93726000D01*
X142271163Y-93720718D01*
X142343754Y-93712640D01*
X142365001Y-93699313D01*
X142389489Y-93693726D01*
X142447133Y-93647792D01*
X142467334Y-93635120D01*
X142484192Y-93618261D01*
X142541485Y-93572607D01*
X142552331Y-93550123D01*
X144049854Y-92052600D01*
X144072007Y-92041962D01*
X144117990Y-91984464D01*
X144135175Y-91967280D01*
X144147812Y-91947174D01*
X144193433Y-91890129D01*
X144199032Y-91865679D01*
X144212394Y-91844421D01*
X144220673Y-91771191D01*
X144226000Y-91747931D01*
X144226000Y-91724072D01*
X144234228Y-91651293D01*
X144226000Y-91627732D01*
X144226000Y-89266197D01*
X144350495Y-89117828D01*
X144426000Y-88910380D01*
X144426000Y-88689620D01*
X144350495Y-88482172D01*
X144208593Y-88313058D01*
X144017407Y-88202678D01*
X143800000Y-88164343D01*
X143582593Y-88202678D01*
X143391407Y-88313058D01*
X143249505Y-88482172D01*
X143174000Y-88689620D01*
X143174000Y-88910380D01*
X143249505Y-89117828D01*
X143374000Y-89266197D01*
X143374000Y-89273595D01*
X143374001Y-89273599D01*
X143374000Y-91523546D01*
X142023547Y-92874000D01*
X137176455Y-92874000D01*
X136726000Y-92423546D01*
X136726000Y-92289620D01*
X136650495Y-92082172D01*
X136508593Y-91913058D01*
X136317407Y-91802678D01*
X136100000Y-91764343D01*
X135882593Y-91802678D01*
X135691407Y-91913058D01*
X135549505Y-92082172D01*
X135474000Y-92289620D01*
X135147191Y-92289620D01*
X135107719Y-92160917D01*
X134976729Y-91967810D01*
X134794749Y-91821755D01*
X134577866Y-91735666D01*
X134345258Y-91717154D01*
X134117489Y-91767858D01*
X133914700Y-91883293D01*
X133754817Y-92053254D01*
X133651977Y-92262713D01*
X133615273Y-92493152D01*
X124723945Y-92493152D01*
X129927477Y-87289620D01*
X143474000Y-87289620D01*
X143474000Y-87510380D01*
X143549505Y-87717828D01*
X143691407Y-87886942D01*
X143882593Y-87997322D01*
X144100000Y-88035657D01*
X144317407Y-87997322D01*
X144508593Y-87886942D01*
X144650495Y-87717828D01*
X144726000Y-87510380D01*
X144726000Y-87376454D01*
X145070087Y-87032367D01*
X145182593Y-87097322D01*
X145400000Y-87135657D01*
X145617407Y-87097322D01*
X145808593Y-86986942D01*
X145950495Y-86817828D01*
X146026000Y-86610380D01*
X146026000Y-86389620D01*
X145950495Y-86182172D01*
X145808593Y-86013058D01*
X145617407Y-85902678D01*
X145400000Y-85864343D01*
X145182593Y-85902678D01*
X144991407Y-86013058D01*
X144937497Y-86077306D01*
X144928834Y-86079282D01*
X144856242Y-86087360D01*
X144834997Y-86100688D01*
X144810513Y-86106272D01*
X144752868Y-86152208D01*
X144732665Y-86164880D01*
X144715803Y-86181742D01*
X144658513Y-86227394D01*
X144647670Y-86249875D01*
X144128226Y-86769320D01*
X144100000Y-86764343D01*
X143882593Y-86802678D01*
X143691407Y-86913058D01*
X143549505Y-87082172D01*
X143474000Y-87289620D01*
X129927477Y-87289620D01*
X132027477Y-85189620D01*
X141074000Y-85189620D01*
X141074000Y-85410380D01*
X141149505Y-85617828D01*
X141291407Y-85786942D01*
X141482593Y-85897322D01*
X141700000Y-85935657D01*
X141917407Y-85897322D01*
X142108593Y-85786942D01*
X142250495Y-85617828D01*
X142326000Y-85410380D01*
X142326000Y-85189620D01*
X142250495Y-84982172D01*
X142151000Y-84863597D01*
X142151000Y-83209032D01*
X142217407Y-83197322D01*
X142408593Y-83086942D01*
X142550495Y-82917828D01*
X142626000Y-82710380D01*
X142626000Y-82489620D01*
X142550495Y-82282172D01*
X142408593Y-82113058D01*
X142217407Y-82002678D01*
X142000000Y-81964343D01*
X141782593Y-82002678D01*
X141591407Y-82113058D01*
X141449505Y-82282172D01*
X141374000Y-82489620D01*
X141374000Y-82586652D01*
X141321796Y-82633657D01*
X141308362Y-82674999D01*
X141269550Y-82734766D01*
X141239558Y-82924131D01*
X141249000Y-82959371D01*
X141249001Y-84863597D01*
X141149505Y-84982172D01*
X141074000Y-85189620D01*
X132027477Y-85189620D01*
X133106535Y-84110563D01*
X133163961Y-84071536D01*
X133180477Y-84028512D01*
X133244076Y-83923497D01*
X133248641Y-83850936D01*
X133251000Y-83844792D01*
X133251000Y-83813447D01*
X133256448Y-83726868D01*
X133251000Y-83714632D01*
X133251000Y-82291325D01*
X133258593Y-82286941D01*
X133400495Y-82117828D01*
X133476000Y-81910380D01*
X133476000Y-81689620D01*
X133400495Y-81482172D01*
X133258593Y-81313058D01*
X133067407Y-81202678D01*
X132850000Y-81164343D01*
X132632593Y-81202678D01*
X132441407Y-81313058D01*
X132299505Y-81482172D01*
X132224000Y-81689620D01*
X132224000Y-81910380D01*
X132299505Y-82117828D01*
X132441407Y-82286941D01*
X132449000Y-82291325D01*
X132449001Y-83633901D01*
X120158282Y-95924620D01*
X120100000Y-95914343D01*
X119882593Y-95952678D01*
X119691407Y-96063058D01*
X119549505Y-96232172D01*
X119474000Y-96439620D01*
X119351000Y-96439620D01*
X119351000Y-96386809D01*
X131910546Y-83827263D01*
X131978205Y-83766343D01*
X131991637Y-83725001D01*
X132030450Y-83665237D01*
X132060442Y-83475870D01*
X132051000Y-83440630D01*
X132051000Y-65169715D01*
X132119759Y-65119759D01*
X132254934Y-64933706D01*
X132326000Y-64714987D01*
X132326000Y-64485013D01*
X132254934Y-64266294D01*
X132119759Y-64080241D01*
X131933706Y-63945066D01*
X131714987Y-63874000D01*
X131485013Y-63874000D01*
X131426000Y-63893174D01*
X131426000Y-63685013D01*
X131354934Y-63466294D01*
X131219759Y-63280241D01*
X131033706Y-63145066D01*
X130814987Y-63074000D01*
X130585013Y-63074000D01*
X130451000Y-63117543D01*
X130451000Y-62769715D01*
X130519759Y-62719759D01*
X130654934Y-62533706D01*
X130726000Y-62314987D01*
X130726000Y-62085013D01*
X130654934Y-61866294D01*
X130519759Y-61680241D01*
X130333706Y-61545066D01*
X130114987Y-61474000D01*
X129885013Y-61474000D01*
X129666294Y-61545066D01*
X129480241Y-61680241D01*
X129345066Y-61866294D01*
X129274000Y-62085013D01*
X129274000Y-62314987D01*
X129345066Y-62533706D01*
X129480241Y-62719759D01*
X129549001Y-62769716D01*
X129549000Y-73446631D01*
X129549001Y-73446636D01*
X129549000Y-82613190D01*
X116489448Y-95672744D01*
X116421796Y-95733657D01*
X116408365Y-95774997D01*
X116369550Y-95834766D01*
X116339558Y-96024131D01*
X116349001Y-96059372D01*
X116349001Y-99528832D01*
X116233706Y-99445066D01*
X116014987Y-99374000D01*
X115785013Y-99374000D01*
X115566294Y-99445066D01*
X115380241Y-99580241D01*
X115251000Y-99758127D01*
X115251000Y-98469715D01*
X115319759Y-98419759D01*
X115454934Y-98233706D01*
X115526000Y-98014987D01*
X115526000Y-97785013D01*
X115454934Y-97566294D01*
X115319759Y-97380241D01*
X115133706Y-97245066D01*
X114914987Y-97174000D01*
X114685013Y-97174000D01*
X114466294Y-97245066D01*
X114351000Y-97328832D01*
X114351000Y-96998736D01*
X114419759Y-96948780D01*
X114554934Y-96762727D01*
X114626000Y-96544008D01*
X114626000Y-96314034D01*
X114554934Y-96095315D01*
X114419759Y-95909262D01*
X114233706Y-95774087D01*
X114014987Y-95703021D01*
X113785013Y-95703021D01*
X113566294Y-95774087D01*
X113380241Y-95909262D01*
X113245066Y-96095315D01*
X113174000Y-96314034D01*
X105326000Y-96314034D01*
X105326000Y-75385013D01*
X106774000Y-75385013D01*
X106774000Y-75614987D01*
X106845066Y-75833706D01*
X106980241Y-76019759D01*
X107049000Y-76069715D01*
X107049001Y-80588197D01*
X107044237Y-80679098D01*
X107063971Y-80717826D01*
X107078787Y-80787536D01*
X107191482Y-80942645D01*
X107223078Y-80960887D01*
X108274000Y-82011810D01*
X108274000Y-82214987D01*
X108345066Y-82433706D01*
X108480241Y-82619759D01*
X108666294Y-82754934D01*
X108885013Y-82826000D01*
X109114987Y-82826000D01*
X109333706Y-82754934D01*
X109519759Y-82619759D01*
X109654934Y-82433706D01*
X109726000Y-82214987D01*
X109726000Y-81985013D01*
X109654934Y-81766294D01*
X109519759Y-81580241D01*
X109333706Y-81445066D01*
X109114987Y-81374000D01*
X108911811Y-81374000D01*
X108553605Y-81015795D01*
X108585013Y-81026000D01*
X108814987Y-81026000D01*
X109033706Y-80954934D01*
X109219759Y-80819759D01*
X109354934Y-80633706D01*
X109426000Y-80414987D01*
X109426000Y-80185013D01*
X109354934Y-79966294D01*
X109219759Y-79780241D01*
X109033706Y-79645066D01*
X108814987Y-79574000D01*
X108751001Y-79574000D01*
X108750999Y-75369716D01*
X108819759Y-75319759D01*
X108954934Y-75133706D01*
X109026000Y-74914987D01*
X109026000Y-74685013D01*
X108954934Y-74466294D01*
X108819759Y-74280241D01*
X108633706Y-74145066D01*
X108414987Y-74074000D01*
X108185013Y-74074000D01*
X107966294Y-74145066D01*
X107780241Y-74280241D01*
X107645066Y-74466294D01*
X107574000Y-74685013D01*
X107574000Y-74774000D01*
X107385013Y-74774000D01*
X107166294Y-74845066D01*
X106980241Y-74980241D01*
X106845066Y-75166294D01*
X106774000Y-75385013D01*
X105326000Y-75385013D01*
X105326000Y-67789620D01*
X108174000Y-67789620D01*
X108174000Y-68010380D01*
X108249505Y-68217828D01*
X108391407Y-68386942D01*
X108582593Y-68497322D01*
X108797387Y-68535196D01*
X114274000Y-74011809D01*
X114274000Y-74110380D01*
X114349505Y-74317828D01*
X114491407Y-74486942D01*
X114682593Y-74597322D01*
X114900000Y-74635657D01*
X115117407Y-74597322D01*
X115308593Y-74486942D01*
X115450495Y-74317828D01*
X115526000Y-74110380D01*
X115526000Y-73889620D01*
X115450495Y-73682172D01*
X115308593Y-73513058D01*
X115117407Y-73402678D01*
X114902613Y-73364804D01*
X109426000Y-67888192D01*
X109426000Y-67789620D01*
X109350495Y-67582172D01*
X109208593Y-67413058D01*
X109017407Y-67302678D01*
X108800000Y-67264343D01*
X108582593Y-67302678D01*
X108391407Y-67413058D01*
X108249505Y-67582172D01*
X108174000Y-67789620D01*
X105326000Y-67789620D01*
X105326000Y-67502954D01*
X105327152Y-67430850D01*
X105310262Y-67394270D01*
X105301302Y-67354993D01*
X105279480Y-67327608D01*
X105264775Y-67295765D01*
X105233749Y-67270221D01*
X105208612Y-67238675D01*
X105143426Y-67207234D01*
X100326000Y-64798521D01*
X100326000Y-62221844D01*
X121547702Y-62221844D01*
X121547702Y-62442604D01*
X121623207Y-62650052D01*
X121765109Y-62819166D01*
X121956295Y-62929546D01*
X122173702Y-62967881D01*
X122391109Y-62929546D01*
X122564758Y-62829291D01*
X122682593Y-62897322D01*
X122900000Y-62935657D01*
X123117407Y-62897322D01*
X123300000Y-62791903D01*
X123482593Y-62897322D01*
X123700000Y-62935657D01*
X123917407Y-62897322D01*
X124108593Y-62786942D01*
X124250495Y-62617828D01*
X124326000Y-62410380D01*
X124326000Y-62189620D01*
X124250495Y-61982172D01*
X124108593Y-61813059D01*
X124101000Y-61808675D01*
X124101000Y-59666097D01*
X124977477Y-58789620D01*
X126374000Y-58789620D01*
X126374000Y-59010380D01*
X126449505Y-59217828D01*
X126591407Y-59386942D01*
X126782593Y-59497322D01*
X127000000Y-59535657D01*
X127217407Y-59497322D01*
X127408593Y-59386942D01*
X127480706Y-59301000D01*
X129733903Y-59301000D01*
X134927637Y-64494735D01*
X134882593Y-64502678D01*
X134691407Y-64613058D01*
X134661249Y-64649000D01*
X133838751Y-64649000D01*
X133808593Y-64613058D01*
X133617407Y-64502678D01*
X133400000Y-64464343D01*
X133182593Y-64502678D01*
X132991407Y-64613058D01*
X132849505Y-64782172D01*
X132774000Y-64989620D01*
X132774000Y-65210380D01*
X132849505Y-65417828D01*
X132918455Y-65500000D01*
X132849505Y-65582172D01*
X132774000Y-65789620D01*
X132774000Y-66010380D01*
X132849505Y-66217828D01*
X132991407Y-66386942D01*
X133182593Y-66497322D01*
X133400000Y-66535657D01*
X133617407Y-66497322D01*
X133808593Y-66386942D01*
X133838751Y-66351000D01*
X134577340Y-66351000D01*
X134691407Y-66486942D01*
X134882593Y-66597322D01*
X135100000Y-66635657D01*
X135317407Y-66597322D01*
X135508593Y-66486942D01*
X135650495Y-66317828D01*
X135726000Y-66110380D01*
X135726000Y-65889620D01*
X135650495Y-65682172D01*
X135539590Y-65550000D01*
X135650495Y-65417828D01*
X135703927Y-65271025D01*
X137674000Y-67241098D01*
X137674000Y-67410380D01*
X137749505Y-67617828D01*
X137891407Y-67786942D01*
X138082593Y-67897322D01*
X138300000Y-67935657D01*
X138517407Y-67897322D01*
X138708593Y-67786942D01*
X138850495Y-67617828D01*
X138926000Y-67410380D01*
X138926000Y-67189620D01*
X138850495Y-66982172D01*
X138708593Y-66813058D01*
X138517407Y-66702678D01*
X138300000Y-66664343D01*
X138241718Y-66674620D01*
X130210563Y-58643465D01*
X130171536Y-58586039D01*
X130128513Y-58569524D01*
X130023496Y-58505924D01*
X129950929Y-58501358D01*
X129944783Y-58499000D01*
X129913446Y-58499000D01*
X129826868Y-58493552D01*
X129814632Y-58499000D01*
X127480706Y-58499000D01*
X127408593Y-58413058D01*
X127217407Y-58302678D01*
X127000000Y-58264343D01*
X126782593Y-58302678D01*
X126591407Y-58413058D01*
X126449505Y-58582172D01*
X126374000Y-58789620D01*
X124977477Y-58789620D01*
X126677477Y-57089620D01*
X127174000Y-57089620D01*
X127174000Y-57310380D01*
X127249505Y-57517828D01*
X127391407Y-57686942D01*
X127582593Y-57797322D01*
X127800000Y-57835657D01*
X128017407Y-57797322D01*
X128184243Y-57701000D01*
X130919294Y-57701000D01*
X130991407Y-57786942D01*
X131182593Y-57897322D01*
X131400000Y-57935657D01*
X131617407Y-57897322D01*
X131808593Y-57786942D01*
X131950495Y-57617828D01*
X132026000Y-57410380D01*
X132026000Y-57189620D01*
X131950495Y-56982172D01*
X131808593Y-56813058D01*
X131617407Y-56702678D01*
X131400000Y-56664343D01*
X131182593Y-56702678D01*
X130991407Y-56813058D01*
X130919294Y-56899000D01*
X128356619Y-56899000D01*
X128350494Y-56882172D01*
X128208593Y-56713058D01*
X128017407Y-56602678D01*
X127800000Y-56564343D01*
X127582593Y-56602678D01*
X127391407Y-56713058D01*
X127249505Y-56882172D01*
X127174000Y-57089620D01*
X126677477Y-57089620D01*
X128182084Y-55585013D01*
X128674000Y-55585013D01*
X128674000Y-55814987D01*
X128745066Y-56033706D01*
X128880241Y-56219759D01*
X129066294Y-56354934D01*
X129285013Y-56426000D01*
X129514987Y-56426000D01*
X129733706Y-56354934D01*
X129911170Y-56226000D01*
X132588830Y-56226000D01*
X132766294Y-56354934D01*
X132985013Y-56426000D01*
X133214987Y-56426000D01*
X133433706Y-56354934D01*
X133619759Y-56219759D01*
X133754934Y-56033706D01*
X133826000Y-55814987D01*
X133826000Y-55585013D01*
X133754934Y-55366294D01*
X133619759Y-55180241D01*
X133433706Y-55045066D01*
X133214987Y-54974000D01*
X132985013Y-54974000D01*
X132766294Y-55045066D01*
X132588830Y-55174000D01*
X129911170Y-55174000D01*
X129733706Y-55045066D01*
X129514987Y-54974000D01*
X129285013Y-54974000D01*
X129066294Y-55045066D01*
X128880241Y-55180241D01*
X128745066Y-55366294D01*
X128674000Y-55585013D01*
X128182084Y-55585013D01*
X128641717Y-55125380D01*
X128700000Y-55135657D01*
X128917407Y-55097322D01*
X129108593Y-54986942D01*
X129250495Y-54817828D01*
X129326000Y-54610380D01*
X129326000Y-54389620D01*
X129250495Y-54182172D01*
X129108593Y-54013058D01*
X129067997Y-53989620D01*
X138674000Y-53989620D01*
X138674000Y-54210380D01*
X138749505Y-54417828D01*
X138891407Y-54586942D01*
X139082593Y-54697322D01*
X139300000Y-54735657D01*
X139517407Y-54697322D01*
X139708593Y-54586942D01*
X139850495Y-54417828D01*
X139926000Y-54210380D01*
X139926000Y-53989620D01*
X139850495Y-53782172D01*
X139708593Y-53613059D01*
X139701000Y-53608675D01*
X139701000Y-52825877D01*
X139745066Y-52833647D01*
X139962473Y-52795312D01*
X140153659Y-52684932D01*
X140295561Y-52515818D01*
X140371066Y-52308370D01*
X140371066Y-52087610D01*
X140295561Y-51880162D01*
X140153659Y-51711048D01*
X139962473Y-51600668D01*
X139745066Y-51562333D01*
X139527659Y-51600668D01*
X139336473Y-51711048D01*
X139194571Y-51880162D01*
X139119066Y-52087610D01*
X139119066Y-52256890D01*
X139043460Y-52332497D01*
X138986039Y-52371520D01*
X138969526Y-52414539D01*
X138905924Y-52519560D01*
X138901359Y-52592118D01*
X138899001Y-52598260D01*
X138899001Y-52629594D01*
X138893552Y-52716185D01*
X138899001Y-52728424D01*
X138899000Y-53608675D01*
X138891407Y-53613059D01*
X138749505Y-53782172D01*
X138674000Y-53989620D01*
X129067997Y-53989620D01*
X128917407Y-53902678D01*
X128700000Y-53864343D01*
X128482593Y-53902678D01*
X128291407Y-54013058D01*
X128149505Y-54182172D01*
X128101000Y-54315438D01*
X128101000Y-53891325D01*
X128108593Y-53886941D01*
X128250495Y-53717828D01*
X128326000Y-53510380D01*
X128326000Y-53289620D01*
X128250495Y-53082172D01*
X128108593Y-52913058D01*
X127917407Y-52802678D01*
X127700000Y-52764343D01*
X127482593Y-52802678D01*
X127291407Y-52913058D01*
X127149505Y-53082172D01*
X127074000Y-53289620D01*
X127074000Y-53510380D01*
X127149505Y-53717828D01*
X127291407Y-53886941D01*
X127299001Y-53891325D01*
X127299000Y-54315439D01*
X127250495Y-54182172D01*
X127108593Y-54013058D01*
X126917407Y-53902678D01*
X126700000Y-53864343D01*
X126482593Y-53902678D01*
X126291407Y-54013058D01*
X126149505Y-54182172D01*
X126074000Y-54389620D01*
X126074000Y-54610380D01*
X126149505Y-54817828D01*
X126225046Y-54907855D01*
X121917165Y-59215737D01*
X121859741Y-59254762D01*
X121843228Y-59297781D01*
X121779626Y-59402802D01*
X121775061Y-59475360D01*
X121772703Y-59481502D01*
X121772703Y-59512836D01*
X121767254Y-59599427D01*
X121772703Y-59611666D01*
X121772702Y-61840899D01*
X121765109Y-61845283D01*
X121623207Y-62014396D01*
X121547702Y-62221844D01*
X100326000Y-62221844D01*
X100326000Y-50326000D01*
X142103646Y-50326000D01*
X144924519Y-54384097D01*
G37*
D21*
X144924519Y-54384097D02*
X144934031Y-54437229D01*
X144934058Y-54438272D01*
X144934586Y-54440332D01*
X144934927Y-54442235D01*
X144935299Y-54443112D01*
X144937700Y-54452473D01*
X145069180Y-54962707D01*
X145069291Y-54963798D01*
X145069999Y-54965886D01*
X145070447Y-54967623D01*
X145070860Y-54968424D01*
X145074001Y-54977681D01*
X145243350Y-55476567D01*
X145243545Y-55477660D01*
X145244416Y-55479707D01*
X145244980Y-55481368D01*
X145245444Y-55482122D01*
X145249284Y-55491145D01*
X145249283Y-55491145D01*
X145455556Y-55975918D01*
X145455852Y-55977071D01*
X145456933Y-55979155D01*
X145457543Y-55980588D01*
X145458015Y-55981240D01*
X145462641Y-55990156D01*
X145704605Y-56457952D01*
X145704991Y-56459092D01*
X145706236Y-56461106D01*
X145706939Y-56462464D01*
X145707452Y-56463071D01*
X145712654Y-56471483D01*
X145989093Y-56919951D01*
X145989568Y-56921069D01*
X145990974Y-56923002D01*
X145991762Y-56924280D01*
X145992309Y-56924836D01*
X145998252Y-56933006D01*
X146307427Y-57359331D01*
X146307930Y-57360305D01*
X146309356Y-57361990D01*
X146310408Y-57363441D01*
X146311085Y-57364033D01*
X146317399Y-57371496D01*
X146657804Y-57773597D01*
X146658386Y-57774543D01*
X146659951Y-57776133D01*
X146661088Y-57777476D01*
X146661797Y-57778008D01*
X146668670Y-57784991D01*
X147038264Y-58160437D01*
X147038842Y-58161235D01*
X147040366Y-58162572D01*
X147041818Y-58164047D01*
X147042665Y-58164589D01*
X147049858Y-58170899D01*
X147446647Y-58517650D01*
X147447303Y-58518426D01*
X147448966Y-58519676D01*
X147450474Y-58520994D01*
X147451337Y-58521459D01*
X147459021Y-58527235D01*
X147880671Y-58843244D01*
X147881426Y-58844012D01*
X147883260Y-58845184D01*
X147884729Y-58846285D01*
X147885566Y-58846658D01*
X147893775Y-58851904D01*
X148337885Y-59135378D01*
X148338693Y-59136085D01*
X148340603Y-59137112D01*
X148342161Y-59138107D01*
X148343030Y-59138418D01*
X148351603Y-59143030D01*
X148815719Y-59392409D01*
X148816634Y-59393096D01*
X148818715Y-59394019D01*
X148820180Y-59394806D01*
X148820998Y-59395031D01*
X148830069Y-59399054D01*
X149311467Y-59612883D01*
X149312450Y-59613512D01*
X149314629Y-59614288D01*
X149316104Y-59614943D01*
X149316918Y-59615103D01*
X149326207Y-59618410D01*
X149822355Y-59795569D01*
X149823292Y-59796073D01*
X149825371Y-59796645D01*
X149827137Y-59797276D01*
X149828062Y-59797386D01*
X149837424Y-59799964D01*
X150345513Y-59939438D01*
X150346452Y-59939856D01*
X150348509Y-59940260D01*
X150350402Y-59940780D01*
X150351367Y-59940822D01*
X150360833Y-59942683D01*
X150877983Y-60043676D01*
X150879026Y-60044049D01*
X150881230Y-60044310D01*
X150882952Y-60044646D01*
X150883838Y-60044618D01*
X150893576Y-60045770D01*
X150893576Y-60045771D01*
X151416751Y-60107692D01*
X151417881Y-60108003D01*
X151420202Y-60108100D01*
X151421797Y-60108289D01*
X151422617Y-60108201D01*
X151432583Y-60108619D01*
X151958812Y-60131134D01*
X151959991Y-60131365D01*
X151962360Y-60131285D01*
X151963892Y-60131351D01*
X151964673Y-60131208D01*
X151974727Y-60130870D01*
X152501118Y-60113868D01*
X152502335Y-60114013D01*
X152504724Y-60113751D01*
X152506191Y-60113704D01*
X152506932Y-60113510D01*
X152516973Y-60112410D01*
X153040594Y-60055989D01*
X153041716Y-60056038D01*
X153043924Y-60055630D01*
X153045643Y-60055445D01*
X153046471Y-60055160D01*
X153056120Y-60053378D01*
X153574206Y-59957824D01*
X153575303Y-59957790D01*
X153577441Y-59957228D01*
X153579207Y-59956902D01*
X153580034Y-59956546D01*
X153589482Y-59954061D01*
X154098968Y-59819924D01*
X154100120Y-59819801D01*
X154102293Y-59819049D01*
X154103876Y-59818632D01*
X154104619Y-59818244D01*
X154113928Y-59815021D01*
X154611908Y-59643066D01*
X154612999Y-59642866D01*
X154615042Y-59641984D01*
X154616699Y-59641412D01*
X154617449Y-59640945D01*
X154626453Y-59637059D01*
X155110143Y-59428248D01*
X155111207Y-59427969D01*
X155113165Y-59426944D01*
X155114797Y-59426239D01*
X155115519Y-59425711D01*
X155124189Y-59421170D01*
X155590862Y-59176681D01*
X155591831Y-59176347D01*
X155593611Y-59175241D01*
X155595362Y-59174323D01*
X155596099Y-59173693D01*
X155604280Y-59168607D01*
X156051378Y-58889770D01*
X156052278Y-58889382D01*
X156053910Y-58888190D01*
X156055681Y-58887086D01*
X156056398Y-58886374D01*
X156064114Y-58880741D01*
X156489077Y-58569145D01*
X156489973Y-58568677D01*
X156491549Y-58567333D01*
X156493173Y-58566142D01*
X156493818Y-58565397D01*
X156501127Y-58559163D01*
X156901505Y-58216603D01*
X156902485Y-58215993D01*
X156904111Y-58214373D01*
X156905362Y-58213303D01*
X156905863Y-58212628D01*
X156912900Y-58205619D01*
X157286334Y-57834134D01*
X157287273Y-57833447D01*
X157288784Y-57831697D01*
X157289941Y-57830546D01*
X157290387Y-57829841D01*
X157296826Y-57822383D01*
X157641418Y-57423872D01*
X157642234Y-57423175D01*
X157643527Y-57421433D01*
X157644734Y-57420037D01*
X157645166Y-57419225D01*
X157650969Y-57411406D01*
X157964737Y-56988146D01*
X157965539Y-56987349D01*
X157966741Y-56985442D01*
X157967750Y-56984081D01*
X157968097Y-56983292D01*
X157973339Y-56974975D01*
X157973340Y-56974975D01*
X158254463Y-56529421D01*
X158255262Y-56528499D01*
X158256381Y-56526382D01*
X158257172Y-56525128D01*
X158257429Y-56524399D01*
X158262062Y-56515631D01*
X158508990Y-56050249D01*
X158509616Y-56049406D01*
X158510473Y-56047453D01*
X158511368Y-56045767D01*
X158511614Y-56044854D01*
X158515508Y-56035985D01*
X158726871Y-55553342D01*
X158727435Y-55552450D01*
X158728145Y-55550432D01*
X158728904Y-55548700D01*
X158729080Y-55547778D01*
X158732302Y-55538626D01*
X158906878Y-55041509D01*
X158907380Y-55040564D01*
X158907944Y-55038472D01*
X158908560Y-55036718D01*
X158908665Y-55035799D01*
X158911196Y-55026410D01*
X159026132Y-54598950D01*
X161996354Y-50326000D01*
X199674000Y-50326000D01*
X199674001Y-137674000D01*
X105326000Y-137674000D01*
X105326000Y-136128000D01*
X108358163Y-136128000D01*
X108358163Y-136516588D01*
X108438795Y-136817512D01*
X108586185Y-136993165D01*
X108779814Y-137104956D01*
X108988976Y-137141837D01*
X110472000Y-137141837D01*
X110472000Y-136128000D01*
X110728000Y-136128000D01*
X110728000Y-137141837D01*
X112216588Y-137141837D01*
X112517512Y-137061205D01*
X112693165Y-136913815D01*
X112804956Y-136720186D01*
X112841837Y-136511024D01*
X112841837Y-136128000D01*
X115158163Y-136128000D01*
X115158163Y-136516588D01*
X115238795Y-136817512D01*
X115386185Y-136993165D01*
X115579814Y-137104956D01*
X115788976Y-137141837D01*
X117272000Y-137141837D01*
X117272000Y-136128000D01*
X117528000Y-136128000D01*
X117528000Y-137141837D01*
X119016588Y-137141837D01*
X119317512Y-137061205D01*
X119493165Y-136913815D01*
X119604956Y-136720186D01*
X119641837Y-136511024D01*
X119641837Y-136128000D01*
X117528000Y-136128000D01*
X117272000Y-136128000D01*
X115158163Y-136128000D01*
X112841837Y-136128000D01*
X110728000Y-136128000D01*
X110472000Y-136128000D01*
X108358163Y-136128000D01*
X105326000Y-136128000D01*
X105326000Y-135488976D01*
X108358163Y-135488976D01*
X108358163Y-135872000D01*
X110472000Y-135872000D01*
X110472000Y-134858163D01*
X110728000Y-134858163D01*
X110728000Y-135872000D01*
X112841837Y-135872000D01*
X112841837Y-135488976D01*
X115158163Y-135488976D01*
X115158163Y-135872000D01*
X117272000Y-135872000D01*
X117272000Y-134858163D01*
X117528000Y-134858163D01*
X117528000Y-135872000D01*
X119641837Y-135872000D01*
X119641837Y-135483412D01*
X119561205Y-135182489D01*
X119413815Y-135006835D01*
X119220186Y-134895044D01*
X119011024Y-134858163D01*
X117528000Y-134858163D01*
X117272000Y-134858163D01*
X115783412Y-134858163D01*
X115482489Y-134938795D01*
X115306835Y-135086185D01*
X115195044Y-135279814D01*
X115158163Y-135488976D01*
X112841837Y-135488976D01*
X112841837Y-135483412D01*
X112761205Y-135182489D01*
X112613815Y-135006835D01*
X112420186Y-134895044D01*
X112211024Y-134858163D01*
X110728000Y-134858163D01*
X110472000Y-134858163D01*
X108983412Y-134858163D01*
X108682489Y-134938795D01*
X108506835Y-135086185D01*
X108395044Y-135279814D01*
X108358163Y-135488976D01*
X105326000Y-135488976D01*
X105326000Y-134081968D01*
X122869780Y-134081968D01*
X122899946Y-134441203D01*
X122971201Y-134794591D01*
X123082602Y-135137446D01*
X123232671Y-135465225D01*
X123419420Y-135773584D01*
X123640372Y-136058435D01*
X123892601Y-136316002D01*
X124172762Y-136542871D01*
X124477141Y-136736037D01*
X124801706Y-136892938D01*
X125142154Y-137011494D01*
X125493971Y-137090134D01*
X125852496Y-137127817D01*
X126212976Y-137124042D01*
X126570633Y-137078860D01*
X126920727Y-136992868D01*
X127258617Y-136867208D01*
X127579824Y-136703545D01*
X127880092Y-136504048D01*
X128155440Y-136271360D01*
X128290063Y-136128000D01*
X131358163Y-136128000D01*
X131358163Y-136516588D01*
X131438795Y-136817512D01*
X131586185Y-136993165D01*
X131779814Y-137104956D01*
X131988976Y-137141837D01*
X133472000Y-137141837D01*
X133472000Y-136128000D01*
X133728000Y-136128000D01*
X133728000Y-137141837D01*
X135216588Y-137141837D01*
X135517512Y-137061205D01*
X135693165Y-136913815D01*
X135804956Y-136720186D01*
X135841837Y-136511024D01*
X135841837Y-136128000D01*
X138158163Y-136128000D01*
X138158163Y-136516588D01*
X138238795Y-136817512D01*
X138386185Y-136993165D01*
X138579814Y-137104956D01*
X138788976Y-137141837D01*
X140272000Y-137141837D01*
X140272000Y-136128000D01*
X140528000Y-136128000D01*
X140528000Y-137141837D01*
X142016588Y-137141837D01*
X142317512Y-137061205D01*
X142493165Y-136913815D01*
X142604956Y-136720186D01*
X142641837Y-136511024D01*
X142641837Y-136128000D01*
X162358163Y-136128000D01*
X162358163Y-136516588D01*
X162438795Y-136817512D01*
X162586185Y-136993165D01*
X162779814Y-137104956D01*
X162988976Y-137141837D01*
X164472000Y-137141837D01*
X164472000Y-136128000D01*
X164728000Y-136128000D01*
X164728000Y-137141837D01*
X166216588Y-137141837D01*
X166517512Y-137061205D01*
X166693165Y-136913815D01*
X166804956Y-136720186D01*
X166841837Y-136511024D01*
X166841837Y-136128000D01*
X169158163Y-136128000D01*
X169158163Y-136516588D01*
X169238795Y-136817512D01*
X169386185Y-136993165D01*
X169579814Y-137104956D01*
X169788976Y-137141837D01*
X171272000Y-137141837D01*
X171272000Y-136128000D01*
X171528000Y-136128000D01*
X171528000Y-137141837D01*
X173016588Y-137141837D01*
X173317512Y-137061205D01*
X173493165Y-136913815D01*
X173604956Y-136720186D01*
X173641837Y-136511024D01*
X173641837Y-136128000D01*
X171528000Y-136128000D01*
X171272000Y-136128000D01*
X169158163Y-136128000D01*
X166841837Y-136128000D01*
X164728000Y-136128000D01*
X164472000Y-136128000D01*
X162358163Y-136128000D01*
X142641837Y-136128000D01*
X140528000Y-136128000D01*
X140272000Y-136128000D01*
X138158163Y-136128000D01*
X135841837Y-136128000D01*
X133728000Y-136128000D01*
X133472000Y-136128000D01*
X131358163Y-136128000D01*
X128290063Y-136128000D01*
X128402219Y-136008567D01*
X128617158Y-135719152D01*
X128750049Y-135488976D01*
X131358163Y-135488976D01*
X131358163Y-135872000D01*
X133472000Y-135872000D01*
X133472000Y-134858163D01*
X133728000Y-134858163D01*
X133728000Y-135872000D01*
X135841837Y-135872000D01*
X135841837Y-135488976D01*
X138158163Y-135488976D01*
X138158163Y-135872000D01*
X140272000Y-135872000D01*
X140272000Y-134858163D01*
X140528000Y-134858163D01*
X140528000Y-135872000D01*
X142641837Y-135872000D01*
X142641837Y-135488976D01*
X162358163Y-135488976D01*
X162358163Y-135872000D01*
X164472000Y-135872000D01*
X164472000Y-134858163D01*
X164728000Y-134858163D01*
X164728000Y-135872000D01*
X166841837Y-135872000D01*
X166841837Y-135488976D01*
X169158163Y-135488976D01*
X169158163Y-135872000D01*
X171272000Y-135872000D01*
X171272000Y-134858163D01*
X171528000Y-134858163D01*
X171528000Y-135872000D01*
X173641837Y-135872000D01*
X173641837Y-135483412D01*
X173561205Y-135182489D01*
X173413815Y-135006835D01*
X173220186Y-134895044D01*
X173011024Y-134858163D01*
X171528000Y-134858163D01*
X171272000Y-134858163D01*
X169783412Y-134858163D01*
X169482489Y-134938795D01*
X169306835Y-135086185D01*
X169195044Y-135279814D01*
X169158163Y-135488976D01*
X166841837Y-135488976D01*
X166841837Y-135483412D01*
X166761205Y-135182489D01*
X166613815Y-135006835D01*
X166420186Y-134895044D01*
X166211024Y-134858163D01*
X164728000Y-134858163D01*
X164472000Y-134858163D01*
X162983412Y-134858163D01*
X162682489Y-134938795D01*
X162506835Y-135086185D01*
X162395044Y-135279814D01*
X162358163Y-135488976D01*
X142641837Y-135488976D01*
X142641837Y-135483412D01*
X142561205Y-135182489D01*
X142413815Y-135006835D01*
X142220186Y-134895044D01*
X142011024Y-134858163D01*
X140528000Y-134858163D01*
X140272000Y-134858163D01*
X138783412Y-134858163D01*
X138482489Y-134938795D01*
X138306835Y-135086185D01*
X138195044Y-135279814D01*
X138158163Y-135488976D01*
X135841837Y-135488976D01*
X135841837Y-135483412D01*
X135761205Y-135182489D01*
X135613815Y-135006835D01*
X135420186Y-134895044D01*
X135211024Y-134858163D01*
X133728000Y-134858163D01*
X133472000Y-134858163D01*
X131983412Y-134858163D01*
X131682489Y-134938795D01*
X131506835Y-135086185D01*
X131395044Y-135279814D01*
X131358163Y-135488976D01*
X128750049Y-135488976D01*
X128797408Y-135406949D01*
X128940579Y-135076099D01*
X129044775Y-134730986D01*
X129108966Y-134374227D01*
X129118150Y-134081968D01*
X176869780Y-134081968D01*
X176899946Y-134441203D01*
X176971201Y-134794591D01*
X177082602Y-135137446D01*
X177232671Y-135465225D01*
X177419420Y-135773584D01*
X177640372Y-136058435D01*
X177892601Y-136316002D01*
X178172762Y-136542871D01*
X178477141Y-136736037D01*
X178801706Y-136892938D01*
X179142154Y-137011494D01*
X179493971Y-137090134D01*
X179852496Y-137127817D01*
X180212976Y-137124042D01*
X180570633Y-137078860D01*
X180920727Y-136992868D01*
X181258617Y-136867208D01*
X181579824Y-136703545D01*
X181880092Y-136504048D01*
X182155440Y-136271360D01*
X182290063Y-136128000D01*
X185358163Y-136128000D01*
X185358163Y-136516588D01*
X185438795Y-136817512D01*
X185586185Y-136993165D01*
X185779814Y-137104956D01*
X185988976Y-137141837D01*
X187472000Y-137141837D01*
X187472000Y-136128000D01*
X187728000Y-136128000D01*
X187728000Y-137141837D01*
X189216588Y-137141837D01*
X189517512Y-137061205D01*
X189693165Y-136913815D01*
X189804956Y-136720186D01*
X189841837Y-136511024D01*
X189841837Y-136128000D01*
X192158163Y-136128000D01*
X192158163Y-136516588D01*
X192238795Y-136817512D01*
X192386185Y-136993165D01*
X192579814Y-137104956D01*
X192788976Y-137141837D01*
X194272000Y-137141837D01*
X194272000Y-136128000D01*
X194528000Y-136128000D01*
X194528000Y-137141837D01*
X196016588Y-137141837D01*
X196317512Y-137061205D01*
X196493165Y-136913815D01*
X196604956Y-136720186D01*
X196641837Y-136511024D01*
X196641837Y-136128000D01*
X194528000Y-136128000D01*
X194272000Y-136128000D01*
X192158163Y-136128000D01*
X189841837Y-136128000D01*
X187728000Y-136128000D01*
X187472000Y-136128000D01*
X185358163Y-136128000D01*
X182290063Y-136128000D01*
X182402219Y-136008567D01*
X182617158Y-135719152D01*
X182750049Y-135488976D01*
X185358163Y-135488976D01*
X185358163Y-135872000D01*
X187472000Y-135872000D01*
X187472000Y-134858163D01*
X187728000Y-134858163D01*
X187728000Y-135872000D01*
X189841837Y-135872000D01*
X189841837Y-135488976D01*
X192158163Y-135488976D01*
X192158163Y-135872000D01*
X194272000Y-135872000D01*
X194272000Y-134858163D01*
X194528000Y-134858163D01*
X194528000Y-135872000D01*
X196641837Y-135872000D01*
X196641837Y-135483412D01*
X196561205Y-135182489D01*
X196413815Y-135006835D01*
X196220186Y-134895044D01*
X196011024Y-134858163D01*
X194528000Y-134858163D01*
X194272000Y-134858163D01*
X192783412Y-134858163D01*
X192482489Y-134938795D01*
X192306835Y-135086185D01*
X192195044Y-135279814D01*
X192158163Y-135488976D01*
X189841837Y-135488976D01*
X189841837Y-135483412D01*
X189761205Y-135182489D01*
X189613815Y-135006835D01*
X189420186Y-134895044D01*
X189211024Y-134858163D01*
X187728000Y-134858163D01*
X187472000Y-134858163D01*
X185983412Y-134858163D01*
X185682489Y-134938795D01*
X185506835Y-135086185D01*
X185395044Y-135279814D01*
X185358163Y-135488976D01*
X182750049Y-135488976D01*
X182797408Y-135406949D01*
X182940579Y-135076099D01*
X183044775Y-134730986D01*
X183108966Y-134374227D01*
X183126329Y-133821724D01*
X183084666Y-133461640D01*
X183002346Y-133110665D01*
X182880231Y-132771477D01*
X182719940Y-132448573D01*
X182523598Y-132146233D01*
X182293807Y-131868464D01*
X182033612Y-131618946D01*
X181746463Y-131400988D01*
X181436166Y-131217479D01*
X181106834Y-131070850D01*
X180762830Y-130963046D01*
X180408716Y-130895495D01*
X180049185Y-130869093D01*
X179689001Y-130884189D01*
X179332940Y-130940584D01*
X178985720Y-131037529D01*
X178651944Y-131173740D01*
X178336036Y-131347412D01*
X178042182Y-131556243D01*
X177774279Y-131797465D01*
X177535875Y-132067879D01*
X177330134Y-132363904D01*
X177159780Y-132681613D01*
X177027071Y-133016797D01*
X176933766Y-133365013D01*
X176881103Y-133721646D01*
X176869780Y-134081968D01*
X129118150Y-134081968D01*
X129126329Y-133821724D01*
X129084666Y-133461640D01*
X129002346Y-133110665D01*
X128880231Y-132771477D01*
X128719940Y-132448573D01*
X128523598Y-132146233D01*
X128293807Y-131868464D01*
X128033612Y-131618946D01*
X127746463Y-131400988D01*
X127436166Y-131217479D01*
X127106834Y-131070850D01*
X126762830Y-130963046D01*
X126408716Y-130895495D01*
X126049185Y-130869093D01*
X125689001Y-130884189D01*
X125332940Y-130940584D01*
X124985720Y-131037529D01*
X124651944Y-131173740D01*
X124336036Y-131347412D01*
X124042182Y-131556243D01*
X123774279Y-131797465D01*
X123535875Y-132067879D01*
X123330134Y-132363904D01*
X123159780Y-132681613D01*
X123027071Y-133016797D01*
X122933766Y-133365013D01*
X122881103Y-133721646D01*
X122869780Y-134081968D01*
X105326000Y-134081968D01*
X105326000Y-131789620D01*
X106674000Y-131789620D01*
X106674000Y-132010380D01*
X106749505Y-132217828D01*
X106891407Y-132386942D01*
X107082593Y-132497322D01*
X107300000Y-132535657D01*
X107517407Y-132497322D01*
X107708593Y-132386942D01*
X107780706Y-132301000D01*
X108670082Y-132301000D01*
X108670082Y-132512410D01*
X108692914Y-132627199D01*
X108764967Y-132735033D01*
X108872801Y-132807086D01*
X108987590Y-132829918D01*
X112212410Y-132829918D01*
X112327199Y-132807086D01*
X112435033Y-132735033D01*
X112507086Y-132627199D01*
X112529918Y-132512410D01*
X112529918Y-132451000D01*
X115470082Y-132451000D01*
X115470082Y-132512410D01*
X115492914Y-132627199D01*
X115564967Y-132735033D01*
X115672801Y-132807086D01*
X115787590Y-132829918D01*
X119012410Y-132829918D01*
X119127199Y-132807086D01*
X119235033Y-132735033D01*
X119307086Y-132627199D01*
X119329918Y-132512410D01*
X119329918Y-131487590D01*
X119307086Y-131372801D01*
X119235033Y-131264967D01*
X119127199Y-131192914D01*
X119012410Y-131170082D01*
X115787590Y-131170082D01*
X115672801Y-131192914D01*
X115564967Y-131264967D01*
X115492914Y-131372801D01*
X115470082Y-131487590D01*
X115470082Y-131549000D01*
X112529918Y-131549000D01*
X112529918Y-131487590D01*
X112507086Y-131372801D01*
X112435033Y-131264967D01*
X112327199Y-131192914D01*
X112212410Y-131170082D01*
X108987590Y-131170082D01*
X108872801Y-131192914D01*
X108764967Y-131264967D01*
X108692914Y-131372801D01*
X108670082Y-131487590D01*
X108670082Y-131499000D01*
X107780706Y-131499000D01*
X107708593Y-131413058D01*
X107517407Y-131302678D01*
X107300000Y-131264343D01*
X107082593Y-131302678D01*
X106891407Y-131413058D01*
X106749505Y-131582172D01*
X106674000Y-131789620D01*
X105326000Y-131789620D01*
X105326000Y-116189620D01*
X105974000Y-116189620D01*
X105974000Y-116410380D01*
X106049505Y-116617828D01*
X106191407Y-116786942D01*
X106199001Y-116791326D01*
X106199000Y-123761805D01*
X106185990Y-123830000D01*
X106204734Y-123872097D01*
X106234020Y-123991328D01*
X106282100Y-124045866D01*
X106284774Y-124051872D01*
X106306909Y-124074006D01*
X106364310Y-124139115D01*
X106376820Y-124143917D01*
X112489439Y-130256538D01*
X112528464Y-130313962D01*
X112571485Y-130330476D01*
X112676503Y-130394076D01*
X112749064Y-130398641D01*
X112755208Y-130401000D01*
X112786553Y-130401000D01*
X112873132Y-130406448D01*
X112885368Y-130401000D01*
X127955383Y-130401000D01*
X129810922Y-132256541D01*
X129849945Y-132313962D01*
X129892966Y-132330476D01*
X129997984Y-132394076D01*
X130070545Y-132398641D01*
X130076689Y-132401000D01*
X130108034Y-132401000D01*
X130194613Y-132406448D01*
X130206849Y-132401000D01*
X131670082Y-132401000D01*
X131670082Y-132512410D01*
X131692914Y-132627199D01*
X131764967Y-132735033D01*
X131872801Y-132807086D01*
X131987590Y-132829918D01*
X135212410Y-132829918D01*
X135327199Y-132807086D01*
X135435033Y-132735033D01*
X135507086Y-132627199D01*
X135529918Y-132512410D01*
X135529918Y-132451000D01*
X138470082Y-132451000D01*
X138470082Y-132512410D01*
X138492914Y-132627199D01*
X138564967Y-132735033D01*
X138672801Y-132807086D01*
X138787590Y-132829918D01*
X142012410Y-132829918D01*
X142127199Y-132807086D01*
X142235033Y-132735033D01*
X142307086Y-132627199D01*
X142329918Y-132512410D01*
X142329918Y-131625490D01*
X142361096Y-131688852D01*
X142373194Y-131703765D01*
X142381341Y-131721357D01*
X142390297Y-131732878D01*
X142522870Y-131903791D01*
X142537723Y-131915969D01*
X142549141Y-131931429D01*
X142560255Y-131940984D01*
X142724559Y-132081809D01*
X142741554Y-132090751D01*
X142755983Y-132103720D01*
X142768879Y-132110848D01*
X142768879Y-132110847D01*
X142957927Y-132215638D01*
X142976372Y-132220979D01*
X142993070Y-132230757D01*
X143007089Y-132235143D01*
X143213436Y-132299808D01*
X143232581Y-132301332D01*
X143250902Y-132307551D01*
X143265514Y-132309029D01*
X143480652Y-132330882D01*
X143520125Y-132326000D01*
X161475591Y-132326000D01*
X161510884Y-132331306D01*
X161525406Y-132330167D01*
X161692537Y-132317306D01*
X161707010Y-132312813D01*
X161722251Y-132312373D01*
X161736436Y-132308684D01*
X161945773Y-132254156D01*
X161962820Y-132245301D01*
X161981629Y-132240872D01*
X161994774Y-132234403D01*
X162188852Y-132138904D01*
X162203765Y-132126806D01*
X162221357Y-132118659D01*
X162232878Y-132109703D01*
X162403791Y-131977130D01*
X162415969Y-131962277D01*
X162431429Y-131950859D01*
X162440984Y-131939745D01*
X162581809Y-131775441D01*
X162590751Y-131758446D01*
X162603720Y-131744017D01*
X162610848Y-131731121D01*
X162610847Y-131731121D01*
X162670082Y-131624258D01*
X162670082Y-132512410D01*
X162692914Y-132627199D01*
X162764967Y-132735033D01*
X162872801Y-132807086D01*
X162987590Y-132829918D01*
X166212410Y-132829918D01*
X166327199Y-132807086D01*
X166435033Y-132735033D01*
X166507086Y-132627199D01*
X166529918Y-132512410D01*
X166529918Y-132451000D01*
X169470082Y-132451000D01*
X169470082Y-132512410D01*
X169492914Y-132627199D01*
X169564967Y-132735033D01*
X169672801Y-132807086D01*
X169787590Y-132829918D01*
X173012410Y-132829918D01*
X173127199Y-132807086D01*
X173235033Y-132735033D01*
X173307086Y-132627199D01*
X173329918Y-132512410D01*
X173329918Y-131487590D01*
X173307086Y-131372801D01*
X173235033Y-131264967D01*
X173127199Y-131192914D01*
X173012410Y-131170082D01*
X169787590Y-131170082D01*
X169672801Y-131192914D01*
X169564967Y-131264967D01*
X169492914Y-131372801D01*
X169470082Y-131487590D01*
X169470082Y-131549000D01*
X168301000Y-131549000D01*
X168301000Y-130438195D01*
X168314010Y-130370000D01*
X168295267Y-130327905D01*
X168265980Y-130208671D01*
X168217892Y-130154125D01*
X168215217Y-130148118D01*
X168193079Y-130125980D01*
X168135692Y-130060887D01*
X168123183Y-130056085D01*
X164868098Y-126801000D01*
X178533903Y-126801000D01*
X183989439Y-132256538D01*
X184028464Y-132313962D01*
X184071485Y-132330476D01*
X184176503Y-132394076D01*
X184249064Y-132398641D01*
X184255208Y-132401000D01*
X184286553Y-132401000D01*
X184373132Y-132406448D01*
X184385368Y-132401000D01*
X185670082Y-132401000D01*
X185670082Y-132512410D01*
X185692914Y-132627199D01*
X185764967Y-132735033D01*
X185872801Y-132807086D01*
X185987590Y-132829918D01*
X189212410Y-132829918D01*
X189327199Y-132807086D01*
X189435033Y-132735033D01*
X189507086Y-132627199D01*
X189529918Y-132512410D01*
X189529918Y-132451000D01*
X192470082Y-132451000D01*
X192470082Y-132512410D01*
X192492914Y-132627199D01*
X192564967Y-132735033D01*
X192672801Y-132807086D01*
X192787590Y-132829918D01*
X196012410Y-132829918D01*
X196127199Y-132807086D01*
X196235033Y-132735033D01*
X196307086Y-132627199D01*
X196329918Y-132512410D01*
X196329918Y-131487590D01*
X196307086Y-131372801D01*
X196235033Y-131264967D01*
X196127199Y-131192914D01*
X196012410Y-131170082D01*
X192787590Y-131170082D01*
X192672801Y-131192914D01*
X192564967Y-131264967D01*
X192492914Y-131372801D01*
X192470082Y-131487590D01*
X192470082Y-131549000D01*
X189529918Y-131549000D01*
X189529918Y-131487590D01*
X189507086Y-131372801D01*
X189435033Y-131264967D01*
X189327199Y-131192914D01*
X189212410Y-131170082D01*
X185987590Y-131170082D01*
X185872801Y-131192914D01*
X185764967Y-131264967D01*
X185692914Y-131372801D01*
X185670082Y-131487590D01*
X185670082Y-131599000D01*
X184466098Y-131599000D01*
X179010563Y-126143465D01*
X178971536Y-126086039D01*
X178928513Y-126069524D01*
X178823496Y-126005924D01*
X178750929Y-126001358D01*
X178744783Y-125999000D01*
X178713446Y-125999000D01*
X178626868Y-125993552D01*
X178614632Y-125999000D01*
X112666098Y-125999000D01*
X109301000Y-122633902D01*
X109301000Y-116791325D01*
X109308593Y-116786941D01*
X109450495Y-116617828D01*
X109526000Y-116410380D01*
X109526000Y-116189620D01*
X109450495Y-115982172D01*
X109308593Y-115813058D01*
X109117407Y-115702678D01*
X108900000Y-115664343D01*
X108682593Y-115702678D01*
X108491407Y-115813058D01*
X108349505Y-115982172D01*
X108300000Y-116118186D01*
X108250495Y-115982172D01*
X108108593Y-115813058D01*
X107917407Y-115702678D01*
X107700000Y-115664343D01*
X107482593Y-115702678D01*
X107291407Y-115813058D01*
X107150000Y-115981582D01*
X107008593Y-115813058D01*
X106817407Y-115702678D01*
X106600000Y-115664343D01*
X106382593Y-115702678D01*
X106191407Y-115813058D01*
X106049505Y-115982172D01*
X105974000Y-116189620D01*
X105326000Y-116189620D01*
X105326000Y-96314034D01*
X113174000Y-96314034D01*
X113174000Y-96544008D01*
X113245066Y-96762727D01*
X113380241Y-96948780D01*
X113449000Y-96998736D01*
X113449000Y-97041337D01*
X113449001Y-97041342D01*
X113449000Y-111788216D01*
X113444237Y-111879097D01*
X113463969Y-111917823D01*
X113478787Y-111987535D01*
X113591481Y-112142645D01*
X113623079Y-112160888D01*
X120372744Y-118910553D01*
X120433656Y-118978203D01*
X120474997Y-118991637D01*
X120534765Y-119030450D01*
X120724131Y-119060442D01*
X120759371Y-119051000D01*
X130288216Y-119051000D01*
X130379097Y-119055763D01*
X130417823Y-119036031D01*
X130487536Y-119021213D01*
X130606990Y-118934425D01*
X130817407Y-118897322D01*
X131008593Y-118786942D01*
X131150495Y-118617828D01*
X131226000Y-118410380D01*
X131226000Y-118189620D01*
X131150495Y-117982172D01*
X131008593Y-117813058D01*
X130817407Y-117702678D01*
X130726000Y-117686560D01*
X130726000Y-117589620D01*
X130650495Y-117382172D01*
X130508593Y-117213058D01*
X130317407Y-117102678D01*
X130226000Y-117086560D01*
X130226000Y-116989620D01*
X130150495Y-116782172D01*
X130008593Y-116613058D01*
X129817407Y-116502678D01*
X129726000Y-116486560D01*
X129726000Y-116389620D01*
X129650495Y-116182172D01*
X129508593Y-116013058D01*
X129317407Y-115902678D01*
X129226000Y-115886560D01*
X129226000Y-115789620D01*
X129150495Y-115582172D01*
X129008593Y-115413058D01*
X128817407Y-115302678D01*
X128726000Y-115286560D01*
X128726000Y-115189620D01*
X128650495Y-114982172D01*
X128508593Y-114813058D01*
X128317407Y-114702678D01*
X128226000Y-114686560D01*
X128226000Y-114589620D01*
X128150495Y-114382172D01*
X128008593Y-114213058D01*
X127817407Y-114102678D01*
X127600000Y-114064343D01*
X127382593Y-114102678D01*
X127191407Y-114213058D01*
X127049505Y-114382172D01*
X126988784Y-114549000D01*
X125386809Y-114549000D01*
X121726000Y-110888192D01*
X121726000Y-110789620D01*
X121650495Y-110582172D01*
X121508593Y-110413058D01*
X121317407Y-110302678D01*
X121100000Y-110264343D01*
X120882593Y-110302678D01*
X120691407Y-110413058D01*
X120549505Y-110582172D01*
X120474000Y-110789620D01*
X120474000Y-111010380D01*
X120549505Y-111217828D01*
X120691407Y-111386942D01*
X120882593Y-111497322D01*
X121097387Y-111535196D01*
X124711191Y-115149000D01*
X123486809Y-115149000D01*
X119351000Y-111013192D01*
X119351000Y-96439620D01*
X119474000Y-96439620D01*
X119474000Y-96660380D01*
X119549505Y-96867828D01*
X119691407Y-97036942D01*
X119882593Y-97147322D01*
X120100000Y-97185657D01*
X120317407Y-97147322D01*
X120508593Y-97036942D01*
X120650495Y-96867828D01*
X120726000Y-96660380D01*
X120726000Y-96491097D01*
X124723945Y-92493152D01*
X133615273Y-92493152D01*
X133647949Y-92724196D01*
X133747118Y-92935418D01*
X133904010Y-93108143D01*
X134104755Y-93227100D01*
X134285321Y-93270617D01*
X136138021Y-95123318D01*
X136191407Y-95186942D01*
X136263331Y-95228466D01*
X136331360Y-95276101D01*
X136358372Y-95283338D01*
X136382592Y-95297322D01*
X136464380Y-95311744D01*
X136544599Y-95333238D01*
X136627333Y-95326000D01*
X139840704Y-95326000D01*
X140822795Y-96308092D01*
X140850391Y-96503217D01*
X140949560Y-96714439D01*
X141106452Y-96887164D01*
X141307197Y-97006121D01*
X141534046Y-97060792D01*
X141766942Y-97046343D01*
X141985293Y-96964052D01*
X142169796Y-96821196D01*
X142304136Y-96630403D01*
X142376593Y-96408063D01*
X142378728Y-96163511D01*
X142310161Y-95939938D01*
X142179171Y-95746831D01*
X141997191Y-95600776D01*
X141812934Y-95527637D01*
X140561984Y-94276688D01*
X140508593Y-94213058D01*
X140436660Y-94171528D01*
X140368640Y-94123900D01*
X140341628Y-94116662D01*
X140317407Y-94102678D01*
X140235620Y-94088256D01*
X140155401Y-94066762D01*
X140072667Y-94074000D01*
X136859297Y-94074000D01*
X135176230Y-92390934D01*
X135176286Y-92384490D01*
X135147191Y-92289620D01*
X135474000Y-92289620D01*
X135474000Y-92510380D01*
X135549505Y-92717828D01*
X135691407Y-92886942D01*
X135882593Y-92997322D01*
X136100000Y-93035657D01*
X136128226Y-93030680D01*
X136647401Y-93549856D01*
X136658039Y-93572009D01*
X136715541Y-93617995D01*
X136732720Y-93635174D01*
X136752818Y-93647806D01*
X136809871Y-93693433D01*
X136834320Y-93699032D01*
X136855579Y-93712395D01*
X136928814Y-93720673D01*
X136952068Y-93726000D01*
X136975927Y-93726000D01*
X137048706Y-93734228D01*
X137072267Y-93726000D01*
X142127351Y-93726000D01*
X142150536Y-93734142D01*
X142223700Y-93726000D01*
X142248010Y-93726000D01*
X142271163Y-93720718D01*
X142343754Y-93712640D01*
X142365001Y-93699313D01*
X142389489Y-93693726D01*
X142447133Y-93647792D01*
X142467334Y-93635120D01*
X142484192Y-93618261D01*
X142541485Y-93572607D01*
X142552331Y-93550123D01*
X144049854Y-92052600D01*
X144072007Y-92041962D01*
X144117990Y-91984464D01*
X144135175Y-91967280D01*
X144147812Y-91947174D01*
X144193433Y-91890129D01*
X144199032Y-91865679D01*
X144212394Y-91844421D01*
X144220673Y-91771191D01*
X144226000Y-91747931D01*
X144226000Y-91724072D01*
X144234228Y-91651293D01*
X144226000Y-91627732D01*
X144226000Y-89266197D01*
X144350495Y-89117828D01*
X144426000Y-88910380D01*
X144426000Y-88689620D01*
X144350495Y-88482172D01*
X144208593Y-88313058D01*
X144017407Y-88202678D01*
X143800000Y-88164343D01*
X143582593Y-88202678D01*
X143391407Y-88313058D01*
X143249505Y-88482172D01*
X143174000Y-88689620D01*
X143174000Y-88910380D01*
X143249505Y-89117828D01*
X143374000Y-89266197D01*
X143374000Y-89273595D01*
X143374001Y-89273599D01*
X143374000Y-91523546D01*
X142023547Y-92874000D01*
X137176455Y-92874000D01*
X136726000Y-92423546D01*
X136726000Y-92289620D01*
X136650495Y-92082172D01*
X136508593Y-91913058D01*
X136317407Y-91802678D01*
X136100000Y-91764343D01*
X135882593Y-91802678D01*
X135691407Y-91913058D01*
X135549505Y-92082172D01*
X135474000Y-92289620D01*
X135147191Y-92289620D01*
X135107719Y-92160917D01*
X134976729Y-91967810D01*
X134794749Y-91821755D01*
X134577866Y-91735666D01*
X134345258Y-91717154D01*
X134117489Y-91767858D01*
X133914700Y-91883293D01*
X133754817Y-92053254D01*
X133651977Y-92262713D01*
X133615273Y-92493152D01*
X124723945Y-92493152D01*
X129927477Y-87289620D01*
X143474000Y-87289620D01*
X143474000Y-87510380D01*
X143549505Y-87717828D01*
X143691407Y-87886942D01*
X143882593Y-87997322D01*
X144100000Y-88035657D01*
X144317407Y-87997322D01*
X144508593Y-87886942D01*
X144650495Y-87717828D01*
X144726000Y-87510380D01*
X144726000Y-87376454D01*
X145070087Y-87032367D01*
X145182593Y-87097322D01*
X145400000Y-87135657D01*
X145617407Y-87097322D01*
X145808593Y-86986942D01*
X145950495Y-86817828D01*
X146026000Y-86610380D01*
X146026000Y-86389620D01*
X145950495Y-86182172D01*
X145808593Y-86013058D01*
X145617407Y-85902678D01*
X145400000Y-85864343D01*
X145182593Y-85902678D01*
X144991407Y-86013058D01*
X144937497Y-86077306D01*
X144928834Y-86079282D01*
X144856242Y-86087360D01*
X144834997Y-86100688D01*
X144810513Y-86106272D01*
X144752868Y-86152208D01*
X144732665Y-86164880D01*
X144715803Y-86181742D01*
X144658513Y-86227394D01*
X144647670Y-86249875D01*
X144128226Y-86769320D01*
X144100000Y-86764343D01*
X143882593Y-86802678D01*
X143691407Y-86913058D01*
X143549505Y-87082172D01*
X143474000Y-87289620D01*
X129927477Y-87289620D01*
X132027477Y-85189620D01*
X141074000Y-85189620D01*
X141074000Y-85410380D01*
X141149505Y-85617828D01*
X141291407Y-85786942D01*
X141482593Y-85897322D01*
X141700000Y-85935657D01*
X141917407Y-85897322D01*
X142108593Y-85786942D01*
X142250495Y-85617828D01*
X142326000Y-85410380D01*
X142326000Y-85189620D01*
X142250495Y-84982172D01*
X142151000Y-84863597D01*
X142151000Y-83209032D01*
X142217407Y-83197322D01*
X142408593Y-83086942D01*
X142550495Y-82917828D01*
X142626000Y-82710380D01*
X142626000Y-82489620D01*
X142550495Y-82282172D01*
X142408593Y-82113058D01*
X142217407Y-82002678D01*
X142000000Y-81964343D01*
X141782593Y-82002678D01*
X141591407Y-82113058D01*
X141449505Y-82282172D01*
X141374000Y-82489620D01*
X141374000Y-82586652D01*
X141321796Y-82633657D01*
X141308362Y-82674999D01*
X141269550Y-82734766D01*
X141239558Y-82924131D01*
X141249000Y-82959371D01*
X141249001Y-84863597D01*
X141149505Y-84982172D01*
X141074000Y-85189620D01*
X132027477Y-85189620D01*
X133106535Y-84110563D01*
X133163961Y-84071536D01*
X133180477Y-84028512D01*
X133244076Y-83923497D01*
X133248641Y-83850936D01*
X133251000Y-83844792D01*
X133251000Y-83813447D01*
X133256448Y-83726868D01*
X133251000Y-83714632D01*
X133251000Y-82291325D01*
X133258593Y-82286941D01*
X133400495Y-82117828D01*
X133476000Y-81910380D01*
X133476000Y-81689620D01*
X133400495Y-81482172D01*
X133258593Y-81313058D01*
X133067407Y-81202678D01*
X132850000Y-81164343D01*
X132632593Y-81202678D01*
X132441407Y-81313058D01*
X132299505Y-81482172D01*
X132224000Y-81689620D01*
X132224000Y-81910380D01*
X132299505Y-82117828D01*
X132441407Y-82286941D01*
X132449000Y-82291325D01*
X132449001Y-83633901D01*
X120158282Y-95924620D01*
X120100000Y-95914343D01*
X119882593Y-95952678D01*
X119691407Y-96063058D01*
X119549505Y-96232172D01*
X119474000Y-96439620D01*
X119351000Y-96439620D01*
X119351000Y-96386809D01*
X131910546Y-83827263D01*
X131978205Y-83766343D01*
X131991637Y-83725001D01*
X132030450Y-83665237D01*
X132060442Y-83475870D01*
X132051000Y-83440630D01*
X132051000Y-65169715D01*
X132119759Y-65119759D01*
X132254934Y-64933706D01*
X132326000Y-64714987D01*
X132326000Y-64485013D01*
X132254934Y-64266294D01*
X132119759Y-64080241D01*
X131933706Y-63945066D01*
X131714987Y-63874000D01*
X131485013Y-63874000D01*
X131426000Y-63893174D01*
X131426000Y-63685013D01*
X131354934Y-63466294D01*
X131219759Y-63280241D01*
X131033706Y-63145066D01*
X130814987Y-63074000D01*
X130585013Y-63074000D01*
X130451000Y-63117543D01*
X130451000Y-62769715D01*
X130519759Y-62719759D01*
X130654934Y-62533706D01*
X130726000Y-62314987D01*
X130726000Y-62085013D01*
X130654934Y-61866294D01*
X130519759Y-61680241D01*
X130333706Y-61545066D01*
X130114987Y-61474000D01*
X129885013Y-61474000D01*
X129666294Y-61545066D01*
X129480241Y-61680241D01*
X129345066Y-61866294D01*
X129274000Y-62085013D01*
X129274000Y-62314987D01*
X129345066Y-62533706D01*
X129480241Y-62719759D01*
X129549001Y-62769716D01*
X129549000Y-73446631D01*
X129549001Y-73446636D01*
X129549000Y-82613190D01*
X116489448Y-95672744D01*
X116421796Y-95733657D01*
X116408365Y-95774997D01*
X116369550Y-95834766D01*
X116339558Y-96024131D01*
X116349001Y-96059372D01*
X116349001Y-99528832D01*
X116233706Y-99445066D01*
X116014987Y-99374000D01*
X115785013Y-99374000D01*
X115566294Y-99445066D01*
X115380241Y-99580241D01*
X115251000Y-99758127D01*
X115251000Y-98469715D01*
X115319759Y-98419759D01*
X115454934Y-98233706D01*
X115526000Y-98014987D01*
X115526000Y-97785013D01*
X115454934Y-97566294D01*
X115319759Y-97380241D01*
X115133706Y-97245066D01*
X114914987Y-97174000D01*
X114685013Y-97174000D01*
X114466294Y-97245066D01*
X114351000Y-97328832D01*
X114351000Y-96998736D01*
X114419759Y-96948780D01*
X114554934Y-96762727D01*
X114626000Y-96544008D01*
X114626000Y-96314034D01*
X114554934Y-96095315D01*
X114419759Y-95909262D01*
X114233706Y-95774087D01*
X114014987Y-95703021D01*
X113785013Y-95703021D01*
X113566294Y-95774087D01*
X113380241Y-95909262D01*
X113245066Y-96095315D01*
X113174000Y-96314034D01*
X105326000Y-96314034D01*
X105326000Y-75385013D01*
X106774000Y-75385013D01*
X106774000Y-75614987D01*
X106845066Y-75833706D01*
X106980241Y-76019759D01*
X107049000Y-76069715D01*
X107049001Y-80588197D01*
X107044237Y-80679098D01*
X107063971Y-80717826D01*
X107078787Y-80787536D01*
X107191482Y-80942645D01*
X107223078Y-80960887D01*
X108274000Y-82011810D01*
X108274000Y-82214987D01*
X108345066Y-82433706D01*
X108480241Y-82619759D01*
X108666294Y-82754934D01*
X108885013Y-82826000D01*
X109114987Y-82826000D01*
X109333706Y-82754934D01*
X109519759Y-82619759D01*
X109654934Y-82433706D01*
X109726000Y-82214987D01*
X109726000Y-81985013D01*
X109654934Y-81766294D01*
X109519759Y-81580241D01*
X109333706Y-81445066D01*
X109114987Y-81374000D01*
X108911811Y-81374000D01*
X108553605Y-81015795D01*
X108585013Y-81026000D01*
X108814987Y-81026000D01*
X109033706Y-80954934D01*
X109219759Y-80819759D01*
X109354934Y-80633706D01*
X109426000Y-80414987D01*
X109426000Y-80185013D01*
X109354934Y-79966294D01*
X109219759Y-79780241D01*
X109033706Y-79645066D01*
X108814987Y-79574000D01*
X108751001Y-79574000D01*
X108750999Y-75369716D01*
X108819759Y-75319759D01*
X108954934Y-75133706D01*
X109026000Y-74914987D01*
X109026000Y-74685013D01*
X108954934Y-74466294D01*
X108819759Y-74280241D01*
X108633706Y-74145066D01*
X108414987Y-74074000D01*
X108185013Y-74074000D01*
X107966294Y-74145066D01*
X107780241Y-74280241D01*
X107645066Y-74466294D01*
X107574000Y-74685013D01*
X107574000Y-74774000D01*
X107385013Y-74774000D01*
X107166294Y-74845066D01*
X106980241Y-74980241D01*
X106845066Y-75166294D01*
X106774000Y-75385013D01*
X105326000Y-75385013D01*
X105326000Y-67789620D01*
X108174000Y-67789620D01*
X108174000Y-68010380D01*
X108249505Y-68217828D01*
X108391407Y-68386942D01*
X108582593Y-68497322D01*
X108797387Y-68535196D01*
X114274000Y-74011809D01*
X114274000Y-74110380D01*
X114349505Y-74317828D01*
X114491407Y-74486942D01*
X114682593Y-74597322D01*
X114900000Y-74635657D01*
X115117407Y-74597322D01*
X115308593Y-74486942D01*
X115450495Y-74317828D01*
X115526000Y-74110380D01*
X115526000Y-73889620D01*
X115450495Y-73682172D01*
X115308593Y-73513058D01*
X115117407Y-73402678D01*
X114902613Y-73364804D01*
X109426000Y-67888192D01*
X109426000Y-67789620D01*
X109350495Y-67582172D01*
X109208593Y-67413058D01*
X109017407Y-67302678D01*
X108800000Y-67264343D01*
X108582593Y-67302678D01*
X108391407Y-67413058D01*
X108249505Y-67582172D01*
X108174000Y-67789620D01*
X105326000Y-67789620D01*
X105326000Y-67502954D01*
X105327152Y-67430850D01*
X105310262Y-67394270D01*
X105301302Y-67354993D01*
X105279480Y-67327608D01*
X105264775Y-67295765D01*
X105233749Y-67270221D01*
X105208612Y-67238675D01*
X105143426Y-67207234D01*
X100326000Y-64798521D01*
X100326000Y-62221844D01*
X121547702Y-62221844D01*
X121547702Y-62442604D01*
X121623207Y-62650052D01*
X121765109Y-62819166D01*
X121956295Y-62929546D01*
X122173702Y-62967881D01*
X122391109Y-62929546D01*
X122564758Y-62829291D01*
X122682593Y-62897322D01*
X122900000Y-62935657D01*
X123117407Y-62897322D01*
X123300000Y-62791903D01*
X123482593Y-62897322D01*
X123700000Y-62935657D01*
X123917407Y-62897322D01*
X124108593Y-62786942D01*
X124250495Y-62617828D01*
X124326000Y-62410380D01*
X124326000Y-62189620D01*
X124250495Y-61982172D01*
X124108593Y-61813059D01*
X124101000Y-61808675D01*
X124101000Y-59666097D01*
X124977477Y-58789620D01*
X126374000Y-58789620D01*
X126374000Y-59010380D01*
X126449505Y-59217828D01*
X126591407Y-59386942D01*
X126782593Y-59497322D01*
X127000000Y-59535657D01*
X127217407Y-59497322D01*
X127408593Y-59386942D01*
X127480706Y-59301000D01*
X129733903Y-59301000D01*
X134927637Y-64494735D01*
X134882593Y-64502678D01*
X134691407Y-64613058D01*
X134661249Y-64649000D01*
X133838751Y-64649000D01*
X133808593Y-64613058D01*
X133617407Y-64502678D01*
X133400000Y-64464343D01*
X133182593Y-64502678D01*
X132991407Y-64613058D01*
X132849505Y-64782172D01*
X132774000Y-64989620D01*
X132774000Y-65210380D01*
X132849505Y-65417828D01*
X132918455Y-65500000D01*
X132849505Y-65582172D01*
X132774000Y-65789620D01*
X132774000Y-66010380D01*
X132849505Y-66217828D01*
X132991407Y-66386942D01*
X133182593Y-66497322D01*
X133400000Y-66535657D01*
X133617407Y-66497322D01*
X133808593Y-66386942D01*
X133838751Y-66351000D01*
X134577340Y-66351000D01*
X134691407Y-66486942D01*
X134882593Y-66597322D01*
X135100000Y-66635657D01*
X135317407Y-66597322D01*
X135508593Y-66486942D01*
X135650495Y-66317828D01*
X135726000Y-66110380D01*
X135726000Y-65889620D01*
X135650495Y-65682172D01*
X135539590Y-65550000D01*
X135650495Y-65417828D01*
X135703927Y-65271025D01*
X137674000Y-67241098D01*
X137674000Y-67410380D01*
X137749505Y-67617828D01*
X137891407Y-67786942D01*
X138082593Y-67897322D01*
X138300000Y-67935657D01*
X138517407Y-67897322D01*
X138708593Y-67786942D01*
X138850495Y-67617828D01*
X138926000Y-67410380D01*
X138926000Y-67189620D01*
X138850495Y-66982172D01*
X138708593Y-66813058D01*
X138517407Y-66702678D01*
X138300000Y-66664343D01*
X138241718Y-66674620D01*
X130210563Y-58643465D01*
X130171536Y-58586039D01*
X130128513Y-58569524D01*
X130023496Y-58505924D01*
X129950929Y-58501358D01*
X129944783Y-58499000D01*
X129913446Y-58499000D01*
X129826868Y-58493552D01*
X129814632Y-58499000D01*
X127480706Y-58499000D01*
X127408593Y-58413058D01*
X127217407Y-58302678D01*
X127000000Y-58264343D01*
X126782593Y-58302678D01*
X126591407Y-58413058D01*
X126449505Y-58582172D01*
X126374000Y-58789620D01*
X124977477Y-58789620D01*
X126677477Y-57089620D01*
X127174000Y-57089620D01*
X127174000Y-57310380D01*
X127249505Y-57517828D01*
X127391407Y-57686942D01*
X127582593Y-57797322D01*
X127800000Y-57835657D01*
X128017407Y-57797322D01*
X128184243Y-57701000D01*
X130919294Y-57701000D01*
X130991407Y-57786942D01*
X131182593Y-57897322D01*
X131400000Y-57935657D01*
X131617407Y-57897322D01*
X131808593Y-57786942D01*
X131950495Y-57617828D01*
X132026000Y-57410380D01*
X132026000Y-57189620D01*
X131950495Y-56982172D01*
X131808593Y-56813058D01*
X131617407Y-56702678D01*
X131400000Y-56664343D01*
X131182593Y-56702678D01*
X130991407Y-56813058D01*
X130919294Y-56899000D01*
X128356619Y-56899000D01*
X128350494Y-56882172D01*
X128208593Y-56713058D01*
X128017407Y-56602678D01*
X127800000Y-56564343D01*
X127582593Y-56602678D01*
X127391407Y-56713058D01*
X127249505Y-56882172D01*
X127174000Y-57089620D01*
X126677477Y-57089620D01*
X128182084Y-55585013D01*
X128674000Y-55585013D01*
X128674000Y-55814987D01*
X128745066Y-56033706D01*
X128880241Y-56219759D01*
X129066294Y-56354934D01*
X129285013Y-56426000D01*
X129514987Y-56426000D01*
X129733706Y-56354934D01*
X129911170Y-56226000D01*
X132588830Y-56226000D01*
X132766294Y-56354934D01*
X132985013Y-56426000D01*
X133214987Y-56426000D01*
X133433706Y-56354934D01*
X133619759Y-56219759D01*
X133754934Y-56033706D01*
X133826000Y-55814987D01*
X133826000Y-55585013D01*
X133754934Y-55366294D01*
X133619759Y-55180241D01*
X133433706Y-55045066D01*
X133214987Y-54974000D01*
X132985013Y-54974000D01*
X132766294Y-55045066D01*
X132588830Y-55174000D01*
X129911170Y-55174000D01*
X129733706Y-55045066D01*
X129514987Y-54974000D01*
X129285013Y-54974000D01*
X129066294Y-55045066D01*
X128880241Y-55180241D01*
X128745066Y-55366294D01*
X128674000Y-55585013D01*
X128182084Y-55585013D01*
X128641717Y-55125380D01*
X128700000Y-55135657D01*
X128917407Y-55097322D01*
X129108593Y-54986942D01*
X129250495Y-54817828D01*
X129326000Y-54610380D01*
X129326000Y-54389620D01*
X129250495Y-54182172D01*
X129108593Y-54013058D01*
X129067997Y-53989620D01*
X138674000Y-53989620D01*
X138674000Y-54210380D01*
X138749505Y-54417828D01*
X138891407Y-54586942D01*
X139082593Y-54697322D01*
X139300000Y-54735657D01*
X139517407Y-54697322D01*
X139708593Y-54586942D01*
X139850495Y-54417828D01*
X139926000Y-54210380D01*
X139926000Y-53989620D01*
X139850495Y-53782172D01*
X139708593Y-53613059D01*
X139701000Y-53608675D01*
X139701000Y-52825877D01*
X139745066Y-52833647D01*
X139962473Y-52795312D01*
X140153659Y-52684932D01*
X140295561Y-52515818D01*
X140371066Y-52308370D01*
X140371066Y-52087610D01*
X140295561Y-51880162D01*
X140153659Y-51711048D01*
X139962473Y-51600668D01*
X139745066Y-51562333D01*
X139527659Y-51600668D01*
X139336473Y-51711048D01*
X139194571Y-51880162D01*
X139119066Y-52087610D01*
X139119066Y-52256890D01*
X139043460Y-52332497D01*
X138986039Y-52371520D01*
X138969526Y-52414539D01*
X138905924Y-52519560D01*
X138901359Y-52592118D01*
X138899001Y-52598260D01*
X138899001Y-52629594D01*
X138893552Y-52716185D01*
X138899001Y-52728424D01*
X138899000Y-53608675D01*
X138891407Y-53613059D01*
X138749505Y-53782172D01*
X138674000Y-53989620D01*
X129067997Y-53989620D01*
X128917407Y-53902678D01*
X128700000Y-53864343D01*
X128482593Y-53902678D01*
X128291407Y-54013058D01*
X128149505Y-54182172D01*
X128101000Y-54315438D01*
X128101000Y-53891325D01*
X128108593Y-53886941D01*
X128250495Y-53717828D01*
X128326000Y-53510380D01*
X128326000Y-53289620D01*
X128250495Y-53082172D01*
X128108593Y-52913058D01*
X127917407Y-52802678D01*
X127700000Y-52764343D01*
X127482593Y-52802678D01*
X127291407Y-52913058D01*
X127149505Y-53082172D01*
X127074000Y-53289620D01*
X127074000Y-53510380D01*
X127149505Y-53717828D01*
X127291407Y-53886941D01*
X127299001Y-53891325D01*
X127299000Y-54315439D01*
X127250495Y-54182172D01*
X127108593Y-54013058D01*
X126917407Y-53902678D01*
X126700000Y-53864343D01*
X126482593Y-53902678D01*
X126291407Y-54013058D01*
X126149505Y-54182172D01*
X126074000Y-54389620D01*
X126074000Y-54610380D01*
X126149505Y-54817828D01*
X126225046Y-54907855D01*
X121917165Y-59215737D01*
X121859741Y-59254762D01*
X121843228Y-59297781D01*
X121779626Y-59402802D01*
X121775061Y-59475360D01*
X121772703Y-59481502D01*
X121772703Y-59512836D01*
X121767254Y-59599427D01*
X121772703Y-59611666D01*
X121772702Y-61840899D01*
X121765109Y-61845283D01*
X121623207Y-62014396D01*
X121547702Y-62221844D01*
X100326000Y-62221844D01*
X100326000Y-50326000D01*
X142103646Y-50326000D01*
X144924519Y-54384097D01*
G36*
X107291407Y-116786941D02*
G01*
X107299000Y-116791325D01*
X107299001Y-123361800D01*
X107285990Y-123430000D01*
X107304736Y-123472101D01*
X107334022Y-123591330D01*
X107382101Y-123645865D01*
X107384776Y-123651873D01*
X107406922Y-123674019D01*
X107464309Y-123739113D01*
X107476818Y-123743915D01*
X110789439Y-127056538D01*
X110828464Y-127113962D01*
X110871485Y-127130476D01*
X110976503Y-127194076D01*
X111049064Y-127198641D01*
X111055208Y-127201000D01*
X111086553Y-127201000D01*
X111173132Y-127206448D01*
X111185368Y-127201000D01*
X164133903Y-127201000D01*
X167499000Y-130566098D01*
X167499001Y-131549000D01*
X166529918Y-131549000D01*
X166529918Y-131487590D01*
X166507086Y-131372801D01*
X166435033Y-131264967D01*
X166327199Y-131192914D01*
X166212410Y-131170082D01*
X162987590Y-131170082D01*
X162872801Y-131192914D01*
X162808916Y-131235601D01*
X162809023Y-131234542D01*
X162830882Y-131019348D01*
X162826000Y-130979875D01*
X162826000Y-129024409D01*
X162831306Y-128989116D01*
X162830167Y-128974594D01*
X162817306Y-128807463D01*
X162812813Y-128792990D01*
X162812373Y-128777749D01*
X162808684Y-128763564D01*
X162754156Y-128554227D01*
X162745301Y-128537180D01*
X162740872Y-128518371D01*
X162734403Y-128505226D01*
X162638904Y-128311148D01*
X162626806Y-128296235D01*
X162618659Y-128278643D01*
X162609703Y-128267122D01*
X162477130Y-128096209D01*
X162462277Y-128084031D01*
X162450859Y-128068571D01*
X162439745Y-128059016D01*
X162275440Y-127918189D01*
X162258445Y-127909248D01*
X162244019Y-127896281D01*
X162231121Y-127889152D01*
X162231121Y-127889153D01*
X162042072Y-127784362D01*
X162023630Y-127779022D01*
X162006977Y-127769270D01*
X161992990Y-127764882D01*
X161786564Y-127700192D01*
X161767420Y-127698668D01*
X161749099Y-127692449D01*
X161734487Y-127690971D01*
X161519348Y-127669118D01*
X161479875Y-127674000D01*
X143524409Y-127674000D01*
X143489116Y-127668694D01*
X143474594Y-127669833D01*
X143307463Y-127682694D01*
X143292990Y-127687187D01*
X143277749Y-127687627D01*
X143263564Y-127691316D01*
X143054227Y-127745844D01*
X143037180Y-127754699D01*
X143018371Y-127759128D01*
X143005226Y-127765597D01*
X142811148Y-127861096D01*
X142796235Y-127873194D01*
X142778643Y-127881341D01*
X142767122Y-127890297D01*
X142596209Y-128022870D01*
X142584031Y-128037723D01*
X142568571Y-128049141D01*
X142559016Y-128060255D01*
X142418189Y-128224560D01*
X142409248Y-128241555D01*
X142396281Y-128255981D01*
X142389152Y-128268879D01*
X142389153Y-128268879D01*
X142284362Y-128457928D01*
X142279022Y-128476370D01*
X142269270Y-128493023D01*
X142264882Y-128507010D01*
X142200192Y-128713436D01*
X142198668Y-128732580D01*
X142192449Y-128750901D01*
X142190977Y-128765457D01*
X142169118Y-128980652D01*
X142174001Y-129020133D01*
X142174000Y-130975591D01*
X142168694Y-131010884D01*
X142169833Y-131025406D01*
X142182694Y-131192537D01*
X142187187Y-131207010D01*
X142187627Y-131222251D01*
X142191102Y-131235613D01*
X142127199Y-131192914D01*
X142012410Y-131170082D01*
X138787590Y-131170082D01*
X138672801Y-131192914D01*
X138564967Y-131264967D01*
X138492914Y-131372801D01*
X138470082Y-131487590D01*
X138470082Y-131549000D01*
X135529918Y-131549000D01*
X135529918Y-131487590D01*
X135507086Y-131372801D01*
X135435033Y-131264967D01*
X135327199Y-131192914D01*
X135212410Y-131170082D01*
X131987590Y-131170082D01*
X131872801Y-131192914D01*
X131764967Y-131264967D01*
X131692914Y-131372801D01*
X131670082Y-131487590D01*
X131670082Y-131599000D01*
X130287580Y-131599000D01*
X128432044Y-129743465D01*
X128393017Y-129686039D01*
X128349994Y-129669524D01*
X128244977Y-129605924D01*
X128172410Y-129601358D01*
X128166264Y-129599000D01*
X128134927Y-129599000D01*
X128048349Y-129593552D01*
X128036113Y-129599000D01*
X112966099Y-129599000D01*
X107001000Y-123633902D01*
X107001000Y-116791325D01*
X107008593Y-116786941D01*
X107150000Y-116618418D01*
X107291407Y-116786941D01*
G37*
X107291407Y-116786941D02*
X107299000Y-116791325D01*
X107299001Y-123361800D01*
X107285990Y-123430000D01*
X107304736Y-123472101D01*
X107334022Y-123591330D01*
X107382101Y-123645865D01*
X107384776Y-123651873D01*
X107406922Y-123674019D01*
X107464309Y-123739113D01*
X107476818Y-123743915D01*
X110789439Y-127056538D01*
X110828464Y-127113962D01*
X110871485Y-127130476D01*
X110976503Y-127194076D01*
X111049064Y-127198641D01*
X111055208Y-127201000D01*
X111086553Y-127201000D01*
X111173132Y-127206448D01*
X111185368Y-127201000D01*
X164133903Y-127201000D01*
X167499000Y-130566098D01*
X167499001Y-131549000D01*
X166529918Y-131549000D01*
X166529918Y-131487590D01*
X166507086Y-131372801D01*
X166435033Y-131264967D01*
X166327199Y-131192914D01*
X166212410Y-131170082D01*
X162987590Y-131170082D01*
X162872801Y-131192914D01*
X162808916Y-131235601D01*
X162809023Y-131234542D01*
X162830882Y-131019348D01*
X162826000Y-130979875D01*
X162826000Y-129024409D01*
X162831306Y-128989116D01*
X162830167Y-128974594D01*
X162817306Y-128807463D01*
X162812813Y-128792990D01*
X162812373Y-128777749D01*
X162808684Y-128763564D01*
X162754156Y-128554227D01*
X162745301Y-128537180D01*
X162740872Y-128518371D01*
X162734403Y-128505226D01*
X162638904Y-128311148D01*
X162626806Y-128296235D01*
X162618659Y-128278643D01*
X162609703Y-128267122D01*
X162477130Y-128096209D01*
X162462277Y-128084031D01*
X162450859Y-128068571D01*
X162439745Y-128059016D01*
X162275440Y-127918189D01*
X162258445Y-127909248D01*
X162244019Y-127896281D01*
X162231121Y-127889152D01*
X162231121Y-127889153D01*
X162042072Y-127784362D01*
X162023630Y-127779022D01*
X162006977Y-127769270D01*
X161992990Y-127764882D01*
X161786564Y-127700192D01*
X161767420Y-127698668D01*
X161749099Y-127692449D01*
X161734487Y-127690971D01*
X161519348Y-127669118D01*
X161479875Y-127674000D01*
X143524409Y-127674000D01*
X143489116Y-127668694D01*
X143474594Y-127669833D01*
X143307463Y-127682694D01*
X143292990Y-127687187D01*
X143277749Y-127687627D01*
X143263564Y-127691316D01*
X143054227Y-127745844D01*
X143037180Y-127754699D01*
X143018371Y-127759128D01*
X143005226Y-127765597D01*
X142811148Y-127861096D01*
X142796235Y-127873194D01*
X142778643Y-127881341D01*
X142767122Y-127890297D01*
X142596209Y-128022870D01*
X142584031Y-128037723D01*
X142568571Y-128049141D01*
X142559016Y-128060255D01*
X142418189Y-128224560D01*
X142409248Y-128241555D01*
X142396281Y-128255981D01*
X142389152Y-128268879D01*
X142389153Y-128268879D01*
X142284362Y-128457928D01*
X142279022Y-128476370D01*
X142269270Y-128493023D01*
X142264882Y-128507010D01*
X142200192Y-128713436D01*
X142198668Y-128732580D01*
X142192449Y-128750901D01*
X142190977Y-128765457D01*
X142169118Y-128980652D01*
X142174001Y-129020133D01*
X142174000Y-130975591D01*
X142168694Y-131010884D01*
X142169833Y-131025406D01*
X142182694Y-131192537D01*
X142187187Y-131207010D01*
X142187627Y-131222251D01*
X142191102Y-131235613D01*
X142127199Y-131192914D01*
X142012410Y-131170082D01*
X138787590Y-131170082D01*
X138672801Y-131192914D01*
X138564967Y-131264967D01*
X138492914Y-131372801D01*
X138470082Y-131487590D01*
X138470082Y-131549000D01*
X135529918Y-131549000D01*
X135529918Y-131487590D01*
X135507086Y-131372801D01*
X135435033Y-131264967D01*
X135327199Y-131192914D01*
X135212410Y-131170082D01*
X131987590Y-131170082D01*
X131872801Y-131192914D01*
X131764967Y-131264967D01*
X131692914Y-131372801D01*
X131670082Y-131487590D01*
X131670082Y-131599000D01*
X130287580Y-131599000D01*
X128432044Y-129743465D01*
X128393017Y-129686039D01*
X128349994Y-129669524D01*
X128244977Y-129605924D01*
X128172410Y-129601358D01*
X128166264Y-129599000D01*
X128134927Y-129599000D01*
X128048349Y-129593552D01*
X128036113Y-129599000D01*
X112966099Y-129599000D01*
X107001000Y-123633902D01*
X107001000Y-116791325D01*
X107008593Y-116786941D01*
X107150000Y-116618418D01*
X107291407Y-116786941D01*
M02*
