G04 #@! TF.GenerationSoftware,KiCad,Pcbnew,(5.99.0-263-g133772e96)*
G04 #@! TF.CreationDate,2019-11-01T12:35:40+01:00*
G04 #@! TF.ProjectId,pocasicko,706f6361-7369-4636-9b6f-2e6b69636164,1*
G04 #@! TF.SameCoordinates,Original*
G04 #@! TF.FileFunction,Legend,Bot*
G04 #@! TF.FilePolarity,Positive*
%FSLAX46Y46*%
G04 Gerber Fmt 4.6, Leading zero omitted, Abs format (unit mm)*
G04 Created by KiCad (PCBNEW (5.99.0-263-g133772e96)) date 2019-11-01 12:35:40*
%MOMM*%
%LPD*%
G04 APERTURE LIST*
%ADD10C,0.150000*%
%ADD11C,0.304800*%
%ADD12C,0.152400*%
%ADD13C,0.120000*%
%ADD14C,0.010000*%
%ADD15C,0.300000*%
G04 APERTURE END LIST*
D10*
X136000000Y-114240000D02*
X124230000Y-114240000D01*
D11*
X178581281Y-117044285D02*
X178662923Y-117116857D01*
X178889709Y-117189428D01*
X179034852Y-117189428D01*
X179243495Y-117116857D01*
X179370495Y-116971714D01*
X179424923Y-116826571D01*
X179461209Y-116536285D01*
X179433995Y-116318571D01*
X179325138Y-116028285D01*
X179234423Y-115883142D01*
X179071138Y-115738000D01*
X178844352Y-115665428D01*
X178699209Y-115665428D01*
X178490566Y-115738000D01*
X178427066Y-115810571D01*
X177946281Y-117189428D02*
X177755781Y-115665428D01*
X177293138Y-117189428D02*
X177193352Y-116391142D01*
X177247781Y-116246000D01*
X177383852Y-116173428D01*
X177601566Y-116173428D01*
X177755781Y-116246000D01*
X177837423Y-116318571D01*
X176349709Y-117189428D02*
X176485781Y-117116857D01*
X176549281Y-117044285D01*
X176603709Y-116899142D01*
X176549281Y-116463714D01*
X176458566Y-116318571D01*
X176376923Y-116246000D01*
X176222709Y-116173428D01*
X176004995Y-116173428D01*
X175868923Y-116246000D01*
X175805423Y-116318571D01*
X175750995Y-116463714D01*
X175805423Y-116899142D01*
X175896138Y-117044285D01*
X175977781Y-117116857D01*
X176131995Y-117189428D01*
X176349709Y-117189428D01*
X174970852Y-117189428D02*
X175106923Y-117116857D01*
X175170423Y-117044285D01*
X175224852Y-116899142D01*
X175170423Y-116463714D01*
X175079709Y-116318571D01*
X174998066Y-116246000D01*
X174843852Y-116173428D01*
X174626138Y-116173428D01*
X174490066Y-116246000D01*
X174426566Y-116318571D01*
X174372138Y-116463714D01*
X174426566Y-116899142D01*
X174517281Y-117044285D01*
X174598923Y-117116857D01*
X174753138Y-117189428D01*
X174970852Y-117189428D01*
X173809709Y-117189428D02*
X173619209Y-115665428D01*
X173591995Y-116608857D02*
X173229138Y-117189428D01*
X173102138Y-116173428D02*
X173755281Y-116754000D01*
X172575995Y-117189428D02*
X172448995Y-116173428D01*
X172385495Y-115665428D02*
X172467138Y-115738000D01*
X172403638Y-115810571D01*
X172321995Y-115738000D01*
X172385495Y-115665428D01*
X172403638Y-115810571D01*
X171940995Y-116173428D02*
X171360423Y-116173428D01*
X171659781Y-115665428D02*
X171823066Y-116971714D01*
X171768638Y-117116857D01*
X171632566Y-117189428D01*
X171487423Y-117189428D01*
X170997566Y-116173428D02*
X170761709Y-117189428D01*
X170271852Y-116173428D02*
X170761709Y-117189428D01*
X170952209Y-117552285D01*
X171033852Y-117624857D01*
X171188066Y-117697428D01*
X169800138Y-117044285D02*
X169736638Y-117116857D01*
X169818281Y-117189428D01*
X169881781Y-117116857D01*
X169800138Y-117044285D01*
X169818281Y-117189428D01*
X169745709Y-116608857D02*
X169709423Y-115738000D01*
X169627781Y-115665428D01*
X169564281Y-115738000D01*
X169745709Y-116608857D01*
X169627781Y-115665428D01*
D12*
X173719276Y-83493600D02*
X173796685Y-83454895D01*
X173912800Y-83454895D01*
X174028914Y-83493600D01*
X174106323Y-83571009D01*
X174145028Y-83648419D01*
X174183733Y-83803238D01*
X174183733Y-83919352D01*
X174145028Y-84074171D01*
X174106323Y-84151580D01*
X174028914Y-84228990D01*
X173912800Y-84267695D01*
X173835390Y-84267695D01*
X173719276Y-84228990D01*
X173680571Y-84190285D01*
X173680571Y-83919352D01*
X173835390Y-83919352D01*
X173332228Y-84267695D02*
X173332228Y-83454895D01*
X172867771Y-84267695D01*
X172867771Y-83454895D01*
X172480723Y-84267695D02*
X172480723Y-83454895D01*
X172287200Y-83454895D01*
X172171085Y-83493600D01*
X172093676Y-83571009D01*
X172054971Y-83648419D01*
X172016266Y-83803238D01*
X172016266Y-83919352D01*
X172054971Y-84074171D01*
X172093676Y-84151580D01*
X172171085Y-84228990D01*
X172287200Y-84267695D01*
X172480723Y-84267695D01*
X172835466Y-81667695D02*
X173106400Y-81280647D01*
X173299923Y-81667695D02*
X173299923Y-80854895D01*
X172990285Y-80854895D01*
X172912876Y-80893600D01*
X172874171Y-80932304D01*
X172835466Y-81009714D01*
X172835466Y-81125828D01*
X172874171Y-81203238D01*
X172912876Y-81241942D01*
X172990285Y-81280647D01*
X173299923Y-81280647D01*
X172564533Y-80854895D02*
X172022666Y-81667695D01*
X172022666Y-80854895D02*
X172564533Y-81667695D01*
X173219276Y-78454895D02*
X172754819Y-78454895D01*
X172987047Y-79267695D02*
X172987047Y-78454895D01*
X172561295Y-78454895D02*
X172019428Y-79267695D01*
X172019428Y-78454895D02*
X172561295Y-79267695D01*
X174780314Y-72927695D02*
X174780314Y-72114895D01*
X174315857Y-72927695D01*
X174315857Y-72114895D01*
X173464352Y-72927695D02*
X173735285Y-72540647D01*
X173928809Y-72927695D02*
X173928809Y-72114895D01*
X173619171Y-72114895D01*
X173541761Y-72153600D01*
X173503057Y-72192304D01*
X173464352Y-72269714D01*
X173464352Y-72385828D01*
X173503057Y-72463238D01*
X173541761Y-72501942D01*
X173619171Y-72540647D01*
X173928809Y-72540647D01*
X173154714Y-72888990D02*
X173038600Y-72927695D01*
X172845076Y-72927695D01*
X172767666Y-72888990D01*
X172728961Y-72850285D01*
X172690257Y-72772876D01*
X172690257Y-72695466D01*
X172728961Y-72618057D01*
X172767666Y-72579352D01*
X172845076Y-72540647D01*
X172999895Y-72501942D01*
X173077304Y-72463238D01*
X173116009Y-72424533D01*
X173154714Y-72347123D01*
X173154714Y-72269714D01*
X173116009Y-72192304D01*
X173077304Y-72153600D01*
X172999895Y-72114895D01*
X172806371Y-72114895D01*
X172690257Y-72153600D01*
X172458028Y-72114895D02*
X171993571Y-72114895D01*
X172225800Y-72927695D02*
X172225800Y-72114895D01*
X175467361Y-70388990D02*
X175351247Y-70427695D01*
X175157723Y-70427695D01*
X175080314Y-70388990D01*
X175041609Y-70350285D01*
X175002904Y-70272876D01*
X175002904Y-70195466D01*
X175041609Y-70118057D01*
X175080314Y-70079352D01*
X175157723Y-70040647D01*
X175312542Y-70001942D01*
X175389952Y-69963238D01*
X175428657Y-69924533D01*
X175467361Y-69847123D01*
X175467361Y-69769714D01*
X175428657Y-69692304D01*
X175389952Y-69653600D01*
X175312542Y-69614895D01*
X175119019Y-69614895D01*
X175002904Y-69653600D01*
X174731971Y-69614895D02*
X174538447Y-70427695D01*
X174383628Y-69847123D01*
X174228809Y-70427695D01*
X174035285Y-69614895D01*
X173725647Y-70427695D02*
X173725647Y-69614895D01*
X173532123Y-69614895D01*
X173416009Y-69653600D01*
X173338600Y-69731009D01*
X173299895Y-69808419D01*
X173261190Y-69963238D01*
X173261190Y-70079352D01*
X173299895Y-70234171D01*
X173338600Y-70311580D01*
X173416009Y-70388990D01*
X173532123Y-70427695D01*
X173725647Y-70427695D01*
X172912847Y-70427695D02*
X172912847Y-69614895D01*
X172370980Y-69614895D02*
X172216161Y-69614895D01*
X172138752Y-69653600D01*
X172061342Y-69731009D01*
X172022638Y-69885828D01*
X172022638Y-70156761D01*
X172061342Y-70311580D01*
X172138752Y-70388990D01*
X172216161Y-70427695D01*
X172370980Y-70427695D01*
X172448390Y-70388990D01*
X172525800Y-70311580D01*
X172564504Y-70156761D01*
X172564504Y-69885828D01*
X172525800Y-69731009D01*
X172448390Y-69653600D01*
X172370980Y-69614895D01*
X173664276Y-67053600D02*
X173741685Y-67014895D01*
X173857800Y-67014895D01*
X173973914Y-67053600D01*
X174051323Y-67131009D01*
X174090028Y-67208419D01*
X174128733Y-67363238D01*
X174128733Y-67479352D01*
X174090028Y-67634171D01*
X174051323Y-67711580D01*
X173973914Y-67788990D01*
X173857800Y-67827695D01*
X173780390Y-67827695D01*
X173664276Y-67788990D01*
X173625571Y-67750285D01*
X173625571Y-67479352D01*
X173780390Y-67479352D01*
X173277228Y-67827695D02*
X173277228Y-67014895D01*
X172812771Y-67827695D01*
X172812771Y-67014895D01*
X172425723Y-67827695D02*
X172425723Y-67014895D01*
X172232200Y-67014895D01*
X172116085Y-67053600D01*
X172038676Y-67131009D01*
X171999971Y-67208419D01*
X171961266Y-67363238D01*
X171961266Y-67479352D01*
X171999971Y-67634171D01*
X172038676Y-67711580D01*
X172116085Y-67788990D01*
X172232200Y-67827695D01*
X172425723Y-67827695D01*
X175683476Y-65288990D02*
X175567361Y-65327695D01*
X175373838Y-65327695D01*
X175296428Y-65288990D01*
X175257723Y-65250285D01*
X175219019Y-65172876D01*
X175219019Y-65095466D01*
X175257723Y-65018057D01*
X175296428Y-64979352D01*
X175373838Y-64940647D01*
X175528657Y-64901942D01*
X175606066Y-64863238D01*
X175644771Y-64824533D01*
X175683476Y-64747123D01*
X175683476Y-64669714D01*
X175644771Y-64592304D01*
X175606066Y-64553600D01*
X175528657Y-64514895D01*
X175335133Y-64514895D01*
X175219019Y-64553600D01*
X174948085Y-64514895D02*
X174754561Y-65327695D01*
X174599742Y-64747123D01*
X174444923Y-65327695D01*
X174251400Y-64514895D01*
X173477304Y-65250285D02*
X173516009Y-65288990D01*
X173632123Y-65327695D01*
X173709533Y-65327695D01*
X173825647Y-65288990D01*
X173903057Y-65211580D01*
X173941761Y-65134171D01*
X173980466Y-64979352D01*
X173980466Y-64863238D01*
X173941761Y-64708419D01*
X173903057Y-64631009D01*
X173825647Y-64553600D01*
X173709533Y-64514895D01*
X173632123Y-64514895D01*
X173516009Y-64553600D01*
X173477304Y-64592304D01*
X172741914Y-65327695D02*
X173128961Y-65327695D01*
X173128961Y-64514895D01*
X172470980Y-65327695D02*
X172470980Y-64514895D01*
X172006523Y-65327695D02*
X172354866Y-64863238D01*
X172006523Y-64514895D02*
X172470980Y-64979352D01*
X174028733Y-61914895D02*
X173757800Y-62727695D01*
X173486866Y-61914895D01*
X173215933Y-62727695D02*
X173215933Y-61914895D01*
X173022409Y-61914895D01*
X172906295Y-61953600D01*
X172828885Y-62031009D01*
X172790180Y-62108419D01*
X172751476Y-62263238D01*
X172751476Y-62379352D01*
X172790180Y-62534171D01*
X172828885Y-62611580D01*
X172906295Y-62688990D01*
X173022409Y-62727695D01*
X173215933Y-62727695D01*
X172403133Y-62727695D02*
X172403133Y-61914895D01*
X172209609Y-61914895D01*
X172093495Y-61953600D01*
X172016085Y-62031009D01*
X171977380Y-62108419D01*
X171938676Y-62263238D01*
X171938676Y-62379352D01*
X171977380Y-62534171D01*
X172016085Y-62611580D01*
X172093495Y-62688990D01*
X172209609Y-62727695D01*
X172403133Y-62727695D01*
D10*
X155618482Y-62842380D02*
X155493482Y-61842380D01*
X155112529Y-61842380D01*
X155023244Y-61890000D01*
X154981577Y-61937619D01*
X154945863Y-62032857D01*
X154963720Y-62175714D01*
X155023244Y-62270952D01*
X155076815Y-62318571D01*
X155178005Y-62366190D01*
X155558958Y-62366190D01*
X154475625Y-62842380D02*
X154564910Y-62794761D01*
X154606577Y-62747142D01*
X154642291Y-62651904D01*
X154606577Y-62366190D01*
X154547053Y-62270952D01*
X154493482Y-62223333D01*
X154392291Y-62175714D01*
X154249434Y-62175714D01*
X154160148Y-62223333D01*
X154118482Y-62270952D01*
X154082767Y-62366190D01*
X154118482Y-62651904D01*
X154178005Y-62747142D01*
X154231577Y-62794761D01*
X154332767Y-62842380D01*
X154475625Y-62842380D01*
X153279196Y-62794761D02*
X153380386Y-62842380D01*
X153570863Y-62842380D01*
X153660148Y-62794761D01*
X153701815Y-62747142D01*
X153737529Y-62651904D01*
X153701815Y-62366190D01*
X153642291Y-62270952D01*
X153588720Y-62223333D01*
X153487529Y-62175714D01*
X153297053Y-62175714D01*
X153207767Y-62223333D01*
X153535148Y-61794761D02*
X153362529Y-61937619D01*
X153154196Y-61794761D01*
X152428005Y-62842380D02*
X152362529Y-62318571D01*
X152398244Y-62223333D01*
X152487529Y-62175714D01*
X152678005Y-62175714D01*
X152779196Y-62223333D01*
X152422053Y-62794761D02*
X152523244Y-62842380D01*
X152761339Y-62842380D01*
X152850625Y-62794761D01*
X152886339Y-62699523D01*
X152874434Y-62604285D01*
X152814910Y-62509047D01*
X152713720Y-62461428D01*
X152475625Y-62461428D01*
X152374434Y-62413809D01*
X151993482Y-62794761D02*
X151904196Y-62842380D01*
X151713720Y-62842380D01*
X151612529Y-62794761D01*
X151553005Y-62699523D01*
X151547053Y-62651904D01*
X151582767Y-62556666D01*
X151672053Y-62509047D01*
X151814910Y-62509047D01*
X151904196Y-62461428D01*
X151939910Y-62366190D01*
X151933958Y-62318571D01*
X151874434Y-62223333D01*
X151773244Y-62175714D01*
X151630386Y-62175714D01*
X151541101Y-62223333D01*
X151142291Y-62842380D02*
X151058958Y-62175714D01*
X150916101Y-61794761D02*
X151076815Y-61937619D01*
X150231577Y-62794761D02*
X150332767Y-62842380D01*
X150523244Y-62842380D01*
X150612529Y-62794761D01*
X150654196Y-62747142D01*
X150689910Y-62651904D01*
X150654196Y-62366190D01*
X150594672Y-62270952D01*
X150541101Y-62223333D01*
X150439910Y-62175714D01*
X150249434Y-62175714D01*
X150160148Y-62223333D01*
X150487529Y-61794761D02*
X150314910Y-61937619D01*
X150106577Y-61794761D01*
X149808958Y-62842380D02*
X149683958Y-61842380D01*
X149666101Y-62461428D02*
X149428005Y-62842380D01*
X149344672Y-62175714D02*
X149773244Y-62556666D01*
X148856577Y-62842380D02*
X148945863Y-62794761D01*
X148987529Y-62747142D01*
X149023244Y-62651904D01*
X148987529Y-62366190D01*
X148928005Y-62270952D01*
X148874434Y-62223333D01*
X148773244Y-62175714D01*
X148630386Y-62175714D01*
X148541101Y-62223333D01*
X148499434Y-62270952D01*
X148463720Y-62366190D01*
X148499434Y-62651904D01*
X148558958Y-62747142D01*
X148612529Y-62794761D01*
X148713720Y-62842380D01*
X148856577Y-62842380D01*
X157118482Y-64452380D02*
X157689910Y-64452380D01*
X157404196Y-64452380D02*
X157279196Y-63452380D01*
X157392291Y-63595238D01*
X157499434Y-63690476D01*
X157600625Y-63738095D01*
X156374434Y-63452380D02*
X156279196Y-63452380D01*
X156189910Y-63500000D01*
X156148244Y-63547619D01*
X156112529Y-63642857D01*
X156088720Y-63833333D01*
X156118482Y-64071428D01*
X156189910Y-64261904D01*
X156249434Y-64357142D01*
X156303005Y-64404761D01*
X156404196Y-64452380D01*
X156499434Y-64452380D01*
X156588720Y-64404761D01*
X156630386Y-64357142D01*
X156666101Y-64261904D01*
X156689910Y-64071428D01*
X156660148Y-63833333D01*
X156588720Y-63642857D01*
X156529196Y-63547619D01*
X156475625Y-63500000D01*
X156374434Y-63452380D01*
X154892291Y-63404761D02*
X155910148Y-64690476D01*
X154624434Y-63547619D02*
X154570863Y-63500000D01*
X154469672Y-63452380D01*
X154231577Y-63452380D01*
X154142291Y-63500000D01*
X154100625Y-63547619D01*
X154064910Y-63642857D01*
X154076815Y-63738095D01*
X154142291Y-63880952D01*
X154785148Y-64452380D01*
X154166101Y-64452380D01*
X153422053Y-63452380D02*
X153326815Y-63452380D01*
X153237529Y-63500000D01*
X153195863Y-63547619D01*
X153160148Y-63642857D01*
X153136339Y-63833333D01*
X153166101Y-64071428D01*
X153237529Y-64261904D01*
X153297053Y-64357142D01*
X153350625Y-64404761D01*
X153451815Y-64452380D01*
X153547053Y-64452380D01*
X153636339Y-64404761D01*
X153678005Y-64357142D01*
X153713720Y-64261904D01*
X153737529Y-64071428D01*
X153707767Y-63833333D01*
X153636339Y-63642857D01*
X153576815Y-63547619D01*
X153523244Y-63500000D01*
X153422053Y-63452380D01*
X152261339Y-64452380D02*
X152832767Y-64452380D01*
X152547053Y-64452380D02*
X152422053Y-63452380D01*
X152535148Y-63595238D01*
X152642291Y-63690476D01*
X152743482Y-63738095D01*
X151785148Y-64452380D02*
X151594672Y-64452380D01*
X151493482Y-64404761D01*
X151439910Y-64357142D01*
X151326815Y-64214285D01*
X151255386Y-64023809D01*
X151207767Y-63642857D01*
X151243482Y-63547619D01*
X151285148Y-63500000D01*
X151374434Y-63452380D01*
X151564910Y-63452380D01*
X151666101Y-63500000D01*
X151719672Y-63547619D01*
X151779196Y-63642857D01*
X151808958Y-63880952D01*
X151773244Y-63976190D01*
X151731577Y-64023809D01*
X151642291Y-64071428D01*
X151451815Y-64071428D01*
X151350625Y-64023809D01*
X151297053Y-63976190D01*
X151237529Y-63880952D01*
X149547053Y-64452380D02*
X149820863Y-63976190D01*
X150118482Y-64452380D02*
X149993482Y-63452380D01*
X149612529Y-63452380D01*
X149523244Y-63500000D01*
X149481577Y-63547619D01*
X149445863Y-63642857D01*
X149463720Y-63785714D01*
X149523244Y-63880952D01*
X149576815Y-63928571D01*
X149678005Y-63976190D01*
X150058958Y-63976190D01*
X148731577Y-64404761D02*
X148832767Y-64452380D01*
X149023244Y-64452380D01*
X149112529Y-64404761D01*
X149148244Y-64309523D01*
X149100625Y-63928571D01*
X149041101Y-63833333D01*
X148939910Y-63785714D01*
X148749434Y-63785714D01*
X148660148Y-63833333D01*
X148624434Y-63928571D01*
X148636339Y-64023809D01*
X149124434Y-64119047D01*
X148273244Y-63785714D02*
X148118482Y-64452380D01*
X147797053Y-63785714D01*
X147487529Y-64357142D02*
X147445863Y-64404761D01*
X147499434Y-64452380D01*
X147541101Y-64404761D01*
X147487529Y-64357142D01*
X147499434Y-64452380D01*
X146499434Y-64452380D02*
X147070863Y-64452380D01*
X146785148Y-64452380D02*
X146660148Y-63452380D01*
X146773244Y-63595238D01*
X146880386Y-63690476D01*
X146981577Y-63738095D01*
X157261339Y-66062380D02*
X157535148Y-65586190D01*
X157832767Y-66062380D02*
X157707767Y-65062380D01*
X157326815Y-65062380D01*
X157237529Y-65110000D01*
X157195863Y-65157619D01*
X157160148Y-65252857D01*
X157178005Y-65395714D01*
X157237529Y-65490952D01*
X157291101Y-65538571D01*
X157392291Y-65586190D01*
X157773244Y-65586190D01*
X156404196Y-66062380D02*
X156338720Y-65538571D01*
X156374434Y-65443333D01*
X156463720Y-65395714D01*
X156654196Y-65395714D01*
X156755386Y-65443333D01*
X156398244Y-66014761D02*
X156499434Y-66062380D01*
X156737529Y-66062380D01*
X156826815Y-66014761D01*
X156862529Y-65919523D01*
X156850625Y-65824285D01*
X156791101Y-65729047D01*
X156689910Y-65681428D01*
X156451815Y-65681428D01*
X156350625Y-65633809D01*
X155499434Y-66062380D02*
X155374434Y-65062380D01*
X155493482Y-66014761D02*
X155594672Y-66062380D01*
X155785148Y-66062380D01*
X155874434Y-66014761D01*
X155916101Y-65967142D01*
X155951815Y-65871904D01*
X155916101Y-65586190D01*
X155856577Y-65490952D01*
X155803005Y-65443333D01*
X155701815Y-65395714D01*
X155511339Y-65395714D01*
X155422053Y-65443333D01*
X154880386Y-66062380D02*
X154969672Y-66014761D01*
X155011339Y-65967142D01*
X155047053Y-65871904D01*
X155011339Y-65586190D01*
X154951815Y-65490952D01*
X154898244Y-65443333D01*
X154797053Y-65395714D01*
X154654196Y-65395714D01*
X154564910Y-65443333D01*
X154523244Y-65490952D01*
X154487529Y-65586190D01*
X154523244Y-65871904D01*
X154582767Y-65967142D01*
X154636339Y-66014761D01*
X154737529Y-66062380D01*
X154880386Y-66062380D01*
X154130386Y-65395714D02*
X153975625Y-66062380D01*
X153654196Y-65395714D01*
X152928005Y-66062380D02*
X152862529Y-65538571D01*
X152898244Y-65443333D01*
X152987529Y-65395714D01*
X153178005Y-65395714D01*
X153279196Y-65443333D01*
X152922053Y-66014761D02*
X153023244Y-66062380D01*
X153261339Y-66062380D01*
X153350625Y-66014761D01*
X153386339Y-65919523D01*
X153374434Y-65824285D01*
X153314910Y-65729047D01*
X153213720Y-65681428D01*
X152975625Y-65681428D01*
X152874434Y-65633809D01*
X152368482Y-65395714D02*
X152451815Y-66062380D01*
X152380386Y-65490952D02*
X152326815Y-65443333D01*
X152225625Y-65395714D01*
X152082767Y-65395714D01*
X151993482Y-65443333D01*
X151957767Y-65538571D01*
X152023244Y-66062380D01*
X150386339Y-65538571D02*
X150249434Y-65586190D01*
X150207767Y-65633809D01*
X150172053Y-65729047D01*
X150189910Y-65871904D01*
X150249434Y-65967142D01*
X150303005Y-66014761D01*
X150404196Y-66062380D01*
X150785148Y-66062380D01*
X150660148Y-65062380D01*
X150326815Y-65062380D01*
X150237529Y-65110000D01*
X150195863Y-65157619D01*
X150160148Y-65252857D01*
X150172053Y-65348095D01*
X150231577Y-65443333D01*
X150285148Y-65490952D01*
X150386339Y-65538571D01*
X150719672Y-65538571D01*
X149642291Y-66062380D02*
X149731577Y-66014761D01*
X149767291Y-65919523D01*
X149660148Y-65062380D01*
X148832767Y-66062380D02*
X148767291Y-65538571D01*
X148803005Y-65443333D01*
X148892291Y-65395714D01*
X149082767Y-65395714D01*
X149183958Y-65443333D01*
X148826815Y-66014761D02*
X148928005Y-66062380D01*
X149166101Y-66062380D01*
X149255386Y-66014761D01*
X149291101Y-65919523D01*
X149279196Y-65824285D01*
X149219672Y-65729047D01*
X149118482Y-65681428D01*
X148880386Y-65681428D01*
X148779196Y-65633809D01*
X148368482Y-65395714D02*
X147844672Y-65395714D01*
X148451815Y-66062380D01*
X147928005Y-66062380D01*
X148225625Y-65014761D02*
X148053005Y-65157619D01*
X147844672Y-65014761D01*
X147160148Y-66014761D02*
X147261339Y-66062380D01*
X147451815Y-66062380D01*
X147541101Y-66014761D01*
X147576815Y-65919523D01*
X147529196Y-65538571D01*
X147469672Y-65443333D01*
X147368482Y-65395714D01*
X147178005Y-65395714D01*
X147088720Y-65443333D01*
X147053005Y-65538571D01*
X147064910Y-65633809D01*
X147553005Y-65729047D01*
X146689910Y-66062380D02*
X146564910Y-65062380D01*
X146547053Y-65681428D02*
X146308958Y-66062380D01*
X146225625Y-65395714D02*
X146654196Y-65776666D01*
D13*
X123240000Y-112240000D02*
X123240000Y-115960000D01*
X137060000Y-112240000D02*
X137060000Y-115960000D01*
X137060000Y-115960000D02*
X123240000Y-115960000D01*
X137060000Y-112240000D02*
X136260000Y-112240000D01*
X123240000Y-112240000D02*
X124030000Y-112240000D01*
X132600000Y-59300000D02*
G75*
G03X132600000Y-59300000I-700000J0D01*
G01*
X104360000Y-58000000D02*
X104860000Y-57750000D01*
X104860000Y-57750000D02*
X104860000Y-58250000D01*
X104860000Y-58250000D02*
X104360000Y-58000000D01*
X132600000Y-62600000D02*
G75*
G03X132600000Y-62600000I-700000J0D01*
G01*
X131600000Y-70100000D02*
G75*
G03X131600000Y-70100000I-700000J0D01*
G01*
X113900000Y-67500000D02*
G75*
G03X113900000Y-67500000I-700000J0D01*
G01*
X117700000Y-75000000D02*
G75*
G03X117700000Y-75000000I-700000J0D01*
G01*
X125210000Y-57841422D02*
X125210000Y-58358578D01*
X123790000Y-57841422D02*
X123790000Y-58358578D01*
G36*
X190354562Y-55632850D02*
G01*
X190437313Y-55660053D01*
X190512406Y-55705484D01*
X190584298Y-55771302D01*
X190622846Y-55815567D01*
X190662256Y-55873961D01*
X190687446Y-55934586D01*
X190700861Y-56003865D01*
X190704948Y-56088222D01*
X190704669Y-56134307D01*
X190702460Y-56175450D01*
X190696894Y-56207582D01*
X190686586Y-56238122D01*
X190670148Y-56274489D01*
X190656200Y-56301728D01*
X190597665Y-56387429D01*
X190525619Y-56456617D01*
X190441947Y-56507741D01*
X190348531Y-56539250D01*
X190315434Y-56546225D01*
X190274960Y-56553094D01*
X190241999Y-56554919D01*
X190207698Y-56551947D01*
X190163200Y-56544426D01*
X190111934Y-56532002D01*
X190021434Y-56494112D01*
X189942345Y-56439836D01*
X189876528Y-56371770D01*
X189825840Y-56292511D01*
X189792140Y-56204654D01*
X189777286Y-56110795D01*
X189783136Y-56013530D01*
X189809399Y-55917220D01*
X189854418Y-55828494D01*
X189915373Y-55753419D01*
X189990184Y-55693641D01*
X190076768Y-55650809D01*
X190173043Y-55626571D01*
X190276928Y-55622576D01*
X190354562Y-55632850D01*
G37*
D14*
X190354562Y-55632850D02*
X190437313Y-55660053D01*
X190512406Y-55705484D01*
X190584298Y-55771302D01*
X190622846Y-55815567D01*
X190662256Y-55873961D01*
X190687446Y-55934586D01*
X190700861Y-56003865D01*
X190704948Y-56088222D01*
X190704669Y-56134307D01*
X190702460Y-56175450D01*
X190696894Y-56207582D01*
X190686586Y-56238122D01*
X190670148Y-56274489D01*
X190656200Y-56301728D01*
X190597665Y-56387429D01*
X190525619Y-56456617D01*
X190441947Y-56507741D01*
X190348531Y-56539250D01*
X190315434Y-56546225D01*
X190274960Y-56553094D01*
X190241999Y-56554919D01*
X190207698Y-56551947D01*
X190163200Y-56544426D01*
X190111934Y-56532002D01*
X190021434Y-56494112D01*
X189942345Y-56439836D01*
X189876528Y-56371770D01*
X189825840Y-56292511D01*
X189792140Y-56204654D01*
X189777286Y-56110795D01*
X189783136Y-56013530D01*
X189809399Y-55917220D01*
X189854418Y-55828494D01*
X189915373Y-55753419D01*
X189990184Y-55693641D01*
X190076768Y-55650809D01*
X190173043Y-55626571D01*
X190276928Y-55622576D01*
X190354562Y-55632850D01*
G36*
X184085268Y-58920158D02*
G01*
X184076689Y-59071594D01*
X184057833Y-59208283D01*
X184027837Y-59334276D01*
X183985836Y-59453625D01*
X183930969Y-59570381D01*
X183864167Y-59681179D01*
X183773363Y-59794739D01*
X183669708Y-59890211D01*
X183553887Y-59967073D01*
X183426586Y-60024797D01*
X183288489Y-60062858D01*
X183250793Y-60068666D01*
X183171752Y-60074396D01*
X183083629Y-60074583D01*
X182994236Y-60069539D01*
X182911384Y-60059578D01*
X182842887Y-60045012D01*
X182812035Y-60035364D01*
X182734730Y-60005123D01*
X182657679Y-59967617D01*
X182588200Y-59926614D01*
X182533615Y-59885879D01*
X182510916Y-59866505D01*
X182488201Y-59848662D01*
X182476779Y-59841778D01*
X182475537Y-59843424D01*
X182472728Y-59861205D01*
X182470776Y-59894370D01*
X182470045Y-59937733D01*
X182470045Y-60033689D01*
X181611896Y-60033689D01*
X181646161Y-59972974D01*
X181651355Y-59963868D01*
X181659715Y-59949249D01*
X181667288Y-59935173D01*
X181674112Y-59920540D01*
X181680227Y-59904249D01*
X181685673Y-59885198D01*
X181690487Y-59862286D01*
X181694708Y-59834413D01*
X181698377Y-59800478D01*
X181701531Y-59759379D01*
X181704211Y-59710015D01*
X181706454Y-59651286D01*
X181708299Y-59582090D01*
X181709787Y-59501326D01*
X181710955Y-59407894D01*
X181711844Y-59300692D01*
X181712491Y-59178620D01*
X181712936Y-59040576D01*
X181713218Y-58885459D01*
X181713375Y-58712168D01*
X181713448Y-58519603D01*
X181713474Y-58306662D01*
X181713485Y-58170530D01*
X182515200Y-58170530D01*
X182515200Y-59320721D01*
X182585756Y-59367089D01*
X182626417Y-59390791D01*
X182680546Y-59416639D01*
X182729689Y-59434829D01*
X182793165Y-59450551D01*
X182889331Y-59461541D01*
X182973900Y-59453365D01*
X183047219Y-59425805D01*
X183109637Y-59378642D01*
X183161502Y-59311658D01*
X183203160Y-59224633D01*
X183234962Y-59117350D01*
X183237545Y-59105009D01*
X183246000Y-59043772D01*
X183251663Y-58966692D01*
X183254576Y-58879002D01*
X183254783Y-58785934D01*
X183252330Y-58692720D01*
X183247261Y-58604594D01*
X183239619Y-58526788D01*
X183229448Y-58464533D01*
X183228167Y-58458666D01*
X183199126Y-58348121D01*
X183164610Y-58257575D01*
X183123456Y-58184953D01*
X183074499Y-58128181D01*
X183016574Y-58085184D01*
X182984620Y-58069615D01*
X182911784Y-58050722D01*
X182830443Y-58047465D01*
X182745319Y-58059389D01*
X182661133Y-58086040D01*
X182582608Y-58126962D01*
X182515200Y-58170530D01*
X181713485Y-58170530D01*
X181713493Y-58072245D01*
X181713689Y-56387378D01*
X182619017Y-56387378D01*
X182594585Y-56424067D01*
X182588318Y-56433647D01*
X182562208Y-56479981D01*
X182544469Y-56527102D01*
X182532908Y-56582251D01*
X182525331Y-56652667D01*
X182524839Y-56659650D01*
X182523062Y-56697641D01*
X182521444Y-56751576D01*
X182519999Y-56818703D01*
X182518740Y-56896271D01*
X182517680Y-56981528D01*
X182516829Y-57071724D01*
X182516203Y-57164107D01*
X182515812Y-57255925D01*
X182515670Y-57344427D01*
X182515790Y-57426862D01*
X182516183Y-57500479D01*
X182516862Y-57562526D01*
X182517841Y-57610251D01*
X182519132Y-57640904D01*
X182520747Y-57651733D01*
X182528957Y-57647333D01*
X182550647Y-57632362D01*
X182580014Y-57610448D01*
X182628879Y-57576236D01*
X182717125Y-57529714D01*
X182815916Y-57496046D01*
X182928510Y-57474231D01*
X183058164Y-57463265D01*
X183150670Y-57462219D01*
X183272011Y-57472014D01*
X183382099Y-57496174D01*
X183485389Y-57535785D01*
X183586338Y-57591932D01*
X183631503Y-57622883D01*
X183736911Y-57714115D01*
X183828538Y-57823106D01*
X183906332Y-57949726D01*
X183970241Y-58093845D01*
X184020214Y-58255332D01*
X184056198Y-58434059D01*
X184078143Y-58629895D01*
X184083900Y-58785934D01*
X184085994Y-58842711D01*
X184085268Y-58920158D01*
G37*
X184085268Y-58920158D02*
X184076689Y-59071594D01*
X184057833Y-59208283D01*
X184027837Y-59334276D01*
X183985836Y-59453625D01*
X183930969Y-59570381D01*
X183864167Y-59681179D01*
X183773363Y-59794739D01*
X183669708Y-59890211D01*
X183553887Y-59967073D01*
X183426586Y-60024797D01*
X183288489Y-60062858D01*
X183250793Y-60068666D01*
X183171752Y-60074396D01*
X183083629Y-60074583D01*
X182994236Y-60069539D01*
X182911384Y-60059578D01*
X182842887Y-60045012D01*
X182812035Y-60035364D01*
X182734730Y-60005123D01*
X182657679Y-59967617D01*
X182588200Y-59926614D01*
X182533615Y-59885879D01*
X182510916Y-59866505D01*
X182488201Y-59848662D01*
X182476779Y-59841778D01*
X182475537Y-59843424D01*
X182472728Y-59861205D01*
X182470776Y-59894370D01*
X182470045Y-59937733D01*
X182470045Y-60033689D01*
X181611896Y-60033689D01*
X181646161Y-59972974D01*
X181651355Y-59963868D01*
X181659715Y-59949249D01*
X181667288Y-59935173D01*
X181674112Y-59920540D01*
X181680227Y-59904249D01*
X181685673Y-59885198D01*
X181690487Y-59862286D01*
X181694708Y-59834413D01*
X181698377Y-59800478D01*
X181701531Y-59759379D01*
X181704211Y-59710015D01*
X181706454Y-59651286D01*
X181708299Y-59582090D01*
X181709787Y-59501326D01*
X181710955Y-59407894D01*
X181711844Y-59300692D01*
X181712491Y-59178620D01*
X181712936Y-59040576D01*
X181713218Y-58885459D01*
X181713375Y-58712168D01*
X181713448Y-58519603D01*
X181713474Y-58306662D01*
X181713485Y-58170530D01*
X182515200Y-58170530D01*
X182515200Y-59320721D01*
X182585756Y-59367089D01*
X182626417Y-59390791D01*
X182680546Y-59416639D01*
X182729689Y-59434829D01*
X182793165Y-59450551D01*
X182889331Y-59461541D01*
X182973900Y-59453365D01*
X183047219Y-59425805D01*
X183109637Y-59378642D01*
X183161502Y-59311658D01*
X183203160Y-59224633D01*
X183234962Y-59117350D01*
X183237545Y-59105009D01*
X183246000Y-59043772D01*
X183251663Y-58966692D01*
X183254576Y-58879002D01*
X183254783Y-58785934D01*
X183252330Y-58692720D01*
X183247261Y-58604594D01*
X183239619Y-58526788D01*
X183229448Y-58464533D01*
X183228167Y-58458666D01*
X183199126Y-58348121D01*
X183164610Y-58257575D01*
X183123456Y-58184953D01*
X183074499Y-58128181D01*
X183016574Y-58085184D01*
X182984620Y-58069615D01*
X182911784Y-58050722D01*
X182830443Y-58047465D01*
X182745319Y-58059389D01*
X182661133Y-58086040D01*
X182582608Y-58126962D01*
X182515200Y-58170530D01*
X181713485Y-58170530D01*
X181713493Y-58072245D01*
X181713689Y-56387378D01*
X182619017Y-56387378D01*
X182594585Y-56424067D01*
X182588318Y-56433647D01*
X182562208Y-56479981D01*
X182544469Y-56527102D01*
X182532908Y-56582251D01*
X182525331Y-56652667D01*
X182524839Y-56659650D01*
X182523062Y-56697641D01*
X182521444Y-56751576D01*
X182519999Y-56818703D01*
X182518740Y-56896271D01*
X182517680Y-56981528D01*
X182516829Y-57071724D01*
X182516203Y-57164107D01*
X182515812Y-57255925D01*
X182515670Y-57344427D01*
X182515790Y-57426862D01*
X182516183Y-57500479D01*
X182516862Y-57562526D01*
X182517841Y-57610251D01*
X182519132Y-57640904D01*
X182520747Y-57651733D01*
X182528957Y-57647333D01*
X182550647Y-57632362D01*
X182580014Y-57610448D01*
X182628879Y-57576236D01*
X182717125Y-57529714D01*
X182815916Y-57496046D01*
X182928510Y-57474231D01*
X183058164Y-57463265D01*
X183150670Y-57462219D01*
X183272011Y-57472014D01*
X183382099Y-57496174D01*
X183485389Y-57535785D01*
X183586338Y-57591932D01*
X183631503Y-57622883D01*
X183736911Y-57714115D01*
X183828538Y-57823106D01*
X183906332Y-57949726D01*
X183970241Y-58093845D01*
X184020214Y-58255332D01*
X184056198Y-58434059D01*
X184078143Y-58629895D01*
X184083900Y-58785934D01*
X184085994Y-58842711D01*
X184085268Y-58920158D01*
G36*
X186627261Y-59277363D02*
G01*
X186623632Y-59352202D01*
X186616022Y-59414401D01*
X186603688Y-59470984D01*
X186559313Y-59597076D01*
X186496400Y-59711679D01*
X186416238Y-59812568D01*
X186319740Y-59898924D01*
X186207822Y-59969932D01*
X186081397Y-60024776D01*
X185941378Y-60062638D01*
X185905149Y-60068351D01*
X185826155Y-60074313D01*
X185737841Y-60074646D01*
X185648075Y-60069659D01*
X185564722Y-60059666D01*
X185495651Y-60044978D01*
X185409187Y-60014749D01*
X185299286Y-59960057D01*
X185201956Y-59892543D01*
X185139867Y-59841556D01*
X185136605Y-59937622D01*
X185133343Y-60033689D01*
X184710450Y-60033689D01*
X184699543Y-60033686D01*
X184605056Y-60033380D01*
X184518331Y-60032616D01*
X184441837Y-60031451D01*
X184378043Y-60029942D01*
X184329418Y-60028147D01*
X184298433Y-60026121D01*
X184287556Y-60023922D01*
X184287578Y-60023463D01*
X184294614Y-60007910D01*
X184310434Y-59985071D01*
X184314734Y-59979638D01*
X184325777Y-59965606D01*
X184335311Y-59952186D01*
X184343461Y-59937722D01*
X184350352Y-59920556D01*
X184356111Y-59899034D01*
X184360862Y-59871498D01*
X184364731Y-59836292D01*
X184367844Y-59791760D01*
X184370325Y-59736246D01*
X184372300Y-59668093D01*
X184373894Y-59585645D01*
X184375234Y-59487246D01*
X184376444Y-59371239D01*
X184377649Y-59235968D01*
X184378594Y-59124586D01*
X185179378Y-59124586D01*
X185179378Y-59320462D01*
X185224048Y-59376973D01*
X185236785Y-59392212D01*
X185283604Y-59434844D01*
X185344255Y-59470672D01*
X185354897Y-59475850D01*
X185393676Y-59492745D01*
X185428692Y-59502909D01*
X185468722Y-59508325D01*
X185522541Y-59510978D01*
X185540648Y-59511383D01*
X185616011Y-59508540D01*
X185676743Y-59496620D01*
X185728452Y-59474037D01*
X185776746Y-59439211D01*
X185781803Y-59434798D01*
X185830272Y-59379160D01*
X185858459Y-59315333D01*
X185867752Y-59240282D01*
X185860520Y-59168693D01*
X185835796Y-59105645D01*
X185791249Y-59047758D01*
X185736319Y-59000808D01*
X185663894Y-58960961D01*
X185577340Y-58933263D01*
X185474670Y-58917096D01*
X185353894Y-58911842D01*
X185345007Y-58911857D01*
X185289660Y-58912655D01*
X185242736Y-58914488D01*
X185208953Y-58917111D01*
X185193028Y-58920274D01*
X185188943Y-58926741D01*
X185184572Y-58948875D01*
X185181604Y-58987988D01*
X185179914Y-59045939D01*
X185179378Y-59124586D01*
X184378594Y-59124586D01*
X184378975Y-59079778D01*
X184380228Y-58937012D01*
X184381651Y-58791942D01*
X184383176Y-58666027D01*
X184384933Y-58557436D01*
X184387051Y-58464334D01*
X184389660Y-58384891D01*
X184392890Y-58317273D01*
X184396869Y-58259649D01*
X184401728Y-58210185D01*
X184407597Y-58167050D01*
X184414604Y-58128410D01*
X184422880Y-58092434D01*
X184432554Y-58057289D01*
X184443756Y-58021142D01*
X184456616Y-57982161D01*
X184472090Y-57939091D01*
X184514994Y-57846871D01*
X184568735Y-57767099D01*
X184637576Y-57692965D01*
X184715185Y-57629405D01*
X184819761Y-57567725D01*
X184939244Y-57520202D01*
X185074508Y-57486567D01*
X185226426Y-57466552D01*
X185395872Y-57459889D01*
X185453890Y-57460287D01*
X185519398Y-57462335D01*
X185580693Y-57466704D01*
X185642097Y-57474035D01*
X185707932Y-57484969D01*
X185782520Y-57500147D01*
X185870184Y-57520209D01*
X185975245Y-57545797D01*
X186003806Y-57552820D01*
X186079054Y-57570776D01*
X186149388Y-57586820D01*
X186210567Y-57600028D01*
X186258354Y-57609474D01*
X186288511Y-57614231D01*
X186316783Y-57617910D01*
X186343060Y-57623187D01*
X186353059Y-57627942D01*
X186349952Y-57636781D01*
X186339194Y-57664072D01*
X186321864Y-57706906D01*
X186299126Y-57762425D01*
X186272147Y-57827772D01*
X186242090Y-57900089D01*
X186235493Y-57915879D01*
X186196907Y-58006484D01*
X186165768Y-58076217D01*
X186141917Y-58125405D01*
X186125198Y-58154374D01*
X186115454Y-58163452D01*
X186107766Y-58161405D01*
X186081415Y-58151760D01*
X186042982Y-58136190D01*
X185997822Y-58116815D01*
X185903293Y-58078814D01*
X185766480Y-58037780D01*
X185625289Y-58012612D01*
X185587314Y-58008611D01*
X185484059Y-58006447D01*
X185396952Y-58019622D01*
X185325129Y-58048756D01*
X185267731Y-58094466D01*
X185223896Y-58157372D01*
X185192762Y-58238092D01*
X185173470Y-58337245D01*
X185166050Y-58396224D01*
X185327936Y-58389445D01*
X185454495Y-58387813D01*
X185605951Y-58394194D01*
X185754396Y-58408777D01*
X185890578Y-58430882D01*
X185955245Y-58445821D01*
X186087490Y-58488741D01*
X186209762Y-58545340D01*
X186319685Y-58614017D01*
X186414883Y-58693170D01*
X186492980Y-58781196D01*
X186551599Y-58876493D01*
X186575595Y-58928864D01*
X186601232Y-58999590D01*
X186617478Y-59070812D01*
X186625822Y-59149712D01*
X186627690Y-59240282D01*
X186627755Y-59243467D01*
X186627261Y-59277363D01*
G37*
X186627261Y-59277363D02*
X186623632Y-59352202D01*
X186616022Y-59414401D01*
X186603688Y-59470984D01*
X186559313Y-59597076D01*
X186496400Y-59711679D01*
X186416238Y-59812568D01*
X186319740Y-59898924D01*
X186207822Y-59969932D01*
X186081397Y-60024776D01*
X185941378Y-60062638D01*
X185905149Y-60068351D01*
X185826155Y-60074313D01*
X185737841Y-60074646D01*
X185648075Y-60069659D01*
X185564722Y-60059666D01*
X185495651Y-60044978D01*
X185409187Y-60014749D01*
X185299286Y-59960057D01*
X185201956Y-59892543D01*
X185139867Y-59841556D01*
X185136605Y-59937622D01*
X185133343Y-60033689D01*
X184710450Y-60033689D01*
X184699543Y-60033686D01*
X184605056Y-60033380D01*
X184518331Y-60032616D01*
X184441837Y-60031451D01*
X184378043Y-60029942D01*
X184329418Y-60028147D01*
X184298433Y-60026121D01*
X184287556Y-60023922D01*
X184287578Y-60023463D01*
X184294614Y-60007910D01*
X184310434Y-59985071D01*
X184314734Y-59979638D01*
X184325777Y-59965606D01*
X184335311Y-59952186D01*
X184343461Y-59937722D01*
X184350352Y-59920556D01*
X184356111Y-59899034D01*
X184360862Y-59871498D01*
X184364731Y-59836292D01*
X184367844Y-59791760D01*
X184370325Y-59736246D01*
X184372300Y-59668093D01*
X184373894Y-59585645D01*
X184375234Y-59487246D01*
X184376444Y-59371239D01*
X184377649Y-59235968D01*
X184378594Y-59124586D01*
X185179378Y-59124586D01*
X185179378Y-59320462D01*
X185224048Y-59376973D01*
X185236785Y-59392212D01*
X185283604Y-59434844D01*
X185344255Y-59470672D01*
X185354897Y-59475850D01*
X185393676Y-59492745D01*
X185428692Y-59502909D01*
X185468722Y-59508325D01*
X185522541Y-59510978D01*
X185540648Y-59511383D01*
X185616011Y-59508540D01*
X185676743Y-59496620D01*
X185728452Y-59474037D01*
X185776746Y-59439211D01*
X185781803Y-59434798D01*
X185830272Y-59379160D01*
X185858459Y-59315333D01*
X185867752Y-59240282D01*
X185860520Y-59168693D01*
X185835796Y-59105645D01*
X185791249Y-59047758D01*
X185736319Y-59000808D01*
X185663894Y-58960961D01*
X185577340Y-58933263D01*
X185474670Y-58917096D01*
X185353894Y-58911842D01*
X185345007Y-58911857D01*
X185289660Y-58912655D01*
X185242736Y-58914488D01*
X185208953Y-58917111D01*
X185193028Y-58920274D01*
X185188943Y-58926741D01*
X185184572Y-58948875D01*
X185181604Y-58987988D01*
X185179914Y-59045939D01*
X185179378Y-59124586D01*
X184378594Y-59124586D01*
X184378975Y-59079778D01*
X184380228Y-58937012D01*
X184381651Y-58791942D01*
X184383176Y-58666027D01*
X184384933Y-58557436D01*
X184387051Y-58464334D01*
X184389660Y-58384891D01*
X184392890Y-58317273D01*
X184396869Y-58259649D01*
X184401728Y-58210185D01*
X184407597Y-58167050D01*
X184414604Y-58128410D01*
X184422880Y-58092434D01*
X184432554Y-58057289D01*
X184443756Y-58021142D01*
X184456616Y-57982161D01*
X184472090Y-57939091D01*
X184514994Y-57846871D01*
X184568735Y-57767099D01*
X184637576Y-57692965D01*
X184715185Y-57629405D01*
X184819761Y-57567725D01*
X184939244Y-57520202D01*
X185074508Y-57486567D01*
X185226426Y-57466552D01*
X185395872Y-57459889D01*
X185453890Y-57460287D01*
X185519398Y-57462335D01*
X185580693Y-57466704D01*
X185642097Y-57474035D01*
X185707932Y-57484969D01*
X185782520Y-57500147D01*
X185870184Y-57520209D01*
X185975245Y-57545797D01*
X186003806Y-57552820D01*
X186079054Y-57570776D01*
X186149388Y-57586820D01*
X186210567Y-57600028D01*
X186258354Y-57609474D01*
X186288511Y-57614231D01*
X186316783Y-57617910D01*
X186343060Y-57623187D01*
X186353059Y-57627942D01*
X186349952Y-57636781D01*
X186339194Y-57664072D01*
X186321864Y-57706906D01*
X186299126Y-57762425D01*
X186272147Y-57827772D01*
X186242090Y-57900089D01*
X186235493Y-57915879D01*
X186196907Y-58006484D01*
X186165768Y-58076217D01*
X186141917Y-58125405D01*
X186125198Y-58154374D01*
X186115454Y-58163452D01*
X186107766Y-58161405D01*
X186081415Y-58151760D01*
X186042982Y-58136190D01*
X185997822Y-58116815D01*
X185903293Y-58078814D01*
X185766480Y-58037780D01*
X185625289Y-58012612D01*
X185587314Y-58008611D01*
X185484059Y-58006447D01*
X185396952Y-58019622D01*
X185325129Y-58048756D01*
X185267731Y-58094466D01*
X185223896Y-58157372D01*
X185192762Y-58238092D01*
X185173470Y-58337245D01*
X185166050Y-58396224D01*
X185327936Y-58389445D01*
X185454495Y-58387813D01*
X185605951Y-58394194D01*
X185754396Y-58408777D01*
X185890578Y-58430882D01*
X185955245Y-58445821D01*
X186087490Y-58488741D01*
X186209762Y-58545340D01*
X186319685Y-58614017D01*
X186414883Y-58693170D01*
X186492980Y-58781196D01*
X186551599Y-58876493D01*
X186575595Y-58928864D01*
X186601232Y-58999590D01*
X186617478Y-59070812D01*
X186625822Y-59149712D01*
X186627690Y-59240282D01*
X186627755Y-59243467D01*
X186627261Y-59277363D01*
G36*
X187888711Y-56562033D02*
G01*
X187984268Y-56579523D01*
X188148558Y-56624564D01*
X188302589Y-56687656D01*
X188448509Y-56769915D01*
X188588466Y-56872457D01*
X188724608Y-56996399D01*
X188768473Y-57041661D01*
X188880758Y-57173865D01*
X188973972Y-57311832D01*
X189050719Y-57459750D01*
X189113603Y-57621803D01*
X189117420Y-57633391D01*
X189167507Y-57819392D01*
X189200899Y-58015521D01*
X189217584Y-58217568D01*
X189217551Y-58421325D01*
X189200791Y-58622581D01*
X189167292Y-58817128D01*
X189117044Y-59000756D01*
X189073190Y-59118053D01*
X188995348Y-59280951D01*
X188901828Y-59434866D01*
X188794822Y-59576671D01*
X188676519Y-59703239D01*
X188549111Y-59811441D01*
X188471606Y-59864120D01*
X188344725Y-59933750D01*
X188207243Y-59992468D01*
X188065716Y-60037587D01*
X187926702Y-60066422D01*
X187912597Y-60068106D01*
X187869153Y-60071434D01*
X187811723Y-60074275D01*
X187746122Y-60076373D01*
X187678167Y-60077468D01*
X187551378Y-60075140D01*
X187403673Y-60062136D01*
X187265779Y-60037133D01*
X187132014Y-59999318D01*
X187108562Y-59990889D01*
X187060612Y-59971408D01*
X187004140Y-59946473D01*
X186942379Y-59917722D01*
X186878563Y-59886790D01*
X186815926Y-59855315D01*
X186757703Y-59824934D01*
X186707127Y-59797283D01*
X186667433Y-59773999D01*
X186641854Y-59756718D01*
X186633625Y-59747079D01*
X186635076Y-59743984D01*
X186646250Y-59724079D01*
X186667134Y-59688420D01*
X186696265Y-59639459D01*
X186732181Y-59579646D01*
X186773420Y-59511433D01*
X186818517Y-59437271D01*
X186999785Y-59140008D01*
X187046315Y-59184539D01*
X187137723Y-59262865D01*
X187251334Y-59337439D01*
X187369122Y-59391474D01*
X187489559Y-59424290D01*
X187611117Y-59435211D01*
X187652585Y-59433868D01*
X187770080Y-59415612D01*
X187880089Y-59376617D01*
X187981430Y-59317670D01*
X188072921Y-59239557D01*
X188153380Y-59143064D01*
X188221627Y-59028978D01*
X188237908Y-58994724D01*
X188283982Y-58871240D01*
X188319106Y-58732918D01*
X188343197Y-58583561D01*
X188356173Y-58426973D01*
X188357949Y-58266956D01*
X188348443Y-58107314D01*
X188327572Y-57951850D01*
X188295252Y-57804366D01*
X188251399Y-57668667D01*
X188213982Y-57582076D01*
X188149185Y-57468688D01*
X188073772Y-57375070D01*
X187987418Y-57300959D01*
X187889795Y-57246094D01*
X187780577Y-57210212D01*
X187659439Y-57193051D01*
X187590038Y-57191880D01*
X187467168Y-57206141D01*
X187351664Y-57241241D01*
X187244953Y-57296682D01*
X187148464Y-57371964D01*
X187132720Y-57386440D01*
X187102150Y-57412962D01*
X187079809Y-57430138D01*
X187069691Y-57434787D01*
X187067706Y-57432597D01*
X187053241Y-57413721D01*
X187029400Y-57380397D01*
X186998029Y-57335380D01*
X186960974Y-57281425D01*
X186920083Y-57221285D01*
X186877202Y-57157718D01*
X186834178Y-57093476D01*
X186792857Y-57031315D01*
X186755086Y-56973991D01*
X186722712Y-56924257D01*
X186697582Y-56884868D01*
X186681542Y-56858580D01*
X186676439Y-56848147D01*
X186681050Y-56843941D01*
X186700267Y-56838933D01*
X186709838Y-56836386D01*
X186737809Y-56825249D01*
X186779448Y-56806802D01*
X186830995Y-56782725D01*
X186888690Y-56754699D01*
X186899957Y-56749154D01*
X187077687Y-56669889D01*
X187247490Y-56610385D01*
X187411430Y-56570245D01*
X187571571Y-56549071D01*
X187729977Y-56546466D01*
X187888711Y-56562033D01*
G37*
X187888711Y-56562033D02*
X187984268Y-56579523D01*
X188148558Y-56624564D01*
X188302589Y-56687656D01*
X188448509Y-56769915D01*
X188588466Y-56872457D01*
X188724608Y-56996399D01*
X188768473Y-57041661D01*
X188880758Y-57173865D01*
X188973972Y-57311832D01*
X189050719Y-57459750D01*
X189113603Y-57621803D01*
X189117420Y-57633391D01*
X189167507Y-57819392D01*
X189200899Y-58015521D01*
X189217584Y-58217568D01*
X189217551Y-58421325D01*
X189200791Y-58622581D01*
X189167292Y-58817128D01*
X189117044Y-59000756D01*
X189073190Y-59118053D01*
X188995348Y-59280951D01*
X188901828Y-59434866D01*
X188794822Y-59576671D01*
X188676519Y-59703239D01*
X188549111Y-59811441D01*
X188471606Y-59864120D01*
X188344725Y-59933750D01*
X188207243Y-59992468D01*
X188065716Y-60037587D01*
X187926702Y-60066422D01*
X187912597Y-60068106D01*
X187869153Y-60071434D01*
X187811723Y-60074275D01*
X187746122Y-60076373D01*
X187678167Y-60077468D01*
X187551378Y-60075140D01*
X187403673Y-60062136D01*
X187265779Y-60037133D01*
X187132014Y-59999318D01*
X187108562Y-59990889D01*
X187060612Y-59971408D01*
X187004140Y-59946473D01*
X186942379Y-59917722D01*
X186878563Y-59886790D01*
X186815926Y-59855315D01*
X186757703Y-59824934D01*
X186707127Y-59797283D01*
X186667433Y-59773999D01*
X186641854Y-59756718D01*
X186633625Y-59747079D01*
X186635076Y-59743984D01*
X186646250Y-59724079D01*
X186667134Y-59688420D01*
X186696265Y-59639459D01*
X186732181Y-59579646D01*
X186773420Y-59511433D01*
X186818517Y-59437271D01*
X186999785Y-59140008D01*
X187046315Y-59184539D01*
X187137723Y-59262865D01*
X187251334Y-59337439D01*
X187369122Y-59391474D01*
X187489559Y-59424290D01*
X187611117Y-59435211D01*
X187652585Y-59433868D01*
X187770080Y-59415612D01*
X187880089Y-59376617D01*
X187981430Y-59317670D01*
X188072921Y-59239557D01*
X188153380Y-59143064D01*
X188221627Y-59028978D01*
X188237908Y-58994724D01*
X188283982Y-58871240D01*
X188319106Y-58732918D01*
X188343197Y-58583561D01*
X188356173Y-58426973D01*
X188357949Y-58266956D01*
X188348443Y-58107314D01*
X188327572Y-57951850D01*
X188295252Y-57804366D01*
X188251399Y-57668667D01*
X188213982Y-57582076D01*
X188149185Y-57468688D01*
X188073772Y-57375070D01*
X187987418Y-57300959D01*
X187889795Y-57246094D01*
X187780577Y-57210212D01*
X187659439Y-57193051D01*
X187590038Y-57191880D01*
X187467168Y-57206141D01*
X187351664Y-57241241D01*
X187244953Y-57296682D01*
X187148464Y-57371964D01*
X187132720Y-57386440D01*
X187102150Y-57412962D01*
X187079809Y-57430138D01*
X187069691Y-57434787D01*
X187067706Y-57432597D01*
X187053241Y-57413721D01*
X187029400Y-57380397D01*
X186998029Y-57335380D01*
X186960974Y-57281425D01*
X186920083Y-57221285D01*
X186877202Y-57157718D01*
X186834178Y-57093476D01*
X186792857Y-57031315D01*
X186755086Y-56973991D01*
X186722712Y-56924257D01*
X186697582Y-56884868D01*
X186681542Y-56858580D01*
X186676439Y-56848147D01*
X186681050Y-56843941D01*
X186700267Y-56838933D01*
X186709838Y-56836386D01*
X186737809Y-56825249D01*
X186779448Y-56806802D01*
X186830995Y-56782725D01*
X186888690Y-56754699D01*
X186899957Y-56749154D01*
X187077687Y-56669889D01*
X187247490Y-56610385D01*
X187411430Y-56570245D01*
X187571571Y-56549071D01*
X187729977Y-56546466D01*
X187888711Y-56562033D01*
G36*
X194176059Y-56843011D02*
G01*
X194176362Y-56990216D01*
X194176548Y-57154349D01*
X194176642Y-57336352D01*
X194176671Y-57537165D01*
X194176661Y-57757732D01*
X194176636Y-57998992D01*
X194176622Y-58261889D01*
X194176622Y-58304040D01*
X194176646Y-58564668D01*
X194176685Y-58803796D01*
X194176708Y-59022360D01*
X194176687Y-59221295D01*
X194176593Y-59401535D01*
X194176395Y-59564015D01*
X194176063Y-59709670D01*
X194175569Y-59839434D01*
X194174883Y-59954243D01*
X194173976Y-60055030D01*
X194172817Y-60142730D01*
X194171378Y-60218279D01*
X194169629Y-60282611D01*
X194167540Y-60336661D01*
X194165083Y-60381363D01*
X194162227Y-60417652D01*
X194158943Y-60446463D01*
X194155202Y-60468731D01*
X194150974Y-60485390D01*
X194146229Y-60497375D01*
X194140939Y-60505621D01*
X194135073Y-60511062D01*
X194128602Y-60514634D01*
X194121497Y-60517270D01*
X194113728Y-60519906D01*
X194105266Y-60523477D01*
X194100908Y-60525145D01*
X194092395Y-60527111D01*
X194079694Y-60528911D01*
X194061885Y-60530555D01*
X194038049Y-60532047D01*
X194007266Y-60533397D01*
X193968617Y-60534611D01*
X193921182Y-60535697D01*
X193864043Y-60536661D01*
X193796279Y-60537511D01*
X193716971Y-60538253D01*
X193625199Y-60538897D01*
X193520044Y-60539447D01*
X193400587Y-60539913D01*
X193265908Y-60540300D01*
X193115088Y-60540616D01*
X192947206Y-60540869D01*
X192761345Y-60541066D01*
X192556583Y-60541213D01*
X192332002Y-60541318D01*
X192086682Y-60541389D01*
X191819704Y-60541432D01*
X191781321Y-60541437D01*
X191515922Y-60541480D01*
X191272050Y-60541525D01*
X191048783Y-60541548D01*
X190845196Y-60541524D01*
X190660367Y-60541430D01*
X190493373Y-60541243D01*
X190343290Y-60540939D01*
X190209196Y-60540494D01*
X190090166Y-60539885D01*
X189985279Y-60539089D01*
X189893610Y-60538080D01*
X189814237Y-60536837D01*
X189746237Y-60535335D01*
X189688686Y-60533551D01*
X189640662Y-60531461D01*
X189601240Y-60529042D01*
X189569499Y-60526270D01*
X189544514Y-60523121D01*
X189525364Y-60519572D01*
X189511123Y-60515598D01*
X189500871Y-60511178D01*
X189493682Y-60506286D01*
X189488635Y-60500900D01*
X189484805Y-60494996D01*
X189481271Y-60488549D01*
X189477108Y-60481537D01*
X189476025Y-60479687D01*
X189473813Y-60474180D01*
X189471786Y-60465868D01*
X189469938Y-60453809D01*
X189468261Y-60437063D01*
X189466745Y-60414687D01*
X189465383Y-60385740D01*
X189464167Y-60349280D01*
X189463089Y-60304367D01*
X189462140Y-60250057D01*
X189461312Y-60185410D01*
X189460597Y-60109484D01*
X189459987Y-60021338D01*
X189459943Y-60012493D01*
X189751378Y-60012493D01*
X189755260Y-60013765D01*
X189778520Y-60015791D01*
X189820874Y-60017626D01*
X189880132Y-60019227D01*
X189954107Y-60020549D01*
X190040610Y-60021548D01*
X190137452Y-60022180D01*
X190242445Y-60022400D01*
X190940651Y-60022400D01*
X192095090Y-60022400D01*
X192094456Y-59946200D01*
X192095574Y-59904160D01*
X192101304Y-59868334D01*
X192113890Y-59830772D01*
X192135568Y-59782577D01*
X192138789Y-59775897D01*
X192164188Y-59726359D01*
X192190996Y-59678369D01*
X192213917Y-59641466D01*
X192218485Y-59634834D01*
X192240516Y-59603593D01*
X192272693Y-59558654D01*
X192313457Y-59502147D01*
X192361245Y-59436204D01*
X192414498Y-59362957D01*
X192471655Y-59284536D01*
X192531155Y-59203072D01*
X192591437Y-59120698D01*
X192650940Y-59039544D01*
X192708105Y-58961742D01*
X192761370Y-58889423D01*
X192809174Y-58824718D01*
X192849957Y-58769759D01*
X192882158Y-58726676D01*
X192904216Y-58697602D01*
X192914571Y-58684667D01*
X192919044Y-58680351D01*
X192923236Y-58678312D01*
X192926643Y-58680926D01*
X192929325Y-58689986D01*
X192931341Y-58707285D01*
X192932748Y-58734614D01*
X192933605Y-58773765D01*
X192933970Y-58826533D01*
X192933903Y-58894707D01*
X192933460Y-58980082D01*
X192932702Y-59084449D01*
X192931685Y-59209600D01*
X192931308Y-59254300D01*
X192930169Y-59375395D01*
X192928972Y-59476688D01*
X192927636Y-59560262D01*
X192926077Y-59628204D01*
X192924215Y-59682599D01*
X192921966Y-59725532D01*
X192919248Y-59759089D01*
X192915979Y-59785355D01*
X192912078Y-59806416D01*
X192907461Y-59824357D01*
X192899192Y-59850770D01*
X192875583Y-59912772D01*
X192849685Y-59965573D01*
X192824535Y-60002645D01*
X192823339Y-60004075D01*
X192821168Y-60008424D01*
X192823328Y-60012026D01*
X192831644Y-60014951D01*
X192847940Y-60017269D01*
X192874041Y-60019051D01*
X192911771Y-60020367D01*
X192962956Y-60021286D01*
X193029420Y-60021878D01*
X193112987Y-60022215D01*
X193215483Y-60022365D01*
X193338732Y-60022400D01*
X193870296Y-60022400D01*
X193831523Y-59964783D01*
X193825432Y-59955893D01*
X193814976Y-59941069D01*
X193805579Y-59927422D01*
X193797183Y-59913765D01*
X193789733Y-59898911D01*
X193783173Y-59881670D01*
X193777446Y-59860855D01*
X193772495Y-59835280D01*
X193768266Y-59803755D01*
X193764701Y-59765093D01*
X193761744Y-59718107D01*
X193759340Y-59661608D01*
X193757431Y-59594409D01*
X193755962Y-59515322D01*
X193754876Y-59423160D01*
X193754118Y-59316734D01*
X193753630Y-59194857D01*
X193753358Y-59056341D01*
X193753243Y-58899999D01*
X193753231Y-58724642D01*
X193753265Y-58529082D01*
X193753289Y-58312133D01*
X193753280Y-58189513D01*
X193753243Y-57984447D01*
X193753227Y-57800116D01*
X193753288Y-57635334D01*
X193753484Y-57488916D01*
X193753870Y-57359674D01*
X193754505Y-57246422D01*
X193755444Y-57147975D01*
X193756745Y-57063144D01*
X193758464Y-56990744D01*
X193760659Y-56929589D01*
X193763385Y-56878492D01*
X193766701Y-56836267D01*
X193770662Y-56801727D01*
X193775325Y-56773686D01*
X193780747Y-56750958D01*
X193786986Y-56732356D01*
X193794097Y-56716693D01*
X193802138Y-56702784D01*
X193811166Y-56689441D01*
X193821236Y-56675479D01*
X193832407Y-56659711D01*
X193872197Y-56601867D01*
X192812314Y-56601867D01*
X192850311Y-56664966D01*
X192864993Y-56690005D01*
X192879531Y-56717586D01*
X192891627Y-56745700D01*
X192901532Y-56776551D01*
X192909494Y-56812344D01*
X192915761Y-56855283D01*
X192920582Y-56907574D01*
X192924206Y-56971419D01*
X192926881Y-57049025D01*
X192928857Y-57142594D01*
X192930382Y-57254333D01*
X192931704Y-57386445D01*
X192932613Y-57506434D01*
X192933020Y-57623063D01*
X192932767Y-57718531D01*
X192931857Y-57792556D01*
X192930293Y-57844855D01*
X192928079Y-57875149D01*
X192925220Y-57883156D01*
X192922161Y-57879858D01*
X192904006Y-57858408D01*
X192874275Y-57821889D01*
X192834639Y-57772442D01*
X192786771Y-57712207D01*
X192732343Y-57643327D01*
X192673027Y-57567943D01*
X192610495Y-57488196D01*
X192546421Y-57406228D01*
X192482475Y-57324180D01*
X192420331Y-57244194D01*
X192361661Y-57168411D01*
X192308137Y-57098973D01*
X192261430Y-57038021D01*
X192223214Y-56987696D01*
X192195161Y-56950140D01*
X192178943Y-56927495D01*
X192133635Y-56855212D01*
X192093661Y-56775463D01*
X192072130Y-56707188D01*
X192068827Y-56649844D01*
X192074116Y-56601867D01*
X190942356Y-56602117D01*
X190981867Y-56632722D01*
X190991248Y-56640089D01*
X191054183Y-56694438D01*
X191122997Y-56762259D01*
X191199596Y-56845516D01*
X191285888Y-56946178D01*
X191303052Y-56966847D01*
X191343833Y-57016409D01*
X191393588Y-57077326D01*
X191450955Y-57147898D01*
X191514569Y-57226424D01*
X191583069Y-57311204D01*
X191655090Y-57400537D01*
X191729270Y-57492722D01*
X191744517Y-57511702D01*
X191804246Y-57586060D01*
X191878653Y-57678848D01*
X191951131Y-57769388D01*
X192020314Y-57855978D01*
X192084841Y-57936918D01*
X192143347Y-58010506D01*
X192194470Y-58075044D01*
X192236847Y-58128829D01*
X192269115Y-58170162D01*
X192289910Y-58197342D01*
X192297869Y-58208668D01*
X192296111Y-58212771D01*
X192283230Y-58233334D01*
X192258885Y-58269561D01*
X192224247Y-58319824D01*
X192180486Y-58382492D01*
X192128775Y-58455936D01*
X192070284Y-58538527D01*
X192006184Y-58628636D01*
X191937646Y-58724631D01*
X191865843Y-58824885D01*
X191791944Y-58927768D01*
X191717121Y-59031650D01*
X191642545Y-59134901D01*
X191569387Y-59235892D01*
X191498819Y-59332994D01*
X191432011Y-59424577D01*
X191370135Y-59509011D01*
X191314361Y-59584667D01*
X191265862Y-59649916D01*
X191225807Y-59703128D01*
X191195369Y-59742673D01*
X191174944Y-59768026D01*
X191128899Y-59822295D01*
X191078612Y-59878775D01*
X191031815Y-59928669D01*
X190940651Y-60022400D01*
X190242445Y-60022400D01*
X190311356Y-60022349D01*
X190409607Y-60022091D01*
X190499030Y-60021637D01*
X190577333Y-60021010D01*
X190642223Y-60020235D01*
X190691411Y-60019335D01*
X190722604Y-60018334D01*
X190733511Y-60017257D01*
X190732322Y-60014037D01*
X190722176Y-59996452D01*
X190705040Y-59970158D01*
X190696540Y-59957691D01*
X190687329Y-59943622D01*
X190679233Y-59929351D01*
X190672185Y-59913479D01*
X190666117Y-59894609D01*
X190660961Y-59871341D01*
X190656651Y-59842278D01*
X190653119Y-59806021D01*
X190650297Y-59761170D01*
X190648118Y-59706328D01*
X190646514Y-59640097D01*
X190645419Y-59561077D01*
X190644765Y-59467871D01*
X190644484Y-59359079D01*
X190644509Y-59233303D01*
X190644772Y-59089145D01*
X190645206Y-58925207D01*
X190645745Y-58740089D01*
X190646279Y-58561232D01*
X190646805Y-58402374D01*
X190647350Y-58263316D01*
X190647945Y-58142665D01*
X190648619Y-58039028D01*
X190649403Y-57951011D01*
X190650326Y-57877223D01*
X190651419Y-57816269D01*
X190652712Y-57766757D01*
X190654235Y-57727293D01*
X190656019Y-57696484D01*
X190658092Y-57672938D01*
X190660486Y-57655260D01*
X190663230Y-57642059D01*
X190666356Y-57631940D01*
X190669892Y-57623511D01*
X190673791Y-57615375D01*
X190693438Y-57578544D01*
X190712225Y-57548391D01*
X190713272Y-57546908D01*
X190727602Y-57524659D01*
X190733511Y-57511702D01*
X190732504Y-57511249D01*
X190715305Y-57509803D01*
X190678656Y-57508480D01*
X190624962Y-57507316D01*
X190556630Y-57506347D01*
X190476064Y-57505611D01*
X190385670Y-57505142D01*
X190287853Y-57504978D01*
X189842195Y-57504978D01*
X189839120Y-58681845D01*
X189836045Y-59858711D01*
X189809407Y-59917622D01*
X189797485Y-59942183D01*
X189780246Y-59972434D01*
X189767074Y-59989560D01*
X189759076Y-59997591D01*
X189751378Y-60012493D01*
X189459943Y-60012493D01*
X189459474Y-59920029D01*
X189459050Y-59804617D01*
X189458706Y-59674160D01*
X189458434Y-59527716D01*
X189458227Y-59364344D01*
X189458076Y-59183101D01*
X189457972Y-58983048D01*
X189457908Y-58763241D01*
X189457876Y-58522739D01*
X189457867Y-58260602D01*
X189457867Y-56069031D01*
X189496249Y-56030649D01*
X189523355Y-56006911D01*
X189550253Y-55995111D01*
X189586560Y-55992267D01*
X189638489Y-55992267D01*
X189638489Y-56080206D01*
X189640427Y-56130102D01*
X189659199Y-56240523D01*
X189696217Y-56341987D01*
X189749369Y-56433152D01*
X189816546Y-56512673D01*
X189895638Y-56579205D01*
X189984534Y-56631406D01*
X190081125Y-56667930D01*
X190183300Y-56687434D01*
X190288950Y-56688573D01*
X190395964Y-56670005D01*
X190502232Y-56630384D01*
X190599219Y-56572516D01*
X190684293Y-56497684D01*
X190753015Y-56409615D01*
X190803918Y-56310616D01*
X190835535Y-56202993D01*
X190846400Y-56089054D01*
X190846400Y-55992267D01*
X192466753Y-55992267D01*
X192677897Y-55992280D01*
X192882020Y-55992330D01*
X193065686Y-55992430D01*
X193229991Y-55992592D01*
X193376029Y-55992829D01*
X193504894Y-55993153D01*
X193617683Y-55993575D01*
X193715488Y-55994109D01*
X193799404Y-55994767D01*
X193870527Y-55995561D01*
X193929950Y-55996504D01*
X193978768Y-55997608D01*
X194018077Y-55998884D01*
X194048969Y-56000347D01*
X194072541Y-56002007D01*
X194089886Y-56003878D01*
X194102099Y-56005972D01*
X194110275Y-56008300D01*
X194115508Y-56010876D01*
X194121504Y-56014445D01*
X194128279Y-56017978D01*
X194134478Y-56021488D01*
X194140126Y-56025918D01*
X194145247Y-56032208D01*
X194149869Y-56041301D01*
X194154015Y-56054139D01*
X194157713Y-56071662D01*
X194160987Y-56094813D01*
X194163863Y-56124534D01*
X194166367Y-56161765D01*
X194168524Y-56207449D01*
X194170360Y-56262527D01*
X194171900Y-56327941D01*
X194173170Y-56404633D01*
X194174195Y-56493544D01*
X194175001Y-56595617D01*
X194175034Y-56601867D01*
X194175614Y-56711792D01*
X194176059Y-56843011D01*
G37*
X194176059Y-56843011D02*
X194176362Y-56990216D01*
X194176548Y-57154349D01*
X194176642Y-57336352D01*
X194176671Y-57537165D01*
X194176661Y-57757732D01*
X194176636Y-57998992D01*
X194176622Y-58261889D01*
X194176622Y-58304040D01*
X194176646Y-58564668D01*
X194176685Y-58803796D01*
X194176708Y-59022360D01*
X194176687Y-59221295D01*
X194176593Y-59401535D01*
X194176395Y-59564015D01*
X194176063Y-59709670D01*
X194175569Y-59839434D01*
X194174883Y-59954243D01*
X194173976Y-60055030D01*
X194172817Y-60142730D01*
X194171378Y-60218279D01*
X194169629Y-60282611D01*
X194167540Y-60336661D01*
X194165083Y-60381363D01*
X194162227Y-60417652D01*
X194158943Y-60446463D01*
X194155202Y-60468731D01*
X194150974Y-60485390D01*
X194146229Y-60497375D01*
X194140939Y-60505621D01*
X194135073Y-60511062D01*
X194128602Y-60514634D01*
X194121497Y-60517270D01*
X194113728Y-60519906D01*
X194105266Y-60523477D01*
X194100908Y-60525145D01*
X194092395Y-60527111D01*
X194079694Y-60528911D01*
X194061885Y-60530555D01*
X194038049Y-60532047D01*
X194007266Y-60533397D01*
X193968617Y-60534611D01*
X193921182Y-60535697D01*
X193864043Y-60536661D01*
X193796279Y-60537511D01*
X193716971Y-60538253D01*
X193625199Y-60538897D01*
X193520044Y-60539447D01*
X193400587Y-60539913D01*
X193265908Y-60540300D01*
X193115088Y-60540616D01*
X192947206Y-60540869D01*
X192761345Y-60541066D01*
X192556583Y-60541213D01*
X192332002Y-60541318D01*
X192086682Y-60541389D01*
X191819704Y-60541432D01*
X191781321Y-60541437D01*
X191515922Y-60541480D01*
X191272050Y-60541525D01*
X191048783Y-60541548D01*
X190845196Y-60541524D01*
X190660367Y-60541430D01*
X190493373Y-60541243D01*
X190343290Y-60540939D01*
X190209196Y-60540494D01*
X190090166Y-60539885D01*
X189985279Y-60539089D01*
X189893610Y-60538080D01*
X189814237Y-60536837D01*
X189746237Y-60535335D01*
X189688686Y-60533551D01*
X189640662Y-60531461D01*
X189601240Y-60529042D01*
X189569499Y-60526270D01*
X189544514Y-60523121D01*
X189525364Y-60519572D01*
X189511123Y-60515598D01*
X189500871Y-60511178D01*
X189493682Y-60506286D01*
X189488635Y-60500900D01*
X189484805Y-60494996D01*
X189481271Y-60488549D01*
X189477108Y-60481537D01*
X189476025Y-60479687D01*
X189473813Y-60474180D01*
X189471786Y-60465868D01*
X189469938Y-60453809D01*
X189468261Y-60437063D01*
X189466745Y-60414687D01*
X189465383Y-60385740D01*
X189464167Y-60349280D01*
X189463089Y-60304367D01*
X189462140Y-60250057D01*
X189461312Y-60185410D01*
X189460597Y-60109484D01*
X189459987Y-60021338D01*
X189459943Y-60012493D01*
X189751378Y-60012493D01*
X189755260Y-60013765D01*
X189778520Y-60015791D01*
X189820874Y-60017626D01*
X189880132Y-60019227D01*
X189954107Y-60020549D01*
X190040610Y-60021548D01*
X190137452Y-60022180D01*
X190242445Y-60022400D01*
X190940651Y-60022400D01*
X192095090Y-60022400D01*
X192094456Y-59946200D01*
X192095574Y-59904160D01*
X192101304Y-59868334D01*
X192113890Y-59830772D01*
X192135568Y-59782577D01*
X192138789Y-59775897D01*
X192164188Y-59726359D01*
X192190996Y-59678369D01*
X192213917Y-59641466D01*
X192218485Y-59634834D01*
X192240516Y-59603593D01*
X192272693Y-59558654D01*
X192313457Y-59502147D01*
X192361245Y-59436204D01*
X192414498Y-59362957D01*
X192471655Y-59284536D01*
X192531155Y-59203072D01*
X192591437Y-59120698D01*
X192650940Y-59039544D01*
X192708105Y-58961742D01*
X192761370Y-58889423D01*
X192809174Y-58824718D01*
X192849957Y-58769759D01*
X192882158Y-58726676D01*
X192904216Y-58697602D01*
X192914571Y-58684667D01*
X192919044Y-58680351D01*
X192923236Y-58678312D01*
X192926643Y-58680926D01*
X192929325Y-58689986D01*
X192931341Y-58707285D01*
X192932748Y-58734614D01*
X192933605Y-58773765D01*
X192933970Y-58826533D01*
X192933903Y-58894707D01*
X192933460Y-58980082D01*
X192932702Y-59084449D01*
X192931685Y-59209600D01*
X192931308Y-59254300D01*
X192930169Y-59375395D01*
X192928972Y-59476688D01*
X192927636Y-59560262D01*
X192926077Y-59628204D01*
X192924215Y-59682599D01*
X192921966Y-59725532D01*
X192919248Y-59759089D01*
X192915979Y-59785355D01*
X192912078Y-59806416D01*
X192907461Y-59824357D01*
X192899192Y-59850770D01*
X192875583Y-59912772D01*
X192849685Y-59965573D01*
X192824535Y-60002645D01*
X192823339Y-60004075D01*
X192821168Y-60008424D01*
X192823328Y-60012026D01*
X192831644Y-60014951D01*
X192847940Y-60017269D01*
X192874041Y-60019051D01*
X192911771Y-60020367D01*
X192962956Y-60021286D01*
X193029420Y-60021878D01*
X193112987Y-60022215D01*
X193215483Y-60022365D01*
X193338732Y-60022400D01*
X193870296Y-60022400D01*
X193831523Y-59964783D01*
X193825432Y-59955893D01*
X193814976Y-59941069D01*
X193805579Y-59927422D01*
X193797183Y-59913765D01*
X193789733Y-59898911D01*
X193783173Y-59881670D01*
X193777446Y-59860855D01*
X193772495Y-59835280D01*
X193768266Y-59803755D01*
X193764701Y-59765093D01*
X193761744Y-59718107D01*
X193759340Y-59661608D01*
X193757431Y-59594409D01*
X193755962Y-59515322D01*
X193754876Y-59423160D01*
X193754118Y-59316734D01*
X193753630Y-59194857D01*
X193753358Y-59056341D01*
X193753243Y-58899999D01*
X193753231Y-58724642D01*
X193753265Y-58529082D01*
X193753289Y-58312133D01*
X193753280Y-58189513D01*
X193753243Y-57984447D01*
X193753227Y-57800116D01*
X193753288Y-57635334D01*
X193753484Y-57488916D01*
X193753870Y-57359674D01*
X193754505Y-57246422D01*
X193755444Y-57147975D01*
X193756745Y-57063144D01*
X193758464Y-56990744D01*
X193760659Y-56929589D01*
X193763385Y-56878492D01*
X193766701Y-56836267D01*
X193770662Y-56801727D01*
X193775325Y-56773686D01*
X193780747Y-56750958D01*
X193786986Y-56732356D01*
X193794097Y-56716693D01*
X193802138Y-56702784D01*
X193811166Y-56689441D01*
X193821236Y-56675479D01*
X193832407Y-56659711D01*
X193872197Y-56601867D01*
X192812314Y-56601867D01*
X192850311Y-56664966D01*
X192864993Y-56690005D01*
X192879531Y-56717586D01*
X192891627Y-56745700D01*
X192901532Y-56776551D01*
X192909494Y-56812344D01*
X192915761Y-56855283D01*
X192920582Y-56907574D01*
X192924206Y-56971419D01*
X192926881Y-57049025D01*
X192928857Y-57142594D01*
X192930382Y-57254333D01*
X192931704Y-57386445D01*
X192932613Y-57506434D01*
X192933020Y-57623063D01*
X192932767Y-57718531D01*
X192931857Y-57792556D01*
X192930293Y-57844855D01*
X192928079Y-57875149D01*
X192925220Y-57883156D01*
X192922161Y-57879858D01*
X192904006Y-57858408D01*
X192874275Y-57821889D01*
X192834639Y-57772442D01*
X192786771Y-57712207D01*
X192732343Y-57643327D01*
X192673027Y-57567943D01*
X192610495Y-57488196D01*
X192546421Y-57406228D01*
X192482475Y-57324180D01*
X192420331Y-57244194D01*
X192361661Y-57168411D01*
X192308137Y-57098973D01*
X192261430Y-57038021D01*
X192223214Y-56987696D01*
X192195161Y-56950140D01*
X192178943Y-56927495D01*
X192133635Y-56855212D01*
X192093661Y-56775463D01*
X192072130Y-56707188D01*
X192068827Y-56649844D01*
X192074116Y-56601867D01*
X190942356Y-56602117D01*
X190981867Y-56632722D01*
X190991248Y-56640089D01*
X191054183Y-56694438D01*
X191122997Y-56762259D01*
X191199596Y-56845516D01*
X191285888Y-56946178D01*
X191303052Y-56966847D01*
X191343833Y-57016409D01*
X191393588Y-57077326D01*
X191450955Y-57147898D01*
X191514569Y-57226424D01*
X191583069Y-57311204D01*
X191655090Y-57400537D01*
X191729270Y-57492722D01*
X191744517Y-57511702D01*
X191804246Y-57586060D01*
X191878653Y-57678848D01*
X191951131Y-57769388D01*
X192020314Y-57855978D01*
X192084841Y-57936918D01*
X192143347Y-58010506D01*
X192194470Y-58075044D01*
X192236847Y-58128829D01*
X192269115Y-58170162D01*
X192289910Y-58197342D01*
X192297869Y-58208668D01*
X192296111Y-58212771D01*
X192283230Y-58233334D01*
X192258885Y-58269561D01*
X192224247Y-58319824D01*
X192180486Y-58382492D01*
X192128775Y-58455936D01*
X192070284Y-58538527D01*
X192006184Y-58628636D01*
X191937646Y-58724631D01*
X191865843Y-58824885D01*
X191791944Y-58927768D01*
X191717121Y-59031650D01*
X191642545Y-59134901D01*
X191569387Y-59235892D01*
X191498819Y-59332994D01*
X191432011Y-59424577D01*
X191370135Y-59509011D01*
X191314361Y-59584667D01*
X191265862Y-59649916D01*
X191225807Y-59703128D01*
X191195369Y-59742673D01*
X191174944Y-59768026D01*
X191128899Y-59822295D01*
X191078612Y-59878775D01*
X191031815Y-59928669D01*
X190940651Y-60022400D01*
X190242445Y-60022400D01*
X190311356Y-60022349D01*
X190409607Y-60022091D01*
X190499030Y-60021637D01*
X190577333Y-60021010D01*
X190642223Y-60020235D01*
X190691411Y-60019335D01*
X190722604Y-60018334D01*
X190733511Y-60017257D01*
X190732322Y-60014037D01*
X190722176Y-59996452D01*
X190705040Y-59970158D01*
X190696540Y-59957691D01*
X190687329Y-59943622D01*
X190679233Y-59929351D01*
X190672185Y-59913479D01*
X190666117Y-59894609D01*
X190660961Y-59871341D01*
X190656651Y-59842278D01*
X190653119Y-59806021D01*
X190650297Y-59761170D01*
X190648118Y-59706328D01*
X190646514Y-59640097D01*
X190645419Y-59561077D01*
X190644765Y-59467871D01*
X190644484Y-59359079D01*
X190644509Y-59233303D01*
X190644772Y-59089145D01*
X190645206Y-58925207D01*
X190645745Y-58740089D01*
X190646279Y-58561232D01*
X190646805Y-58402374D01*
X190647350Y-58263316D01*
X190647945Y-58142665D01*
X190648619Y-58039028D01*
X190649403Y-57951011D01*
X190650326Y-57877223D01*
X190651419Y-57816269D01*
X190652712Y-57766757D01*
X190654235Y-57727293D01*
X190656019Y-57696484D01*
X190658092Y-57672938D01*
X190660486Y-57655260D01*
X190663230Y-57642059D01*
X190666356Y-57631940D01*
X190669892Y-57623511D01*
X190673791Y-57615375D01*
X190693438Y-57578544D01*
X190712225Y-57548391D01*
X190713272Y-57546908D01*
X190727602Y-57524659D01*
X190733511Y-57511702D01*
X190732504Y-57511249D01*
X190715305Y-57509803D01*
X190678656Y-57508480D01*
X190624962Y-57507316D01*
X190556630Y-57506347D01*
X190476064Y-57505611D01*
X190385670Y-57505142D01*
X190287853Y-57504978D01*
X189842195Y-57504978D01*
X189839120Y-58681845D01*
X189836045Y-59858711D01*
X189809407Y-59917622D01*
X189797485Y-59942183D01*
X189780246Y-59972434D01*
X189767074Y-59989560D01*
X189759076Y-59997591D01*
X189751378Y-60012493D01*
X189459943Y-60012493D01*
X189459474Y-59920029D01*
X189459050Y-59804617D01*
X189458706Y-59674160D01*
X189458434Y-59527716D01*
X189458227Y-59364344D01*
X189458076Y-59183101D01*
X189457972Y-58983048D01*
X189457908Y-58763241D01*
X189457876Y-58522739D01*
X189457867Y-58260602D01*
X189457867Y-56069031D01*
X189496249Y-56030649D01*
X189523355Y-56006911D01*
X189550253Y-55995111D01*
X189586560Y-55992267D01*
X189638489Y-55992267D01*
X189638489Y-56080206D01*
X189640427Y-56130102D01*
X189659199Y-56240523D01*
X189696217Y-56341987D01*
X189749369Y-56433152D01*
X189816546Y-56512673D01*
X189895638Y-56579205D01*
X189984534Y-56631406D01*
X190081125Y-56667930D01*
X190183300Y-56687434D01*
X190288950Y-56688573D01*
X190395964Y-56670005D01*
X190502232Y-56630384D01*
X190599219Y-56572516D01*
X190684293Y-56497684D01*
X190753015Y-56409615D01*
X190803918Y-56310616D01*
X190835535Y-56202993D01*
X190846400Y-56089054D01*
X190846400Y-55992267D01*
X192466753Y-55992267D01*
X192677897Y-55992280D01*
X192882020Y-55992330D01*
X193065686Y-55992430D01*
X193229991Y-55992592D01*
X193376029Y-55992829D01*
X193504894Y-55993153D01*
X193617683Y-55993575D01*
X193715488Y-55994109D01*
X193799404Y-55994767D01*
X193870527Y-55995561D01*
X193929950Y-55996504D01*
X193978768Y-55997608D01*
X194018077Y-55998884D01*
X194048969Y-56000347D01*
X194072541Y-56002007D01*
X194089886Y-56003878D01*
X194102099Y-56005972D01*
X194110275Y-56008300D01*
X194115508Y-56010876D01*
X194121504Y-56014445D01*
X194128279Y-56017978D01*
X194134478Y-56021488D01*
X194140126Y-56025918D01*
X194145247Y-56032208D01*
X194149869Y-56041301D01*
X194154015Y-56054139D01*
X194157713Y-56071662D01*
X194160987Y-56094813D01*
X194163863Y-56124534D01*
X194166367Y-56161765D01*
X194168524Y-56207449D01*
X194170360Y-56262527D01*
X194171900Y-56327941D01*
X194173170Y-56404633D01*
X194174195Y-56493544D01*
X194175001Y-56595617D01*
X194175034Y-56601867D01*
X194175614Y-56711792D01*
X194176059Y-56843011D01*
G36*
X152567652Y-69946565D02*
G01*
X152608438Y-69973854D01*
X152641984Y-70016027D01*
X152664727Y-70070419D01*
X152673100Y-70134366D01*
X152669011Y-70178587D01*
X152651213Y-70216465D01*
X152615950Y-70244034D01*
X152605719Y-70249113D01*
X152557966Y-70258645D01*
X152514293Y-70244102D01*
X152476516Y-70206525D01*
X152446451Y-70146953D01*
X152427185Y-70085657D01*
X152420221Y-70035464D01*
X152427746Y-69997591D01*
X152449846Y-69967543D01*
X152478630Y-69947295D01*
X152523195Y-69936824D01*
X152567652Y-69946565D01*
G37*
X152567652Y-69946565D02*
X152608438Y-69973854D01*
X152641984Y-70016027D01*
X152664727Y-70070419D01*
X152673100Y-70134366D01*
X152669011Y-70178587D01*
X152651213Y-70216465D01*
X152615950Y-70244034D01*
X152605719Y-70249113D01*
X152557966Y-70258645D01*
X152514293Y-70244102D01*
X152476516Y-70206525D01*
X152446451Y-70146953D01*
X152427185Y-70085657D01*
X152420221Y-70035464D01*
X152427746Y-69997591D01*
X152449846Y-69967543D01*
X152478630Y-69947295D01*
X152523195Y-69936824D01*
X152567652Y-69946565D01*
G36*
X151730228Y-69955038D02*
G01*
X151769999Y-69973499D01*
X151798558Y-70004894D01*
X151809500Y-70046884D01*
X151804791Y-70087314D01*
X151790338Y-70138560D01*
X151769446Y-70188445D01*
X151745492Y-70229047D01*
X151721855Y-70252442D01*
X151694695Y-70264683D01*
X151652925Y-70269064D01*
X151607209Y-70252819D01*
X151592950Y-70244674D01*
X151569790Y-70222823D01*
X151558484Y-70191154D01*
X151555500Y-70142105D01*
X151559332Y-70102471D01*
X151583093Y-70035237D01*
X151625061Y-69979571D01*
X151642664Y-69966263D01*
X151685649Y-69951846D01*
X151730228Y-69955038D01*
G37*
X151730228Y-69955038D02*
X151769999Y-69973499D01*
X151798558Y-70004894D01*
X151809500Y-70046884D01*
X151804791Y-70087314D01*
X151790338Y-70138560D01*
X151769446Y-70188445D01*
X151745492Y-70229047D01*
X151721855Y-70252442D01*
X151694695Y-70264683D01*
X151652925Y-70269064D01*
X151607209Y-70252819D01*
X151592950Y-70244674D01*
X151569790Y-70222823D01*
X151558484Y-70191154D01*
X151555500Y-70142105D01*
X151559332Y-70102471D01*
X151583093Y-70035237D01*
X151625061Y-69979571D01*
X151642664Y-69966263D01*
X151685649Y-69951846D01*
X151730228Y-69955038D01*
G36*
X150577600Y-71115950D02*
G01*
X150571250Y-71122300D01*
X150564900Y-71115950D01*
X150571250Y-71109600D01*
X150577600Y-71115950D01*
G37*
X150577600Y-71115950D02*
X150571250Y-71122300D01*
X150564900Y-71115950D01*
X150571250Y-71109600D01*
X150577600Y-71115950D01*
G36*
X150570216Y-71201679D02*
G01*
X150577600Y-71216491D01*
X150574987Y-71226374D01*
X150557492Y-71236600D01*
X150543616Y-71229269D01*
X150545748Y-71214051D01*
X150562519Y-71201410D01*
X150570216Y-71201679D01*
G37*
X150570216Y-71201679D02*
X150577600Y-71216491D01*
X150574987Y-71226374D01*
X150557492Y-71236600D01*
X150543616Y-71229269D01*
X150545748Y-71214051D01*
X150562519Y-71201410D01*
X150570216Y-71201679D01*
G36*
X150567282Y-71253324D02*
G01*
X150573160Y-71257895D01*
X150559609Y-71260997D01*
X150546728Y-71260099D01*
X150542940Y-71254327D01*
X150547433Y-71251810D01*
X150567282Y-71253324D01*
G37*
X150567282Y-71253324D02*
X150573160Y-71257895D01*
X150559609Y-71260997D01*
X150546728Y-71260099D01*
X150542940Y-71254327D01*
X150547433Y-71251810D01*
X150567282Y-71253324D01*
G36*
X150554614Y-71276132D02*
G01*
X150564900Y-71287400D01*
X150562751Y-71293242D01*
X150545850Y-71300100D01*
X150537087Y-71298667D01*
X150526800Y-71287400D01*
X150528950Y-71281557D01*
X150545850Y-71274700D01*
X150554614Y-71276132D01*
G37*
X150554614Y-71276132D02*
X150564900Y-71287400D01*
X150562751Y-71293242D01*
X150545850Y-71300100D01*
X150537087Y-71298667D01*
X150526800Y-71287400D01*
X150528950Y-71281557D01*
X150545850Y-71274700D01*
X150554614Y-71276132D01*
G36*
X153146459Y-70773071D02*
G01*
X153187681Y-70797967D01*
X153213118Y-70836850D01*
X153219748Y-70884528D01*
X153204553Y-70935809D01*
X153184235Y-70970440D01*
X153127542Y-71047367D01*
X153054563Y-71128508D01*
X152969891Y-71209617D01*
X152878121Y-71286443D01*
X152783844Y-71354738D01*
X152691655Y-71410253D01*
X152655826Y-71428038D01*
X152570621Y-71463924D01*
X152473589Y-71498450D01*
X152373263Y-71528914D01*
X152278173Y-71552618D01*
X152196850Y-71566859D01*
X152178921Y-71568598D01*
X152128774Y-71571728D01*
X152063103Y-71574417D01*
X151988386Y-71576424D01*
X151911100Y-71577507D01*
X151875971Y-71577568D01*
X151757001Y-71573966D01*
X151654295Y-71563347D01*
X151561093Y-71544434D01*
X151470634Y-71515953D01*
X151376157Y-71476629D01*
X151337641Y-71458792D01*
X151268492Y-71424742D01*
X151214045Y-71393690D01*
X151168110Y-71361510D01*
X151124497Y-71324079D01*
X151077017Y-71277271D01*
X151022019Y-71217436D01*
X150978695Y-71160606D01*
X150953840Y-71112865D01*
X150945900Y-71071778D01*
X150945910Y-71070894D01*
X150957513Y-71037105D01*
X150985749Y-71004389D01*
X151022799Y-70979677D01*
X151060843Y-70969900D01*
X151061151Y-70969900D01*
X151081049Y-70972508D01*
X151102050Y-70982199D01*
X151128091Y-71001951D01*
X151163110Y-71034746D01*
X151211045Y-71083563D01*
X151260082Y-71133247D01*
X151301351Y-71170948D01*
X151339407Y-71199385D01*
X151381080Y-71223637D01*
X151433197Y-71248781D01*
X151493999Y-71274885D01*
X151608084Y-71313667D01*
X151724577Y-71338820D01*
X151848597Y-71351000D01*
X151985264Y-71350859D01*
X152139700Y-71339052D01*
X152162043Y-71336178D01*
X152237633Y-71321615D01*
X152324874Y-71299480D01*
X152415417Y-71272219D01*
X152500910Y-71242278D01*
X152573004Y-71212104D01*
X152605878Y-71194626D01*
X152669046Y-71153972D01*
X152738154Y-71102943D01*
X152806454Y-71046905D01*
X152867196Y-70991223D01*
X152913634Y-70941264D01*
X152916186Y-70938141D01*
X152953411Y-70892528D01*
X152989510Y-70848193D01*
X153017000Y-70814325D01*
X153018172Y-70812880D01*
X153045735Y-70783416D01*
X153071510Y-70769927D01*
X153106195Y-70766700D01*
X153146459Y-70773071D01*
G37*
X153146459Y-70773071D02*
X153187681Y-70797967D01*
X153213118Y-70836850D01*
X153219748Y-70884528D01*
X153204553Y-70935809D01*
X153184235Y-70970440D01*
X153127542Y-71047367D01*
X153054563Y-71128508D01*
X152969891Y-71209617D01*
X152878121Y-71286443D01*
X152783844Y-71354738D01*
X152691655Y-71410253D01*
X152655826Y-71428038D01*
X152570621Y-71463924D01*
X152473589Y-71498450D01*
X152373263Y-71528914D01*
X152278173Y-71552618D01*
X152196850Y-71566859D01*
X152178921Y-71568598D01*
X152128774Y-71571728D01*
X152063103Y-71574417D01*
X151988386Y-71576424D01*
X151911100Y-71577507D01*
X151875971Y-71577568D01*
X151757001Y-71573966D01*
X151654295Y-71563347D01*
X151561093Y-71544434D01*
X151470634Y-71515953D01*
X151376157Y-71476629D01*
X151337641Y-71458792D01*
X151268492Y-71424742D01*
X151214045Y-71393690D01*
X151168110Y-71361510D01*
X151124497Y-71324079D01*
X151077017Y-71277271D01*
X151022019Y-71217436D01*
X150978695Y-71160606D01*
X150953840Y-71112865D01*
X150945900Y-71071778D01*
X150945910Y-71070894D01*
X150957513Y-71037105D01*
X150985749Y-71004389D01*
X151022799Y-70979677D01*
X151060843Y-70969900D01*
X151061151Y-70969900D01*
X151081049Y-70972508D01*
X151102050Y-70982199D01*
X151128091Y-71001951D01*
X151163110Y-71034746D01*
X151211045Y-71083563D01*
X151260082Y-71133247D01*
X151301351Y-71170948D01*
X151339407Y-71199385D01*
X151381080Y-71223637D01*
X151433197Y-71248781D01*
X151493999Y-71274885D01*
X151608084Y-71313667D01*
X151724577Y-71338820D01*
X151848597Y-71351000D01*
X151985264Y-71350859D01*
X152139700Y-71339052D01*
X152162043Y-71336178D01*
X152237633Y-71321615D01*
X152324874Y-71299480D01*
X152415417Y-71272219D01*
X152500910Y-71242278D01*
X152573004Y-71212104D01*
X152605878Y-71194626D01*
X152669046Y-71153972D01*
X152738154Y-71102943D01*
X152806454Y-71046905D01*
X152867196Y-70991223D01*
X152913634Y-70941264D01*
X152916186Y-70938141D01*
X152953411Y-70892528D01*
X152989510Y-70848193D01*
X153017000Y-70814325D01*
X153018172Y-70812880D01*
X153045735Y-70783416D01*
X153071510Y-70769927D01*
X153106195Y-70766700D01*
X153146459Y-70773071D01*
G36*
X151730641Y-69235094D02*
G01*
X151684887Y-69262605D01*
X151647557Y-69287731D01*
X151625707Y-69305806D01*
X151607468Y-69320139D01*
X151583190Y-69330117D01*
X151561847Y-69332623D01*
X151550318Y-69326995D01*
X151555483Y-69312570D01*
X151557676Y-69309877D01*
X151562547Y-69300652D01*
X151551983Y-69301082D01*
X151521876Y-69310970D01*
X151518183Y-69312303D01*
X151471749Y-69332269D01*
X151428263Y-69355352D01*
X151419724Y-69360348D01*
X151387245Y-69376015D01*
X151364131Y-69382352D01*
X151343013Y-69384396D01*
X151302073Y-69394403D01*
X151259789Y-69409755D01*
X151224927Y-69427083D01*
X151206250Y-69443020D01*
X151199885Y-69454187D01*
X151180901Y-69485692D01*
X151157708Y-69522836D01*
X151156495Y-69524749D01*
X151131328Y-69565386D01*
X151100289Y-69616730D01*
X151069811Y-69668150D01*
X151069381Y-69668883D01*
X151036709Y-69722190D01*
X151001080Y-69776638D01*
X150970131Y-69820550D01*
X150937155Y-69871439D01*
X150896514Y-69949130D01*
X150854038Y-70044023D01*
X150811342Y-70152011D01*
X150770038Y-70268982D01*
X150731741Y-70390829D01*
X150698062Y-70513442D01*
X150681550Y-70580495D01*
X150671014Y-70628659D01*
X150667230Y-70655619D01*
X150669978Y-70662993D01*
X150679035Y-70652400D01*
X150683138Y-70647377D01*
X150686977Y-70653881D01*
X150684505Y-70684150D01*
X150678689Y-70727229D01*
X150671670Y-70772999D01*
X150665741Y-70800511D01*
X150659920Y-70813950D01*
X150653225Y-70817500D01*
X150647270Y-70828180D01*
X150642807Y-70857829D01*
X150641100Y-70899792D01*
X150639471Y-70936538D01*
X150632107Y-70990773D01*
X150620672Y-71033142D01*
X150618470Y-71038482D01*
X150602596Y-71068781D01*
X150589179Y-71083088D01*
X150581591Y-71079377D01*
X150583209Y-71055625D01*
X150587071Y-71036563D01*
X150594732Y-70996930D01*
X150603375Y-70950850D01*
X150610003Y-70916104D01*
X150618353Y-70875247D01*
X150624353Y-70849250D01*
X150626503Y-70833211D01*
X150617613Y-70836699D01*
X150614861Y-70841598D01*
X150605395Y-70868095D01*
X150591551Y-70913756D01*
X150574383Y-70974888D01*
X150554944Y-71047799D01*
X150534287Y-71128799D01*
X150528552Y-71151790D01*
X150499607Y-71268325D01*
X150475809Y-71365981D01*
X150456240Y-71449639D01*
X150439983Y-71524181D01*
X150426123Y-71594486D01*
X150413743Y-71665438D01*
X150401925Y-71741917D01*
X150389754Y-71828804D01*
X150376313Y-71930980D01*
X150360686Y-72053327D01*
X150352485Y-72120873D01*
X150345600Y-72184941D01*
X150341424Y-72233045D01*
X150339953Y-72263637D01*
X150341182Y-72275167D01*
X150345108Y-72266086D01*
X150351725Y-72234846D01*
X150361031Y-72179897D01*
X150364239Y-72160103D01*
X150375376Y-72095280D01*
X150388544Y-72022521D01*
X150401532Y-71954150D01*
X150411549Y-71900863D01*
X150425363Y-71822809D01*
X150439381Y-71739577D01*
X150451732Y-71662050D01*
X150453835Y-71648390D01*
X150467837Y-71561403D01*
X150479737Y-71496479D01*
X150490278Y-71450834D01*
X150500204Y-71421679D01*
X150510257Y-71406230D01*
X150521182Y-71401700D01*
X150533066Y-71407056D01*
X150533597Y-71430275D01*
X150530125Y-71448327D01*
X150523036Y-71488213D01*
X150513333Y-71544435D01*
X150501810Y-71612384D01*
X150489261Y-71687450D01*
X150483104Y-71724366D01*
X150465974Y-71825788D01*
X150447322Y-71934779D01*
X150429015Y-72040459D01*
X150412923Y-72131950D01*
X150391638Y-72263398D01*
X150368624Y-72436596D01*
X150349434Y-72617045D01*
X150334793Y-72796811D01*
X150325432Y-72967958D01*
X150322076Y-73122550D01*
X150321901Y-73351150D01*
X150211626Y-73346666D01*
X150190144Y-73345729D01*
X150143959Y-73343224D01*
X150111101Y-73340734D01*
X150097598Y-73338681D01*
X150096013Y-73328254D01*
X150093250Y-73296131D01*
X150089741Y-73246389D01*
X150085772Y-73183150D01*
X150081633Y-73110531D01*
X150080617Y-73090208D01*
X150077365Y-72975095D01*
X150077062Y-72843479D01*
X150079528Y-72702613D01*
X150084585Y-72559750D01*
X150092052Y-72422145D01*
X150101751Y-72297050D01*
X150107107Y-72241767D01*
X150117666Y-72142669D01*
X150129925Y-72036813D01*
X150143279Y-71928775D01*
X150157122Y-71823130D01*
X150170846Y-71724454D01*
X150183846Y-71637323D01*
X150195515Y-71566313D01*
X150205246Y-71516000D01*
X150217517Y-71462098D01*
X150235867Y-71383759D01*
X150257456Y-71293249D01*
X150280995Y-71195838D01*
X150305195Y-71096801D01*
X150328767Y-71001408D01*
X150350421Y-70914931D01*
X150368869Y-70842643D01*
X150382820Y-70789815D01*
X150387801Y-70771847D01*
X150396922Y-70739162D01*
X150403520Y-70711661D01*
X150407083Y-70686061D01*
X150407102Y-70659074D01*
X150403064Y-70627418D01*
X150394459Y-70587805D01*
X150380775Y-70536953D01*
X150361502Y-70471574D01*
X150336128Y-70388385D01*
X150304143Y-70284100D01*
X150264985Y-70155438D01*
X150227731Y-70031082D01*
X150196625Y-69924424D01*
X150170772Y-69832049D01*
X150149274Y-69750545D01*
X150131235Y-69676497D01*
X150115756Y-69606491D01*
X150101941Y-69537113D01*
X150088892Y-69464950D01*
X150064356Y-69321753D01*
X150038735Y-69166241D01*
X150017744Y-69030033D01*
X150001064Y-68910071D01*
X149988376Y-68803292D01*
X149979360Y-68706637D01*
X149973698Y-68617046D01*
X149971069Y-68531457D01*
X149971156Y-68446812D01*
X149971745Y-68426190D01*
X150206847Y-68426190D01*
X150208272Y-68521947D01*
X150211143Y-68619329D01*
X150215410Y-68713970D01*
X150221023Y-68801507D01*
X150227930Y-68877575D01*
X150234255Y-68932068D01*
X150242602Y-68995107D01*
X150250449Y-69045242D01*
X150257137Y-69078348D01*
X150262005Y-69090300D01*
X150266738Y-69097802D01*
X150271112Y-69124533D01*
X150272800Y-69163960D01*
X150273996Y-69195974D01*
X150278702Y-69231563D01*
X150285758Y-69250577D01*
X150290224Y-69260049D01*
X150299833Y-69291535D01*
X150312396Y-69340336D01*
X150326794Y-69402029D01*
X150341905Y-69472192D01*
X150345991Y-69491769D01*
X150366671Y-69587535D01*
X150390467Y-69693616D01*
X150414750Y-69798431D01*
X150436888Y-69890400D01*
X150448079Y-69935312D01*
X150467262Y-70010811D01*
X150485330Y-70080228D01*
X150500661Y-70137361D01*
X150511631Y-70176010D01*
X150534580Y-70252071D01*
X150570664Y-70137910D01*
X150594266Y-70069665D01*
X150631033Y-69977668D01*
X150672992Y-69884252D01*
X150717062Y-69795867D01*
X150760157Y-69718960D01*
X150799196Y-69659980D01*
X150832503Y-69612372D01*
X150871200Y-69551175D01*
X150903782Y-69493938D01*
X150949155Y-69419257D01*
X151007508Y-69344051D01*
X151070261Y-69280378D01*
X151131741Y-69234687D01*
X151151187Y-69222228D01*
X151177063Y-69201040D01*
X151187200Y-69185527D01*
X151180510Y-69170180D01*
X151156536Y-69136942D01*
X151116113Y-69088198D01*
X151060252Y-69025067D01*
X150989966Y-68948663D01*
X150906266Y-68860103D01*
X150810163Y-68760502D01*
X150702668Y-68650978D01*
X150655767Y-68603338D01*
X150573163Y-68518049D01*
X150508655Y-68449289D01*
X150462391Y-68397224D01*
X150434523Y-68362021D01*
X150425200Y-68343846D01*
X150425198Y-68343344D01*
X150417227Y-68322216D01*
X150390275Y-68313268D01*
X150366744Y-68306178D01*
X150355350Y-68290040D01*
X150354588Y-68286027D01*
X150343269Y-68262316D01*
X150321224Y-68226487D01*
X150292092Y-68184606D01*
X150261365Y-68143140D01*
X150242076Y-68119625D01*
X150230920Y-68111850D01*
X150224464Y-68117425D01*
X150219274Y-68133965D01*
X150216636Y-68146709D01*
X150211764Y-68192318D01*
X150208543Y-68257011D01*
X150206921Y-68336423D01*
X150206847Y-68426190D01*
X149971745Y-68426190D01*
X149973638Y-68360050D01*
X149974572Y-68337334D01*
X149982934Y-68169545D01*
X149992942Y-68026313D01*
X150004694Y-67906929D01*
X150018287Y-67810685D01*
X150033818Y-67736873D01*
X150051387Y-67684784D01*
X150071090Y-67653710D01*
X150087801Y-67639710D01*
X150133233Y-67621392D01*
X150180402Y-67624698D01*
X150223396Y-67648425D01*
X150256301Y-67691371D01*
X150266191Y-67710538D01*
X150293449Y-67759259D01*
X150326883Y-67815273D01*
X150363768Y-67874414D01*
X150401378Y-67932512D01*
X150436988Y-67985401D01*
X150467874Y-68028912D01*
X150491312Y-68058877D01*
X150504575Y-68071129D01*
X150516342Y-68076360D01*
X150526800Y-68090256D01*
X150531302Y-68101762D01*
X150549025Y-68121466D01*
X150559759Y-68131529D01*
X150555375Y-68131642D01*
X150552925Y-68130450D01*
X150540104Y-68129026D01*
X150544853Y-68144353D01*
X150566661Y-68175504D01*
X150605013Y-68221549D01*
X150624277Y-68242759D01*
X150663136Y-68283781D01*
X150714287Y-68336572D01*
X150774399Y-68397726D01*
X150840140Y-68463837D01*
X150908179Y-68531500D01*
X150966443Y-68589769D01*
X151025619Y-68650438D01*
X151076654Y-68704340D01*
X151117019Y-68748751D01*
X151144188Y-68780945D01*
X151155633Y-68798200D01*
X151160705Y-68810582D01*
X151180572Y-68840303D01*
X151205257Y-68864442D01*
X151226734Y-68874399D01*
X151229626Y-68875869D01*
X151240496Y-68893555D01*
X151252096Y-68924850D01*
X151252172Y-68925103D01*
X151276291Y-68979890D01*
X151308614Y-69014644D01*
X151346760Y-69026800D01*
X151370011Y-69032041D01*
X151389931Y-69057316D01*
X151399998Y-69078536D01*
X151412646Y-69094700D01*
X151412663Y-69094711D01*
X151431058Y-69094285D01*
X151467431Y-69084731D01*
X151499813Y-69073675D01*
X152610397Y-69073675D01*
X152612538Y-69077244D01*
X152630187Y-69094073D01*
X152661744Y-69119850D01*
X152702472Y-69150618D01*
X152703487Y-69151361D01*
X152748983Y-69187137D01*
X152805039Y-69234772D01*
X152864634Y-69288141D01*
X152920750Y-69341118D01*
X152951387Y-69371140D01*
X152987803Y-69408056D01*
X153017586Y-69441149D01*
X153043814Y-69474802D01*
X153069565Y-69513397D01*
X153097919Y-69561317D01*
X153131955Y-69622943D01*
X153174750Y-69702660D01*
X153188033Y-69727425D01*
X153225051Y-69795382D01*
X153257798Y-69853978D01*
X153284387Y-69899931D01*
X153302935Y-69929961D01*
X153311555Y-69940785D01*
X153325981Y-69930288D01*
X153348192Y-69900077D01*
X153376193Y-69853989D01*
X153408082Y-69795869D01*
X153441955Y-69729557D01*
X153475911Y-69658898D01*
X153508046Y-69587733D01*
X153536460Y-69519906D01*
X153559249Y-69459258D01*
X153574511Y-69409632D01*
X153585379Y-69362303D01*
X153606679Y-69205829D01*
X153608584Y-69036274D01*
X153591066Y-68852565D01*
X153554095Y-68653629D01*
X153548566Y-68629401D01*
X153530330Y-68555100D01*
X153513597Y-68498952D01*
X153496300Y-68455533D01*
X153476370Y-68419420D01*
X153451741Y-68385190D01*
X153428391Y-68359176D01*
X153393020Y-68325899D01*
X153353879Y-68293255D01*
X153316447Y-68265530D01*
X153286203Y-68247008D01*
X153268626Y-68241974D01*
X153268337Y-68242089D01*
X153257905Y-68256307D01*
X153243244Y-68287941D01*
X153227432Y-68330386D01*
X153221385Y-68347856D01*
X153204409Y-68390586D01*
X153184284Y-68429829D01*
X153158358Y-68468965D01*
X153123979Y-68511372D01*
X153078495Y-68560430D01*
X153019254Y-68619518D01*
X152943603Y-68692013D01*
X152905975Y-68728273D01*
X152842151Y-68792323D01*
X152781257Y-68856360D01*
X152725856Y-68917451D01*
X152678507Y-68972662D01*
X152670836Y-68982350D01*
X152641774Y-69019059D01*
X152618217Y-69053708D01*
X152610397Y-69073675D01*
X151499813Y-69073675D01*
X151516848Y-69067859D01*
X151567733Y-69048063D01*
X152546100Y-69048063D01*
X152546389Y-69050660D01*
X152555371Y-69053073D01*
X152572310Y-69040506D01*
X152590921Y-69017275D01*
X152613263Y-68982350D01*
X152579682Y-69013138D01*
X152575053Y-69017421D01*
X152554464Y-69037671D01*
X152546100Y-69048063D01*
X151567733Y-69048063D01*
X151574376Y-69045479D01*
X151635082Y-69019402D01*
X151694032Y-68991439D01*
X151715389Y-68980799D01*
X151753148Y-68963357D01*
X151784902Y-68952711D01*
X151818501Y-68947298D01*
X151861794Y-68945555D01*
X151922632Y-68945918D01*
X151950550Y-68946461D01*
X152027539Y-68949388D01*
X152105581Y-68953997D01*
X152171450Y-68959562D01*
X152285750Y-68971537D01*
X152381000Y-68885823D01*
X152389254Y-68878402D01*
X152438097Y-68834636D01*
X152497746Y-68781371D01*
X152561411Y-68724661D01*
X152622300Y-68670566D01*
X152712370Y-68589753D01*
X152798684Y-68510127D01*
X152870457Y-68441371D01*
X152926391Y-68384763D01*
X152965184Y-68341582D01*
X152985539Y-68313107D01*
X152989444Y-68304598D01*
X153002577Y-68269085D01*
X153018235Y-68219996D01*
X153033824Y-68165277D01*
X153050412Y-68105704D01*
X153067229Y-68054175D01*
X153083920Y-68016233D01*
X153103223Y-67985806D01*
X153127878Y-67956824D01*
X153146119Y-67939583D01*
X153176892Y-67922568D01*
X153211339Y-67920687D01*
X153252923Y-67934752D01*
X153305106Y-67965577D01*
X153371352Y-68013975D01*
X153436776Y-68065583D01*
X153530939Y-68145380D01*
X153604297Y-68215940D01*
X153658099Y-68278507D01*
X153693599Y-68334326D01*
X153707728Y-68366210D01*
X153730843Y-68431695D01*
X153754722Y-68512705D01*
X153777910Y-68603410D01*
X153798949Y-68697983D01*
X153816385Y-68790595D01*
X153828760Y-68875416D01*
X153836761Y-68961953D01*
X153839105Y-69036274D01*
X153841161Y-69101472D01*
X153835874Y-69238741D01*
X153821272Y-69366540D01*
X153797727Y-69477650D01*
X153785506Y-69517727D01*
X153755653Y-69599562D01*
X153717995Y-69688925D01*
X153674861Y-69781324D01*
X153628583Y-69872262D01*
X153581491Y-69957247D01*
X153535916Y-70031782D01*
X153494189Y-70091375D01*
X153458641Y-70131529D01*
X153420125Y-70166708D01*
X153461027Y-70260329D01*
X153466859Y-70273539D01*
X153494492Y-70334016D01*
X153526439Y-70401538D01*
X153556907Y-70463810D01*
X153567841Y-70486796D01*
X153597692Y-70559015D01*
X153626232Y-70639937D01*
X153649193Y-70717810D01*
X153676216Y-70823728D01*
X153704388Y-70937343D01*
X153730881Y-71047331D01*
X153754897Y-71150202D01*
X153775635Y-71242469D01*
X153792298Y-71320642D01*
X153804084Y-71381232D01*
X153810197Y-71420750D01*
X153814315Y-71454246D01*
X153824314Y-71523785D01*
X153839023Y-71617745D01*
X153858392Y-71735815D01*
X153882371Y-71877687D01*
X153910909Y-72043050D01*
X153918381Y-72086235D01*
X153938751Y-72207703D01*
X153954749Y-72310439D01*
X153966985Y-72399103D01*
X153976065Y-72478354D01*
X153982599Y-72552849D01*
X153987194Y-72627250D01*
X153990260Y-72674396D01*
X153997956Y-72756824D01*
X154007938Y-72838319D01*
X154018818Y-72906650D01*
X154022459Y-72926839D01*
X154034246Y-73003399D01*
X154044246Y-73084031D01*
X154050606Y-73154300D01*
X154052312Y-73179178D01*
X154056945Y-73237720D01*
X154061760Y-73288571D01*
X154065954Y-73322897D01*
X154073450Y-73370844D01*
X154037762Y-73357276D01*
X154020251Y-73352844D01*
X153974325Y-73349383D01*
X153917409Y-73352050D01*
X153832744Y-73360393D01*
X153824512Y-73273221D01*
X153820806Y-73228246D01*
X153817413Y-73172691D01*
X153815992Y-73128900D01*
X153815571Y-73117244D01*
X153810964Y-73071859D01*
X153802381Y-73014798D01*
X153791192Y-72955647D01*
X153782455Y-72906763D01*
X153772435Y-72832679D01*
X153764206Y-72752341D01*
X153758977Y-72676247D01*
X153755269Y-72613942D01*
X153748801Y-72534090D01*
X153741065Y-72458865D01*
X153733032Y-72398650D01*
X153731059Y-72386281D01*
X153719565Y-72314099D01*
X153706979Y-72234894D01*
X153695690Y-72163700D01*
X153694717Y-72157585D01*
X153684618Y-72095886D01*
X153671734Y-72019449D01*
X153657620Y-71937409D01*
X153643830Y-71858900D01*
X153642726Y-71852674D01*
X153628846Y-71771456D01*
X153614980Y-71685666D01*
X153602682Y-71605149D01*
X153593504Y-71539752D01*
X153590143Y-71514062D01*
X153584363Y-71471590D01*
X153578643Y-71433852D01*
X153572119Y-71396646D01*
X153563926Y-71355769D01*
X153553201Y-71307018D01*
X153539079Y-71246191D01*
X153520695Y-71169086D01*
X153497184Y-71071500D01*
X153493446Y-71056016D01*
X153466880Y-70946648D01*
X153444805Y-70857832D01*
X153426064Y-70785858D01*
X153409498Y-70727018D01*
X153393950Y-70677602D01*
X153378262Y-70633901D01*
X153361277Y-70592207D01*
X153341835Y-70548809D01*
X153318780Y-70500000D01*
X153279836Y-70419176D01*
X153176754Y-70209719D01*
X153070568Y-69999795D01*
X152967363Y-69801500D01*
X152952485Y-69773464D01*
X152917603Y-69709358D01*
X152888447Y-69660122D01*
X152860833Y-69620019D01*
X152830578Y-69583315D01*
X152793500Y-69544272D01*
X152745416Y-69497156D01*
X152663932Y-69420964D01*
X152578978Y-69348623D01*
X152504825Y-69294661D01*
X152439417Y-69257767D01*
X152380699Y-69236629D01*
X152326618Y-69229937D01*
X152323105Y-69229859D01*
X152285714Y-69223770D01*
X152245623Y-69210921D01*
X152227846Y-69205327D01*
X152178185Y-69196428D01*
X152107685Y-69189080D01*
X152019244Y-69183631D01*
X151838525Y-69175419D01*
X151820213Y-69185527D01*
X151743787Y-69227716D01*
X151730641Y-69235094D01*
G37*
X151730641Y-69235094D02*
X151684887Y-69262605D01*
X151647557Y-69287731D01*
X151625707Y-69305806D01*
X151607468Y-69320139D01*
X151583190Y-69330117D01*
X151561847Y-69332623D01*
X151550318Y-69326995D01*
X151555483Y-69312570D01*
X151557676Y-69309877D01*
X151562547Y-69300652D01*
X151551983Y-69301082D01*
X151521876Y-69310970D01*
X151518183Y-69312303D01*
X151471749Y-69332269D01*
X151428263Y-69355352D01*
X151419724Y-69360348D01*
X151387245Y-69376015D01*
X151364131Y-69382352D01*
X151343013Y-69384396D01*
X151302073Y-69394403D01*
X151259789Y-69409755D01*
X151224927Y-69427083D01*
X151206250Y-69443020D01*
X151199885Y-69454187D01*
X151180901Y-69485692D01*
X151157708Y-69522836D01*
X151156495Y-69524749D01*
X151131328Y-69565386D01*
X151100289Y-69616730D01*
X151069811Y-69668150D01*
X151069381Y-69668883D01*
X151036709Y-69722190D01*
X151001080Y-69776638D01*
X150970131Y-69820550D01*
X150937155Y-69871439D01*
X150896514Y-69949130D01*
X150854038Y-70044023D01*
X150811342Y-70152011D01*
X150770038Y-70268982D01*
X150731741Y-70390829D01*
X150698062Y-70513442D01*
X150681550Y-70580495D01*
X150671014Y-70628659D01*
X150667230Y-70655619D01*
X150669978Y-70662993D01*
X150679035Y-70652400D01*
X150683138Y-70647377D01*
X150686977Y-70653881D01*
X150684505Y-70684150D01*
X150678689Y-70727229D01*
X150671670Y-70772999D01*
X150665741Y-70800511D01*
X150659920Y-70813950D01*
X150653225Y-70817500D01*
X150647270Y-70828180D01*
X150642807Y-70857829D01*
X150641100Y-70899792D01*
X150639471Y-70936538D01*
X150632107Y-70990773D01*
X150620672Y-71033142D01*
X150618470Y-71038482D01*
X150602596Y-71068781D01*
X150589179Y-71083088D01*
X150581591Y-71079377D01*
X150583209Y-71055625D01*
X150587071Y-71036563D01*
X150594732Y-70996930D01*
X150603375Y-70950850D01*
X150610003Y-70916104D01*
X150618353Y-70875247D01*
X150624353Y-70849250D01*
X150626503Y-70833211D01*
X150617613Y-70836699D01*
X150614861Y-70841598D01*
X150605395Y-70868095D01*
X150591551Y-70913756D01*
X150574383Y-70974888D01*
X150554944Y-71047799D01*
X150534287Y-71128799D01*
X150528552Y-71151790D01*
X150499607Y-71268325D01*
X150475809Y-71365981D01*
X150456240Y-71449639D01*
X150439983Y-71524181D01*
X150426123Y-71594486D01*
X150413743Y-71665438D01*
X150401925Y-71741917D01*
X150389754Y-71828804D01*
X150376313Y-71930980D01*
X150360686Y-72053327D01*
X150352485Y-72120873D01*
X150345600Y-72184941D01*
X150341424Y-72233045D01*
X150339953Y-72263637D01*
X150341182Y-72275167D01*
X150345108Y-72266086D01*
X150351725Y-72234846D01*
X150361031Y-72179897D01*
X150364239Y-72160103D01*
X150375376Y-72095280D01*
X150388544Y-72022521D01*
X150401532Y-71954150D01*
X150411549Y-71900863D01*
X150425363Y-71822809D01*
X150439381Y-71739577D01*
X150451732Y-71662050D01*
X150453835Y-71648390D01*
X150467837Y-71561403D01*
X150479737Y-71496479D01*
X150490278Y-71450834D01*
X150500204Y-71421679D01*
X150510257Y-71406230D01*
X150521182Y-71401700D01*
X150533066Y-71407056D01*
X150533597Y-71430275D01*
X150530125Y-71448327D01*
X150523036Y-71488213D01*
X150513333Y-71544435D01*
X150501810Y-71612384D01*
X150489261Y-71687450D01*
X150483104Y-71724366D01*
X150465974Y-71825788D01*
X150447322Y-71934779D01*
X150429015Y-72040459D01*
X150412923Y-72131950D01*
X150391638Y-72263398D01*
X150368624Y-72436596D01*
X150349434Y-72617045D01*
X150334793Y-72796811D01*
X150325432Y-72967958D01*
X150322076Y-73122550D01*
X150321901Y-73351150D01*
X150211626Y-73346666D01*
X150190144Y-73345729D01*
X150143959Y-73343224D01*
X150111101Y-73340734D01*
X150097598Y-73338681D01*
X150096013Y-73328254D01*
X150093250Y-73296131D01*
X150089741Y-73246389D01*
X150085772Y-73183150D01*
X150081633Y-73110531D01*
X150080617Y-73090208D01*
X150077365Y-72975095D01*
X150077062Y-72843479D01*
X150079528Y-72702613D01*
X150084585Y-72559750D01*
X150092052Y-72422145D01*
X150101751Y-72297050D01*
X150107107Y-72241767D01*
X150117666Y-72142669D01*
X150129925Y-72036813D01*
X150143279Y-71928775D01*
X150157122Y-71823130D01*
X150170846Y-71724454D01*
X150183846Y-71637323D01*
X150195515Y-71566313D01*
X150205246Y-71516000D01*
X150217517Y-71462098D01*
X150235867Y-71383759D01*
X150257456Y-71293249D01*
X150280995Y-71195838D01*
X150305195Y-71096801D01*
X150328767Y-71001408D01*
X150350421Y-70914931D01*
X150368869Y-70842643D01*
X150382820Y-70789815D01*
X150387801Y-70771847D01*
X150396922Y-70739162D01*
X150403520Y-70711661D01*
X150407083Y-70686061D01*
X150407102Y-70659074D01*
X150403064Y-70627418D01*
X150394459Y-70587805D01*
X150380775Y-70536953D01*
X150361502Y-70471574D01*
X150336128Y-70388385D01*
X150304143Y-70284100D01*
X150264985Y-70155438D01*
X150227731Y-70031082D01*
X150196625Y-69924424D01*
X150170772Y-69832049D01*
X150149274Y-69750545D01*
X150131235Y-69676497D01*
X150115756Y-69606491D01*
X150101941Y-69537113D01*
X150088892Y-69464950D01*
X150064356Y-69321753D01*
X150038735Y-69166241D01*
X150017744Y-69030033D01*
X150001064Y-68910071D01*
X149988376Y-68803292D01*
X149979360Y-68706637D01*
X149973698Y-68617046D01*
X149971069Y-68531457D01*
X149971156Y-68446812D01*
X149971745Y-68426190D01*
X150206847Y-68426190D01*
X150208272Y-68521947D01*
X150211143Y-68619329D01*
X150215410Y-68713970D01*
X150221023Y-68801507D01*
X150227930Y-68877575D01*
X150234255Y-68932068D01*
X150242602Y-68995107D01*
X150250449Y-69045242D01*
X150257137Y-69078348D01*
X150262005Y-69090300D01*
X150266738Y-69097802D01*
X150271112Y-69124533D01*
X150272800Y-69163960D01*
X150273996Y-69195974D01*
X150278702Y-69231563D01*
X150285758Y-69250577D01*
X150290224Y-69260049D01*
X150299833Y-69291535D01*
X150312396Y-69340336D01*
X150326794Y-69402029D01*
X150341905Y-69472192D01*
X150345991Y-69491769D01*
X150366671Y-69587535D01*
X150390467Y-69693616D01*
X150414750Y-69798431D01*
X150436888Y-69890400D01*
X150448079Y-69935312D01*
X150467262Y-70010811D01*
X150485330Y-70080228D01*
X150500661Y-70137361D01*
X150511631Y-70176010D01*
X150534580Y-70252071D01*
X150570664Y-70137910D01*
X150594266Y-70069665D01*
X150631033Y-69977668D01*
X150672992Y-69884252D01*
X150717062Y-69795867D01*
X150760157Y-69718960D01*
X150799196Y-69659980D01*
X150832503Y-69612372D01*
X150871200Y-69551175D01*
X150903782Y-69493938D01*
X150949155Y-69419257D01*
X151007508Y-69344051D01*
X151070261Y-69280378D01*
X151131741Y-69234687D01*
X151151187Y-69222228D01*
X151177063Y-69201040D01*
X151187200Y-69185527D01*
X151180510Y-69170180D01*
X151156536Y-69136942D01*
X151116113Y-69088198D01*
X151060252Y-69025067D01*
X150989966Y-68948663D01*
X150906266Y-68860103D01*
X150810163Y-68760502D01*
X150702668Y-68650978D01*
X150655767Y-68603338D01*
X150573163Y-68518049D01*
X150508655Y-68449289D01*
X150462391Y-68397224D01*
X150434523Y-68362021D01*
X150425200Y-68343846D01*
X150425198Y-68343344D01*
X150417227Y-68322216D01*
X150390275Y-68313268D01*
X150366744Y-68306178D01*
X150355350Y-68290040D01*
X150354588Y-68286027D01*
X150343269Y-68262316D01*
X150321224Y-68226487D01*
X150292092Y-68184606D01*
X150261365Y-68143140D01*
X150242076Y-68119625D01*
X150230920Y-68111850D01*
X150224464Y-68117425D01*
X150219274Y-68133965D01*
X150216636Y-68146709D01*
X150211764Y-68192318D01*
X150208543Y-68257011D01*
X150206921Y-68336423D01*
X150206847Y-68426190D01*
X149971745Y-68426190D01*
X149973638Y-68360050D01*
X149974572Y-68337334D01*
X149982934Y-68169545D01*
X149992942Y-68026313D01*
X150004694Y-67906929D01*
X150018287Y-67810685D01*
X150033818Y-67736873D01*
X150051387Y-67684784D01*
X150071090Y-67653710D01*
X150087801Y-67639710D01*
X150133233Y-67621392D01*
X150180402Y-67624698D01*
X150223396Y-67648425D01*
X150256301Y-67691371D01*
X150266191Y-67710538D01*
X150293449Y-67759259D01*
X150326883Y-67815273D01*
X150363768Y-67874414D01*
X150401378Y-67932512D01*
X150436988Y-67985401D01*
X150467874Y-68028912D01*
X150491312Y-68058877D01*
X150504575Y-68071129D01*
X150516342Y-68076360D01*
X150526800Y-68090256D01*
X150531302Y-68101762D01*
X150549025Y-68121466D01*
X150559759Y-68131529D01*
X150555375Y-68131642D01*
X150552925Y-68130450D01*
X150540104Y-68129026D01*
X150544853Y-68144353D01*
X150566661Y-68175504D01*
X150605013Y-68221549D01*
X150624277Y-68242759D01*
X150663136Y-68283781D01*
X150714287Y-68336572D01*
X150774399Y-68397726D01*
X150840140Y-68463837D01*
X150908179Y-68531500D01*
X150966443Y-68589769D01*
X151025619Y-68650438D01*
X151076654Y-68704340D01*
X151117019Y-68748751D01*
X151144188Y-68780945D01*
X151155633Y-68798200D01*
X151160705Y-68810582D01*
X151180572Y-68840303D01*
X151205257Y-68864442D01*
X151226734Y-68874399D01*
X151229626Y-68875869D01*
X151240496Y-68893555D01*
X151252096Y-68924850D01*
X151252172Y-68925103D01*
X151276291Y-68979890D01*
X151308614Y-69014644D01*
X151346760Y-69026800D01*
X151370011Y-69032041D01*
X151389931Y-69057316D01*
X151399998Y-69078536D01*
X151412646Y-69094700D01*
X151412663Y-69094711D01*
X151431058Y-69094285D01*
X151467431Y-69084731D01*
X151499813Y-69073675D01*
X152610397Y-69073675D01*
X152612538Y-69077244D01*
X152630187Y-69094073D01*
X152661744Y-69119850D01*
X152702472Y-69150618D01*
X152703487Y-69151361D01*
X152748983Y-69187137D01*
X152805039Y-69234772D01*
X152864634Y-69288141D01*
X152920750Y-69341118D01*
X152951387Y-69371140D01*
X152987803Y-69408056D01*
X153017586Y-69441149D01*
X153043814Y-69474802D01*
X153069565Y-69513397D01*
X153097919Y-69561317D01*
X153131955Y-69622943D01*
X153174750Y-69702660D01*
X153188033Y-69727425D01*
X153225051Y-69795382D01*
X153257798Y-69853978D01*
X153284387Y-69899931D01*
X153302935Y-69929961D01*
X153311555Y-69940785D01*
X153325981Y-69930288D01*
X153348192Y-69900077D01*
X153376193Y-69853989D01*
X153408082Y-69795869D01*
X153441955Y-69729557D01*
X153475911Y-69658898D01*
X153508046Y-69587733D01*
X153536460Y-69519906D01*
X153559249Y-69459258D01*
X153574511Y-69409632D01*
X153585379Y-69362303D01*
X153606679Y-69205829D01*
X153608584Y-69036274D01*
X153591066Y-68852565D01*
X153554095Y-68653629D01*
X153548566Y-68629401D01*
X153530330Y-68555100D01*
X153513597Y-68498952D01*
X153496300Y-68455533D01*
X153476370Y-68419420D01*
X153451741Y-68385190D01*
X153428391Y-68359176D01*
X153393020Y-68325899D01*
X153353879Y-68293255D01*
X153316447Y-68265530D01*
X153286203Y-68247008D01*
X153268626Y-68241974D01*
X153268337Y-68242089D01*
X153257905Y-68256307D01*
X153243244Y-68287941D01*
X153227432Y-68330386D01*
X153221385Y-68347856D01*
X153204409Y-68390586D01*
X153184284Y-68429829D01*
X153158358Y-68468965D01*
X153123979Y-68511372D01*
X153078495Y-68560430D01*
X153019254Y-68619518D01*
X152943603Y-68692013D01*
X152905975Y-68728273D01*
X152842151Y-68792323D01*
X152781257Y-68856360D01*
X152725856Y-68917451D01*
X152678507Y-68972662D01*
X152670836Y-68982350D01*
X152641774Y-69019059D01*
X152618217Y-69053708D01*
X152610397Y-69073675D01*
X151499813Y-69073675D01*
X151516848Y-69067859D01*
X151567733Y-69048063D01*
X152546100Y-69048063D01*
X152546389Y-69050660D01*
X152555371Y-69053073D01*
X152572310Y-69040506D01*
X152590921Y-69017275D01*
X152613263Y-68982350D01*
X152579682Y-69013138D01*
X152575053Y-69017421D01*
X152554464Y-69037671D01*
X152546100Y-69048063D01*
X151567733Y-69048063D01*
X151574376Y-69045479D01*
X151635082Y-69019402D01*
X151694032Y-68991439D01*
X151715389Y-68980799D01*
X151753148Y-68963357D01*
X151784902Y-68952711D01*
X151818501Y-68947298D01*
X151861794Y-68945555D01*
X151922632Y-68945918D01*
X151950550Y-68946461D01*
X152027539Y-68949388D01*
X152105581Y-68953997D01*
X152171450Y-68959562D01*
X152285750Y-68971537D01*
X152381000Y-68885823D01*
X152389254Y-68878402D01*
X152438097Y-68834636D01*
X152497746Y-68781371D01*
X152561411Y-68724661D01*
X152622300Y-68670566D01*
X152712370Y-68589753D01*
X152798684Y-68510127D01*
X152870457Y-68441371D01*
X152926391Y-68384763D01*
X152965184Y-68341582D01*
X152985539Y-68313107D01*
X152989444Y-68304598D01*
X153002577Y-68269085D01*
X153018235Y-68219996D01*
X153033824Y-68165277D01*
X153050412Y-68105704D01*
X153067229Y-68054175D01*
X153083920Y-68016233D01*
X153103223Y-67985806D01*
X153127878Y-67956824D01*
X153146119Y-67939583D01*
X153176892Y-67922568D01*
X153211339Y-67920687D01*
X153252923Y-67934752D01*
X153305106Y-67965577D01*
X153371352Y-68013975D01*
X153436776Y-68065583D01*
X153530939Y-68145380D01*
X153604297Y-68215940D01*
X153658099Y-68278507D01*
X153693599Y-68334326D01*
X153707728Y-68366210D01*
X153730843Y-68431695D01*
X153754722Y-68512705D01*
X153777910Y-68603410D01*
X153798949Y-68697983D01*
X153816385Y-68790595D01*
X153828760Y-68875416D01*
X153836761Y-68961953D01*
X153839105Y-69036274D01*
X153841161Y-69101472D01*
X153835874Y-69238741D01*
X153821272Y-69366540D01*
X153797727Y-69477650D01*
X153785506Y-69517727D01*
X153755653Y-69599562D01*
X153717995Y-69688925D01*
X153674861Y-69781324D01*
X153628583Y-69872262D01*
X153581491Y-69957247D01*
X153535916Y-70031782D01*
X153494189Y-70091375D01*
X153458641Y-70131529D01*
X153420125Y-70166708D01*
X153461027Y-70260329D01*
X153466859Y-70273539D01*
X153494492Y-70334016D01*
X153526439Y-70401538D01*
X153556907Y-70463810D01*
X153567841Y-70486796D01*
X153597692Y-70559015D01*
X153626232Y-70639937D01*
X153649193Y-70717810D01*
X153676216Y-70823728D01*
X153704388Y-70937343D01*
X153730881Y-71047331D01*
X153754897Y-71150202D01*
X153775635Y-71242469D01*
X153792298Y-71320642D01*
X153804084Y-71381232D01*
X153810197Y-71420750D01*
X153814315Y-71454246D01*
X153824314Y-71523785D01*
X153839023Y-71617745D01*
X153858392Y-71735815D01*
X153882371Y-71877687D01*
X153910909Y-72043050D01*
X153918381Y-72086235D01*
X153938751Y-72207703D01*
X153954749Y-72310439D01*
X153966985Y-72399103D01*
X153976065Y-72478354D01*
X153982599Y-72552849D01*
X153987194Y-72627250D01*
X153990260Y-72674396D01*
X153997956Y-72756824D01*
X154007938Y-72838319D01*
X154018818Y-72906650D01*
X154022459Y-72926839D01*
X154034246Y-73003399D01*
X154044246Y-73084031D01*
X154050606Y-73154300D01*
X154052312Y-73179178D01*
X154056945Y-73237720D01*
X154061760Y-73288571D01*
X154065954Y-73322897D01*
X154073450Y-73370844D01*
X154037762Y-73357276D01*
X154020251Y-73352844D01*
X153974325Y-73349383D01*
X153917409Y-73352050D01*
X153832744Y-73360393D01*
X153824512Y-73273221D01*
X153820806Y-73228246D01*
X153817413Y-73172691D01*
X153815992Y-73128900D01*
X153815571Y-73117244D01*
X153810964Y-73071859D01*
X153802381Y-73014798D01*
X153791192Y-72955647D01*
X153782455Y-72906763D01*
X153772435Y-72832679D01*
X153764206Y-72752341D01*
X153758977Y-72676247D01*
X153755269Y-72613942D01*
X153748801Y-72534090D01*
X153741065Y-72458865D01*
X153733032Y-72398650D01*
X153731059Y-72386281D01*
X153719565Y-72314099D01*
X153706979Y-72234894D01*
X153695690Y-72163700D01*
X153694717Y-72157585D01*
X153684618Y-72095886D01*
X153671734Y-72019449D01*
X153657620Y-71937409D01*
X153643830Y-71858900D01*
X153642726Y-71852674D01*
X153628846Y-71771456D01*
X153614980Y-71685666D01*
X153602682Y-71605149D01*
X153593504Y-71539752D01*
X153590143Y-71514062D01*
X153584363Y-71471590D01*
X153578643Y-71433852D01*
X153572119Y-71396646D01*
X153563926Y-71355769D01*
X153553201Y-71307018D01*
X153539079Y-71246191D01*
X153520695Y-71169086D01*
X153497184Y-71071500D01*
X153493446Y-71056016D01*
X153466880Y-70946648D01*
X153444805Y-70857832D01*
X153426064Y-70785858D01*
X153409498Y-70727018D01*
X153393950Y-70677602D01*
X153378262Y-70633901D01*
X153361277Y-70592207D01*
X153341835Y-70548809D01*
X153318780Y-70500000D01*
X153279836Y-70419176D01*
X153176754Y-70209719D01*
X153070568Y-69999795D01*
X152967363Y-69801500D01*
X152952485Y-69773464D01*
X152917603Y-69709358D01*
X152888447Y-69660122D01*
X152860833Y-69620019D01*
X152830578Y-69583315D01*
X152793500Y-69544272D01*
X152745416Y-69497156D01*
X152663932Y-69420964D01*
X152578978Y-69348623D01*
X152504825Y-69294661D01*
X152439417Y-69257767D01*
X152380699Y-69236629D01*
X152326618Y-69229937D01*
X152323105Y-69229859D01*
X152285714Y-69223770D01*
X152245623Y-69210921D01*
X152227846Y-69205327D01*
X152178185Y-69196428D01*
X152107685Y-69189080D01*
X152019244Y-69183631D01*
X151838525Y-69175419D01*
X151820213Y-69185527D01*
X151743787Y-69227716D01*
X151730641Y-69235094D01*
D13*
X140430000Y-73770000D02*
X140430000Y-80230000D01*
X135900000Y-73770000D02*
X138500000Y-73770000D01*
X133970000Y-73770000D02*
X133970000Y-80230000D01*
X135900000Y-80230000D02*
X138500000Y-80230000D01*
X134000000Y-73770000D02*
X133970000Y-73770000D01*
X140430000Y-73770000D02*
X140400000Y-73770000D01*
X140430000Y-80230000D02*
X140400000Y-80230000D01*
X133970000Y-80230000D02*
X134000000Y-80230000D01*
X150200000Y-90630000D02*
X148800000Y-90630000D01*
X148800000Y-88310000D02*
X150700000Y-88310000D01*
X141641422Y-68790000D02*
X142158578Y-68790000D01*
X141641422Y-70210000D02*
X142158578Y-70210000D01*
X145390000Y-92258578D02*
X145390000Y-91741422D01*
X146810000Y-92258578D02*
X146810000Y-91741422D01*
X169675000Y-79680000D02*
X169675000Y-83240000D01*
X167015000Y-82220000D02*
X167015000Y-85330000D01*
X167015000Y-84760000D02*
X167015000Y-85330000D01*
X169675000Y-77590000D02*
X169675000Y-78160000D01*
X169675000Y-78160000D02*
X171195000Y-78160000D01*
X167015000Y-77590000D02*
X167015000Y-80700000D01*
X169675000Y-85330000D02*
X167015000Y-85330000D01*
X169675000Y-77590000D02*
X167015000Y-77590000D01*
X120290000Y-108758578D02*
X120290000Y-108241422D01*
X121710000Y-108758578D02*
X121710000Y-108241422D01*
X147502064Y-119110000D02*
X146297936Y-119110000D01*
X147502064Y-117290000D02*
X146297936Y-117290000D01*
X157741422Y-117690000D02*
X158258578Y-117690000D01*
X157741422Y-119110000D02*
X158258578Y-119110000D01*
X151320000Y-116940000D02*
X151320000Y-118400000D01*
X154480000Y-116940000D02*
X154480000Y-119100000D01*
X154480000Y-116940000D02*
X153550000Y-116940000D01*
X151320000Y-116940000D02*
X152250000Y-116940000D01*
X153800000Y-108850000D02*
X153800000Y-115150000D01*
X160000000Y-108850000D02*
X160000000Y-115150000D01*
X148900000Y-107950000D02*
X148900000Y-111850000D01*
X150900000Y-107950000D02*
X150900000Y-111850000D01*
X148900000Y-107950000D02*
X150900000Y-107950000D01*
X143400000Y-112450000D02*
X143400000Y-108550000D01*
X141400000Y-112450000D02*
X141400000Y-108550000D01*
X143400000Y-112450000D02*
X141400000Y-112450000D01*
X143400000Y-117450000D02*
X143400000Y-113550000D01*
X141400000Y-117450000D02*
X141400000Y-113550000D01*
X143400000Y-117450000D02*
X141400000Y-117450000D01*
X127710000Y-108241422D02*
X127710000Y-108758578D01*
X126290000Y-108241422D02*
X126290000Y-108758578D01*
X148310000Y-109597936D02*
X148310000Y-110802064D01*
X146490000Y-109597936D02*
X146490000Y-110802064D01*
X152910000Y-110558578D02*
X152910000Y-110041422D01*
X151490000Y-110558578D02*
X151490000Y-110041422D01*
X147502064Y-115610000D02*
X146297936Y-115610000D01*
X147502064Y-113790000D02*
X146297936Y-113790000D01*
X145810000Y-109597936D02*
X145810000Y-110802064D01*
X143990000Y-109597936D02*
X143990000Y-110802064D01*
X140937500Y-88450000D02*
X140587500Y-88450000D01*
X140587500Y-88450000D02*
X140587500Y-88800000D01*
X140937500Y-90750000D02*
X140587500Y-90750000D01*
X140587500Y-90750000D02*
X140587500Y-90400000D01*
X142537500Y-90750000D02*
X142887500Y-90750000D01*
X142887500Y-90750000D02*
X142887500Y-90400000D01*
X142537500Y-88450000D02*
X143087500Y-88450000D01*
X124200000Y-81000000D02*
G75*
G03X124200000Y-81000000I-700000J0D01*
G01*
X120200000Y-75000000D02*
G75*
G03X120200000Y-75000000I-700000J0D01*
G01*
X126700000Y-81000000D02*
G75*
G03X126700000Y-81000000I-700000J0D01*
G01*
X129200000Y-81000000D02*
G75*
G03X129200000Y-81000000I-700000J0D01*
G01*
X121700000Y-81000000D02*
G75*
G03X121700000Y-81000000I-700000J0D01*
G01*
X122400000Y-54800000D02*
G75*
G03X122400000Y-54800000I-700000J0D01*
G01*
X122400000Y-52200000D02*
G75*
G03X122400000Y-52200000I-700000J0D01*
G01*
X122400000Y-57400000D02*
G75*
G03X122400000Y-57400000I-700000J0D01*
G01*
X141441422Y-84790000D02*
X141958578Y-84790000D01*
X141441422Y-86210000D02*
X141958578Y-86210000D01*
X138196078Y-88490000D02*
X137678922Y-88490000D01*
X138196078Y-90310000D02*
X137678922Y-90310000D01*
X123710000Y-108241422D02*
X123710000Y-108758578D01*
X122290000Y-108241422D02*
X122290000Y-108758578D01*
X125710000Y-108241422D02*
X125710000Y-108758578D01*
X124290000Y-108241422D02*
X124290000Y-108758578D01*
X131710000Y-108241422D02*
X131710000Y-108758578D01*
X130290000Y-108241422D02*
X130290000Y-108758578D01*
X149290000Y-54358578D02*
X149290000Y-53841422D01*
X150710000Y-54358578D02*
X150710000Y-53841422D01*
X137710000Y-108241422D02*
X137710000Y-108758578D01*
X136290000Y-108241422D02*
X136290000Y-108758578D01*
X129710000Y-108241422D02*
X129710000Y-108758578D01*
X128290000Y-108241422D02*
X128290000Y-108758578D01*
X133710000Y-108241422D02*
X133710000Y-108758578D01*
X132290000Y-108241422D02*
X132290000Y-108758578D01*
X135710000Y-108241422D02*
X135710000Y-108758578D01*
X134290000Y-108241422D02*
X134290000Y-108758578D01*
X138196078Y-92110000D02*
X137678922Y-92110000D01*
X138196078Y-90690000D02*
X137678922Y-90690000D01*
X137678922Y-86690000D02*
X138196078Y-86690000D01*
X137678922Y-88110000D02*
X138196078Y-88110000D01*
X129200000Y-75731422D02*
X129200000Y-76248578D01*
X127780000Y-75731422D02*
X127780000Y-76248578D01*
X131378922Y-66290000D02*
X131896078Y-66290000D01*
X131378922Y-67710000D02*
X131896078Y-67710000D01*
X169675000Y-68220000D02*
X169675000Y-71780000D01*
X169675000Y-63140000D02*
X169675000Y-66700000D01*
X167015000Y-70760000D02*
X167015000Y-73870000D01*
X167015000Y-65680000D02*
X167015000Y-69240000D01*
X167015000Y-73300000D02*
X167015000Y-73870000D01*
X169675000Y-61050000D02*
X169675000Y-61620000D01*
X169675000Y-61620000D02*
X171195000Y-61620000D01*
X167015000Y-61050000D02*
X167015000Y-64160000D01*
X169675000Y-73870000D02*
X167015000Y-73870000D01*
X169675000Y-61050000D02*
X167015000Y-61050000D01*
X131275000Y-74307500D02*
X131275000Y-77192500D01*
X129455000Y-74307500D02*
X131275000Y-74307500D01*
X129455000Y-77192500D02*
X129455000Y-74307500D01*
X123290000Y-76258578D02*
X123290000Y-75741422D01*
X124710000Y-76258578D02*
X124710000Y-75741422D01*
X121390000Y-76258578D02*
X121390000Y-75741422D01*
X122810000Y-76258578D02*
X122810000Y-75741422D01*
X125190000Y-76258578D02*
X125190000Y-75741422D01*
X126610000Y-76258578D02*
X126610000Y-75741422D01*
X151390000Y-54100000D02*
X151390000Y-52600000D01*
X154610000Y-55600000D02*
X154610000Y-52600000D01*
X118800000Y-73050000D02*
X116800000Y-73050000D01*
X116800000Y-73050000D02*
X116800000Y-71050000D01*
X118800000Y-60150000D02*
X116800000Y-60150000D01*
X116800000Y-62150000D02*
X116800000Y-60150000D01*
X128800000Y-73050000D02*
X128200000Y-73050000D01*
X128800000Y-73050000D02*
X128800000Y-71050000D01*
X128800000Y-62150000D02*
X128800000Y-60150000D01*
X128800000Y-60150000D02*
X126800000Y-60150000D01*
X137458578Y-68790000D02*
X136941422Y-68790000D01*
X137458578Y-70210000D02*
X136941422Y-70210000D01*
D12*
X122370933Y-113854895D02*
X122370933Y-114435466D01*
X122409638Y-114551580D01*
X122487047Y-114628990D01*
X122603161Y-114667695D01*
X122680571Y-114667695D01*
X122061295Y-113854895D02*
X121558133Y-113854895D01*
X121829066Y-114164533D01*
X121712952Y-114164533D01*
X121635542Y-114203238D01*
X121596838Y-114241942D01*
X121558133Y-114319352D01*
X121558133Y-114512876D01*
X121596838Y-114590285D01*
X121635542Y-114628990D01*
X121712952Y-114667695D01*
X121945180Y-114667695D01*
X122022590Y-114628990D01*
X122061295Y-114590285D01*
X135712723Y-58754895D02*
X135248266Y-58754895D01*
X135480495Y-59567695D02*
X135480495Y-58754895D01*
X134977333Y-59567695D02*
X134977333Y-58754895D01*
X134667695Y-58754895D01*
X134590285Y-58793600D01*
X134551580Y-58832304D01*
X134512876Y-58909714D01*
X134512876Y-59025828D01*
X134551580Y-59103238D01*
X134590285Y-59141942D01*
X134667695Y-59180647D01*
X134977333Y-59180647D01*
X133738780Y-59567695D02*
X134203238Y-59567695D01*
X133971009Y-59567695D02*
X133971009Y-58754895D01*
X134048419Y-58871009D01*
X134125828Y-58948419D01*
X134203238Y-58987123D01*
X133235619Y-58754895D02*
X133158209Y-58754895D01*
X133080800Y-58793600D01*
X133042095Y-58832304D01*
X133003390Y-58909714D01*
X132964685Y-59064533D01*
X132964685Y-59258057D01*
X133003390Y-59412876D01*
X133042095Y-59490285D01*
X133080800Y-59528990D01*
X133158209Y-59567695D01*
X133235619Y-59567695D01*
X133313028Y-59528990D01*
X133351733Y-59490285D01*
X133390438Y-59412876D01*
X133429142Y-59258057D01*
X133429142Y-59064533D01*
X133390438Y-58909714D01*
X133351733Y-58832304D01*
X133313028Y-58793600D01*
X133235619Y-58754895D01*
X132906323Y-61067695D02*
X132906323Y-60254895D01*
X132596685Y-60254895D01*
X132519276Y-60293600D01*
X132480571Y-60332304D01*
X132441866Y-60409714D01*
X132441866Y-60525828D01*
X132480571Y-60603238D01*
X132519276Y-60641942D01*
X132596685Y-60680647D01*
X132906323Y-60680647D01*
X131822590Y-60641942D02*
X131706476Y-60680647D01*
X131667771Y-60719352D01*
X131629066Y-60796761D01*
X131629066Y-60912876D01*
X131667771Y-60990285D01*
X131706476Y-61028990D01*
X131783885Y-61067695D01*
X132093523Y-61067695D01*
X132093523Y-60254895D01*
X131822590Y-60254895D01*
X131745180Y-60293600D01*
X131706476Y-60332304D01*
X131667771Y-60409714D01*
X131667771Y-60487123D01*
X131706476Y-60564533D01*
X131745180Y-60603238D01*
X131822590Y-60641942D01*
X132093523Y-60641942D01*
X131242019Y-61067695D02*
X131087200Y-61067695D01*
X131009790Y-61028990D01*
X130971085Y-60990285D01*
X130893676Y-60874171D01*
X130854971Y-60719352D01*
X130854971Y-60409714D01*
X130893676Y-60332304D01*
X130932380Y-60293600D01*
X131009790Y-60254895D01*
X131164609Y-60254895D01*
X131242019Y-60293600D01*
X131280723Y-60332304D01*
X131319428Y-60409714D01*
X131319428Y-60603238D01*
X131280723Y-60680647D01*
X131242019Y-60719352D01*
X131164609Y-60758057D01*
X131009790Y-60758057D01*
X130932380Y-60719352D01*
X130893676Y-60680647D01*
X130854971Y-60603238D01*
X102370933Y-52454895D02*
X102370933Y-53035466D01*
X102409638Y-53151580D01*
X102487047Y-53228990D01*
X102603161Y-53267695D01*
X102680571Y-53267695D01*
X101558133Y-53267695D02*
X102022590Y-53267695D01*
X101790361Y-53267695D02*
X101790361Y-52454895D01*
X101867771Y-52571009D01*
X101945180Y-52648419D01*
X102022590Y-52687123D01*
X135712723Y-62154895D02*
X135248266Y-62154895D01*
X135480495Y-62967695D02*
X135480495Y-62154895D01*
X134977333Y-62967695D02*
X134977333Y-62154895D01*
X134667695Y-62154895D01*
X134590285Y-62193600D01*
X134551580Y-62232304D01*
X134512876Y-62309714D01*
X134512876Y-62425828D01*
X134551580Y-62503238D01*
X134590285Y-62541942D01*
X134667695Y-62580647D01*
X134977333Y-62580647D01*
X133738780Y-62967695D02*
X134203238Y-62967695D01*
X133971009Y-62967695D02*
X133971009Y-62154895D01*
X134048419Y-62271009D01*
X134125828Y-62348419D01*
X134203238Y-62387123D01*
X133467847Y-62154895D02*
X132964685Y-62154895D01*
X133235619Y-62464533D01*
X133119504Y-62464533D01*
X133042095Y-62503238D01*
X133003390Y-62541942D01*
X132964685Y-62619352D01*
X132964685Y-62812876D01*
X133003390Y-62890285D01*
X133042095Y-62928990D01*
X133119504Y-62967695D01*
X133351733Y-62967695D01*
X133429142Y-62928990D01*
X133467847Y-62890285D01*
X135406323Y-64167695D02*
X135406323Y-63354895D01*
X135096685Y-63354895D01*
X135019276Y-63393600D01*
X134980571Y-63432304D01*
X134941866Y-63509714D01*
X134941866Y-63625828D01*
X134980571Y-63703238D01*
X135019276Y-63741942D01*
X135096685Y-63780647D01*
X135406323Y-63780647D01*
X134322590Y-63741942D02*
X134206476Y-63780647D01*
X134167771Y-63819352D01*
X134129066Y-63896761D01*
X134129066Y-64012876D01*
X134167771Y-64090285D01*
X134206476Y-64128990D01*
X134283885Y-64167695D01*
X134593523Y-64167695D01*
X134593523Y-63354895D01*
X134322590Y-63354895D01*
X134245180Y-63393600D01*
X134206476Y-63432304D01*
X134167771Y-63509714D01*
X134167771Y-63587123D01*
X134206476Y-63664533D01*
X134245180Y-63703238D01*
X134322590Y-63741942D01*
X134593523Y-63741942D01*
X133858133Y-63354895D02*
X133316266Y-63354895D01*
X133664609Y-64167695D01*
X134912723Y-69654895D02*
X134448266Y-69654895D01*
X134680495Y-70467695D02*
X134680495Y-69654895D01*
X134177333Y-70467695D02*
X134177333Y-69654895D01*
X133867695Y-69654895D01*
X133790285Y-69693600D01*
X133751580Y-69732304D01*
X133712876Y-69809714D01*
X133712876Y-69925828D01*
X133751580Y-70003238D01*
X133790285Y-70041942D01*
X133867695Y-70080647D01*
X134177333Y-70080647D01*
X132938780Y-70467695D02*
X133403238Y-70467695D01*
X133171009Y-70467695D02*
X133171009Y-69654895D01*
X133248419Y-69771009D01*
X133325828Y-69848419D01*
X133403238Y-69887123D01*
X132629142Y-69732304D02*
X132590438Y-69693600D01*
X132513028Y-69654895D01*
X132319504Y-69654895D01*
X132242095Y-69693600D01*
X132203390Y-69732304D01*
X132164685Y-69809714D01*
X132164685Y-69887123D01*
X132203390Y-70003238D01*
X132667847Y-70467695D01*
X132164685Y-70467695D01*
X133625676Y-71767695D02*
X133625676Y-70954895D01*
X133316038Y-70954895D01*
X133238628Y-70993600D01*
X133199923Y-71032304D01*
X133161219Y-71109714D01*
X133161219Y-71225828D01*
X133199923Y-71303238D01*
X133238628Y-71341942D01*
X133316038Y-71380647D01*
X133625676Y-71380647D01*
X132812876Y-71767695D02*
X132812876Y-70954895D01*
X132812876Y-71341942D02*
X132348419Y-71341942D01*
X132348419Y-71767695D02*
X132348419Y-70954895D01*
X131535619Y-71767695D02*
X132000076Y-71767695D01*
X131767847Y-71767695D02*
X131767847Y-70954895D01*
X131845257Y-71071009D01*
X131922666Y-71148419D01*
X132000076Y-71187123D01*
X112312723Y-66454895D02*
X111848266Y-66454895D01*
X112080495Y-67267695D02*
X112080495Y-66454895D01*
X111577333Y-67267695D02*
X111577333Y-66454895D01*
X111267695Y-66454895D01*
X111190285Y-66493600D01*
X111151580Y-66532304D01*
X111112876Y-66609714D01*
X111112876Y-66725828D01*
X111151580Y-66803238D01*
X111190285Y-66841942D01*
X111267695Y-66880647D01*
X111577333Y-66880647D01*
X110338780Y-67267695D02*
X110803238Y-67267695D01*
X110571009Y-67267695D02*
X110571009Y-66454895D01*
X110648419Y-66571009D01*
X110725828Y-66648419D01*
X110803238Y-66687123D01*
X109564685Y-67267695D02*
X110029142Y-67267695D01*
X109796914Y-67267695D02*
X109796914Y-66454895D01*
X109874323Y-66571009D01*
X109951733Y-66648419D01*
X110029142Y-66687123D01*
X111848266Y-68467695D02*
X111848266Y-67654895D01*
X111538628Y-67654895D01*
X111461219Y-67693600D01*
X111422514Y-67732304D01*
X111383809Y-67809714D01*
X111383809Y-67925828D01*
X111422514Y-68003238D01*
X111461219Y-68041942D01*
X111538628Y-68080647D01*
X111848266Y-68080647D01*
X111074171Y-68235466D02*
X110687123Y-68235466D01*
X111151580Y-68467695D02*
X110880647Y-67654895D01*
X110609714Y-68467695D01*
X110222666Y-68003238D02*
X110300076Y-67964533D01*
X110338780Y-67925828D01*
X110377485Y-67848419D01*
X110377485Y-67809714D01*
X110338780Y-67732304D01*
X110300076Y-67693600D01*
X110222666Y-67654895D01*
X110067847Y-67654895D01*
X109990438Y-67693600D01*
X109951733Y-67732304D01*
X109913028Y-67809714D01*
X109913028Y-67848419D01*
X109951733Y-67925828D01*
X109990438Y-67964533D01*
X110067847Y-68003238D01*
X110222666Y-68003238D01*
X110300076Y-68041942D01*
X110338780Y-68080647D01*
X110377485Y-68158057D01*
X110377485Y-68312876D01*
X110338780Y-68390285D01*
X110300076Y-68428990D01*
X110222666Y-68467695D01*
X110067847Y-68467695D01*
X109990438Y-68428990D01*
X109951733Y-68390285D01*
X109913028Y-68312876D01*
X109913028Y-68158057D01*
X109951733Y-68080647D01*
X109990438Y-68041942D01*
X110067847Y-68003238D01*
X193341942Y-105361371D02*
X193380647Y-105477485D01*
X193419352Y-105516190D01*
X193496761Y-105554895D01*
X193612876Y-105554895D01*
X193690285Y-105516190D01*
X193728990Y-105477485D01*
X193767695Y-105400076D01*
X193767695Y-105090438D01*
X192954895Y-105090438D01*
X192954895Y-105361371D01*
X192993600Y-105438780D01*
X193032304Y-105477485D01*
X193109714Y-105516190D01*
X193187123Y-105516190D01*
X193264533Y-105477485D01*
X193303238Y-105438780D01*
X193341942Y-105361371D01*
X193341942Y-105090438D01*
X192954895Y-105787123D02*
X192954895Y-106251580D01*
X193767695Y-106019352D02*
X192954895Y-106019352D01*
X193767695Y-106948266D02*
X193767695Y-106483809D01*
X193767695Y-106716038D02*
X192954895Y-106716038D01*
X193071009Y-106638628D01*
X193148419Y-106561219D01*
X193187123Y-106483809D01*
D13*
X191166666Y-101083898D02*
X191166666Y-101560089D01*
X191452380Y-100952946D02*
X190452380Y-101411279D01*
X191452380Y-101619613D01*
X191166666Y-101941041D02*
X191166666Y-102417232D01*
X191452380Y-101810089D02*
X190452380Y-102268422D01*
X191452380Y-102476755D01*
X190452380Y-103887470D02*
X190452380Y-103982708D01*
X190500000Y-104071994D01*
X190547619Y-104113660D01*
X190642857Y-104149375D01*
X190833333Y-104173184D01*
X191071428Y-104143422D01*
X191261904Y-104071994D01*
X191357142Y-104012470D01*
X191404761Y-103958898D01*
X191452380Y-103857708D01*
X191452380Y-103762470D01*
X191404761Y-103673184D01*
X191357142Y-103631517D01*
X191261904Y-103595803D01*
X191071428Y-103571994D01*
X190833333Y-103601755D01*
X190642857Y-103673184D01*
X190547619Y-103732708D01*
X190500000Y-103786279D01*
X190452380Y-103887470D01*
X191357142Y-104536279D02*
X191404761Y-104577946D01*
X191452380Y-104524375D01*
X191404761Y-104482708D01*
X191357142Y-104536279D01*
X191452380Y-104524375D01*
X191452380Y-105048184D02*
X191452380Y-105238660D01*
X191404761Y-105339851D01*
X191357142Y-105393422D01*
X191214285Y-105506517D01*
X191023809Y-105577946D01*
X190642857Y-105625565D01*
X190547619Y-105589851D01*
X190500000Y-105548184D01*
X190452380Y-105458898D01*
X190452380Y-105268422D01*
X190500000Y-105167232D01*
X190547619Y-105113660D01*
X190642857Y-105054136D01*
X190880952Y-105024375D01*
X190976190Y-105060089D01*
X191023809Y-105101755D01*
X191071428Y-105191041D01*
X191071428Y-105381517D01*
X191023809Y-105482708D01*
X190976190Y-105536279D01*
X190880952Y-105595803D01*
X191071428Y-106000565D02*
X191071428Y-106762470D01*
X191452380Y-107714851D02*
X191452380Y-107143422D01*
X191452380Y-107429136D02*
X190452380Y-107554136D01*
X190595238Y-107441041D01*
X190690476Y-107333898D01*
X190738095Y-107232708D01*
X191357142Y-108155327D02*
X191404761Y-108196994D01*
X191452380Y-108143422D01*
X191404761Y-108101755D01*
X191357142Y-108155327D01*
X191452380Y-108143422D01*
X190880952Y-108833898D02*
X190833333Y-108744613D01*
X190785714Y-108702946D01*
X190690476Y-108667232D01*
X190642857Y-108673184D01*
X190547619Y-108732708D01*
X190500000Y-108786279D01*
X190452380Y-108887470D01*
X190452380Y-109077946D01*
X190500000Y-109167232D01*
X190547619Y-109208898D01*
X190642857Y-109244613D01*
X190690476Y-109238660D01*
X190785714Y-109179136D01*
X190833333Y-109125565D01*
X190880952Y-109024375D01*
X190880952Y-108833898D01*
X190928571Y-108732708D01*
X190976190Y-108679136D01*
X191071428Y-108619613D01*
X191261904Y-108595803D01*
X191357142Y-108631517D01*
X191404761Y-108673184D01*
X191452380Y-108762470D01*
X191452380Y-108952946D01*
X191404761Y-109054136D01*
X191357142Y-109107708D01*
X191261904Y-109167232D01*
X191071428Y-109191041D01*
X190976190Y-109155327D01*
X190928571Y-109113660D01*
X190880952Y-109024375D01*
X190452380Y-110316041D02*
X191452380Y-110524375D01*
X190452380Y-110982708D01*
D15*
X190585714Y-117442857D02*
X190585714Y-115157142D01*
X190585714Y-96842857D02*
X190585714Y-94557142D01*
X189442857Y-95700000D02*
X191728571Y-95700000D01*
D12*
X153138628Y-97541942D02*
X153022514Y-97580647D01*
X152983809Y-97619352D01*
X152945104Y-97696761D01*
X152945104Y-97812876D01*
X152983809Y-97890285D01*
X153022514Y-97928990D01*
X153099923Y-97967695D01*
X153409561Y-97967695D01*
X153409561Y-97154895D01*
X153138628Y-97154895D01*
X153061219Y-97193600D01*
X153022514Y-97232304D01*
X152983809Y-97309714D01*
X152983809Y-97387123D01*
X153022514Y-97464533D01*
X153061219Y-97503238D01*
X153138628Y-97541942D01*
X153409561Y-97541942D01*
X152712876Y-97154895D02*
X152248419Y-97154895D01*
X152480647Y-97967695D02*
X152480647Y-97154895D01*
X152016190Y-97232304D02*
X151977485Y-97193600D01*
X151900076Y-97154895D01*
X151706552Y-97154895D01*
X151629142Y-97193600D01*
X151590438Y-97232304D01*
X151551733Y-97309714D01*
X151551733Y-97387123D01*
X151590438Y-97503238D01*
X152054895Y-97967695D01*
X151551733Y-97967695D01*
D15*
X143342857Y-100414285D02*
X141057142Y-100414285D01*
X142200000Y-101557142D02*
X142200000Y-99271428D01*
X163942857Y-100414285D02*
X161657142Y-100414285D01*
D13*
X157416101Y-100166666D02*
X156939910Y-100166666D01*
X157547053Y-100452380D02*
X157088720Y-99452380D01*
X156880386Y-100452380D01*
X156558958Y-100166666D02*
X156082767Y-100166666D01*
X156689910Y-100452380D02*
X156231577Y-99452380D01*
X156023244Y-100452380D01*
X154612529Y-99452380D02*
X154517291Y-99452380D01*
X154428005Y-99500000D01*
X154386339Y-99547619D01*
X154350625Y-99642857D01*
X154326815Y-99833333D01*
X154356577Y-100071428D01*
X154428005Y-100261904D01*
X154487529Y-100357142D01*
X154541101Y-100404761D01*
X154642291Y-100452380D01*
X154737529Y-100452380D01*
X154826815Y-100404761D01*
X154868482Y-100357142D01*
X154904196Y-100261904D01*
X154928005Y-100071428D01*
X154898244Y-99833333D01*
X154826815Y-99642857D01*
X154767291Y-99547619D01*
X154713720Y-99500000D01*
X154612529Y-99452380D01*
X153963720Y-100357142D02*
X153922053Y-100404761D01*
X153975625Y-100452380D01*
X154017291Y-100404761D01*
X153963720Y-100357142D01*
X153975625Y-100452380D01*
X153451815Y-100452380D02*
X153261339Y-100452380D01*
X153160148Y-100404761D01*
X153106577Y-100357142D01*
X152993482Y-100214285D01*
X152922053Y-100023809D01*
X152874434Y-99642857D01*
X152910148Y-99547619D01*
X152951815Y-99500000D01*
X153041101Y-99452380D01*
X153231577Y-99452380D01*
X153332767Y-99500000D01*
X153386339Y-99547619D01*
X153445863Y-99642857D01*
X153475625Y-99880952D01*
X153439910Y-99976190D01*
X153398244Y-100023809D01*
X153308958Y-100071428D01*
X153118482Y-100071428D01*
X153017291Y-100023809D01*
X152963720Y-99976190D01*
X152904196Y-99880952D01*
X152499434Y-100071428D02*
X151737529Y-100071428D01*
X150785148Y-100452380D02*
X151356577Y-100452380D01*
X151070863Y-100452380D02*
X150945863Y-99452380D01*
X151058958Y-99595238D01*
X151166101Y-99690476D01*
X151267291Y-99738095D01*
X150344672Y-100357142D02*
X150303005Y-100404761D01*
X150356577Y-100452380D01*
X150398244Y-100404761D01*
X150344672Y-100357142D01*
X150356577Y-100452380D01*
X149666101Y-99880952D02*
X149755386Y-99833333D01*
X149797053Y-99785714D01*
X149832767Y-99690476D01*
X149826815Y-99642857D01*
X149767291Y-99547619D01*
X149713720Y-99500000D01*
X149612529Y-99452380D01*
X149422053Y-99452380D01*
X149332767Y-99500000D01*
X149291101Y-99547619D01*
X149255386Y-99642857D01*
X149261339Y-99690476D01*
X149320863Y-99785714D01*
X149374434Y-99833333D01*
X149475625Y-99880952D01*
X149666101Y-99880952D01*
X149767291Y-99928571D01*
X149820863Y-99976190D01*
X149880386Y-100071428D01*
X149904196Y-100261904D01*
X149868482Y-100357142D01*
X149826815Y-100404761D01*
X149737529Y-100452380D01*
X149547053Y-100452380D01*
X149445863Y-100404761D01*
X149392291Y-100357142D01*
X149332767Y-100261904D01*
X149308958Y-100071428D01*
X149344672Y-99976190D01*
X149386339Y-99928571D01*
X149475625Y-99880952D01*
X148183958Y-99452380D02*
X147975625Y-100452380D01*
X147517291Y-99452380D01*
D12*
X116341942Y-105361371D02*
X116380647Y-105477485D01*
X116419352Y-105516190D01*
X116496761Y-105554895D01*
X116612876Y-105554895D01*
X116690285Y-105516190D01*
X116728990Y-105477485D01*
X116767695Y-105400076D01*
X116767695Y-105090438D01*
X115954895Y-105090438D01*
X115954895Y-105361371D01*
X115993600Y-105438780D01*
X116032304Y-105477485D01*
X116109714Y-105516190D01*
X116187123Y-105516190D01*
X116264533Y-105477485D01*
X116303238Y-105438780D01*
X116341942Y-105361371D01*
X116341942Y-105090438D01*
X115954895Y-105787123D02*
X115954895Y-106251580D01*
X116767695Y-106019352D02*
X115954895Y-106019352D01*
X115954895Y-106445104D02*
X115954895Y-106948266D01*
X116264533Y-106677333D01*
X116264533Y-106793447D01*
X116303238Y-106870857D01*
X116341942Y-106909561D01*
X116419352Y-106948266D01*
X116612876Y-106948266D01*
X116690285Y-106909561D01*
X116728990Y-106870857D01*
X116767695Y-106793447D01*
X116767695Y-106561219D01*
X116728990Y-106483809D01*
X116690285Y-106445104D01*
D13*
X114166666Y-101083898D02*
X114166666Y-101560089D01*
X114452380Y-100952946D02*
X113452380Y-101411279D01*
X114452380Y-101619613D01*
X114166666Y-101941041D02*
X114166666Y-102417232D01*
X114452380Y-101810089D02*
X113452380Y-102268422D01*
X114452380Y-102476755D01*
X113452380Y-103887470D02*
X113452380Y-103982708D01*
X113500000Y-104071994D01*
X113547619Y-104113660D01*
X113642857Y-104149375D01*
X113833333Y-104173184D01*
X114071428Y-104143422D01*
X114261904Y-104071994D01*
X114357142Y-104012470D01*
X114404761Y-103958898D01*
X114452380Y-103857708D01*
X114452380Y-103762470D01*
X114404761Y-103673184D01*
X114357142Y-103631517D01*
X114261904Y-103595803D01*
X114071428Y-103571994D01*
X113833333Y-103601755D01*
X113642857Y-103673184D01*
X113547619Y-103732708D01*
X113500000Y-103786279D01*
X113452380Y-103887470D01*
X114357142Y-104536279D02*
X114404761Y-104577946D01*
X114452380Y-104524375D01*
X114404761Y-104482708D01*
X114357142Y-104536279D01*
X114452380Y-104524375D01*
X114452380Y-105048184D02*
X114452380Y-105238660D01*
X114404761Y-105339851D01*
X114357142Y-105393422D01*
X114214285Y-105506517D01*
X114023809Y-105577946D01*
X113642857Y-105625565D01*
X113547619Y-105589851D01*
X113500000Y-105548184D01*
X113452380Y-105458898D01*
X113452380Y-105268422D01*
X113500000Y-105167232D01*
X113547619Y-105113660D01*
X113642857Y-105054136D01*
X113880952Y-105024375D01*
X113976190Y-105060089D01*
X114023809Y-105101755D01*
X114071428Y-105191041D01*
X114071428Y-105381517D01*
X114023809Y-105482708D01*
X113976190Y-105536279D01*
X113880952Y-105595803D01*
X114071428Y-106000565D02*
X114071428Y-106762470D01*
X114452380Y-107714851D02*
X114452380Y-107143422D01*
X114452380Y-107429136D02*
X113452380Y-107554136D01*
X113595238Y-107441041D01*
X113690476Y-107333898D01*
X113738095Y-107232708D01*
X114357142Y-108155327D02*
X114404761Y-108196994D01*
X114452380Y-108143422D01*
X114404761Y-108101755D01*
X114357142Y-108155327D01*
X114452380Y-108143422D01*
X113880952Y-108833898D02*
X113833333Y-108744613D01*
X113785714Y-108702946D01*
X113690476Y-108667232D01*
X113642857Y-108673184D01*
X113547619Y-108732708D01*
X113500000Y-108786279D01*
X113452380Y-108887470D01*
X113452380Y-109077946D01*
X113500000Y-109167232D01*
X113547619Y-109208898D01*
X113642857Y-109244613D01*
X113690476Y-109238660D01*
X113785714Y-109179136D01*
X113833333Y-109125565D01*
X113880952Y-109024375D01*
X113880952Y-108833898D01*
X113928571Y-108732708D01*
X113976190Y-108679136D01*
X114071428Y-108619613D01*
X114261904Y-108595803D01*
X114357142Y-108631517D01*
X114404761Y-108673184D01*
X114452380Y-108762470D01*
X114452380Y-108952946D01*
X114404761Y-109054136D01*
X114357142Y-109107708D01*
X114261904Y-109167232D01*
X114071428Y-109191041D01*
X113976190Y-109155327D01*
X113928571Y-109113660D01*
X113880952Y-109024375D01*
X113452380Y-110316041D02*
X114452380Y-110524375D01*
X113452380Y-110982708D01*
D15*
X113585714Y-117442857D02*
X113585714Y-115157142D01*
X113585714Y-96842857D02*
X113585714Y-94557142D01*
X112442857Y-95700000D02*
X114728571Y-95700000D01*
D12*
X118025676Y-76002895D02*
X117561219Y-76002895D01*
X117793447Y-76815695D02*
X117793447Y-76002895D01*
X117290285Y-76815695D02*
X117290285Y-76002895D01*
X116980647Y-76002895D01*
X116903238Y-76041600D01*
X116864533Y-76080304D01*
X116825828Y-76157714D01*
X116825828Y-76273828D01*
X116864533Y-76351238D01*
X116903238Y-76389942D01*
X116980647Y-76428647D01*
X117290285Y-76428647D01*
X116129142Y-76273828D02*
X116129142Y-76815695D01*
X116322666Y-75964190D02*
X116516190Y-76544761D01*
X116013028Y-76544761D01*
X117919200Y-74167695D02*
X117919200Y-73354895D01*
X117725676Y-73354895D01*
X117609561Y-73393600D01*
X117532152Y-73471009D01*
X117493447Y-73548419D01*
X117454742Y-73703238D01*
X117454742Y-73819352D01*
X117493447Y-73974171D01*
X117532152Y-74051580D01*
X117609561Y-74128990D01*
X117725676Y-74167695D01*
X117919200Y-74167695D01*
X117106400Y-74167695D02*
X117106400Y-73354895D01*
X116564533Y-73354895D02*
X116409714Y-73354895D01*
X116332304Y-73393600D01*
X116254895Y-73471009D01*
X116216190Y-73625828D01*
X116216190Y-73896761D01*
X116254895Y-74051580D01*
X116332304Y-74128990D01*
X116409714Y-74167695D01*
X116564533Y-74167695D01*
X116641942Y-74128990D01*
X116719352Y-74051580D01*
X116758057Y-73896761D01*
X116758057Y-73625828D01*
X116719352Y-73471009D01*
X116641942Y-73393600D01*
X116564533Y-73354895D01*
X115713028Y-73354895D02*
X115635619Y-73354895D01*
X115558209Y-73393600D01*
X115519504Y-73432304D01*
X115480800Y-73509714D01*
X115442095Y-73664533D01*
X115442095Y-73858057D01*
X115480800Y-74012876D01*
X115519504Y-74090285D01*
X115558209Y-74128990D01*
X115635619Y-74167695D01*
X115713028Y-74167695D01*
X115790438Y-74128990D01*
X115829142Y-74090285D01*
X115867847Y-74012876D01*
X115906552Y-73858057D01*
X115906552Y-73664533D01*
X115867847Y-73509714D01*
X115829142Y-73432304D01*
X115790438Y-73393600D01*
X115713028Y-73354895D01*
X126390285Y-57577485D02*
X126428990Y-57538780D01*
X126467695Y-57422666D01*
X126467695Y-57345257D01*
X126428990Y-57229142D01*
X126351580Y-57151733D01*
X126274171Y-57113028D01*
X126119352Y-57074323D01*
X126003238Y-57074323D01*
X125848419Y-57113028D01*
X125771009Y-57151733D01*
X125693600Y-57229142D01*
X125654895Y-57345257D01*
X125654895Y-57422666D01*
X125693600Y-57538780D01*
X125732304Y-57577485D01*
X125732304Y-57887123D02*
X125693600Y-57925828D01*
X125654895Y-58003238D01*
X125654895Y-58196761D01*
X125693600Y-58274171D01*
X125732304Y-58312876D01*
X125809714Y-58351580D01*
X125887123Y-58351580D01*
X126003238Y-58312876D01*
X126467695Y-57848419D01*
X126467695Y-58351580D01*
X125654895Y-58854742D02*
X125654895Y-58932152D01*
X125693600Y-59009561D01*
X125732304Y-59048266D01*
X125809714Y-59086971D01*
X125964533Y-59125676D01*
X126158057Y-59125676D01*
X126312876Y-59086971D01*
X126390285Y-59048266D01*
X126428990Y-59009561D01*
X126467695Y-58932152D01*
X126467695Y-58854742D01*
X126428990Y-58777333D01*
X126390285Y-58738628D01*
X126312876Y-58699923D01*
X126158057Y-58661219D01*
X125964533Y-58661219D01*
X125809714Y-58699923D01*
X125732304Y-58738628D01*
X125693600Y-58777333D01*
X125654895Y-58854742D01*
X133478990Y-75916266D02*
X133517695Y-76032380D01*
X133517695Y-76225904D01*
X133478990Y-76303314D01*
X133440285Y-76342019D01*
X133362876Y-76380723D01*
X133285466Y-76380723D01*
X133208057Y-76342019D01*
X133169352Y-76303314D01*
X133130647Y-76225904D01*
X133091942Y-76071085D01*
X133053238Y-75993676D01*
X133014533Y-75954971D01*
X132937123Y-75916266D01*
X132859714Y-75916266D01*
X132782304Y-75954971D01*
X132743600Y-75993676D01*
X132704895Y-76071085D01*
X132704895Y-76264609D01*
X132743600Y-76380723D01*
X132704895Y-76651657D02*
X133517695Y-76845180D01*
X132937123Y-77000000D01*
X133517695Y-77154819D01*
X132704895Y-77348342D01*
X133517695Y-78083733D02*
X133517695Y-77619276D01*
X133517695Y-77851504D02*
X132704895Y-77851504D01*
X132821009Y-77774095D01*
X132898419Y-77696685D01*
X132937123Y-77619276D01*
X141717695Y-75819504D02*
X141330647Y-75548571D01*
X141717695Y-75355047D02*
X140904895Y-75355047D01*
X140904895Y-75664685D01*
X140943600Y-75742095D01*
X140982304Y-75780800D01*
X141059714Y-75819504D01*
X141175828Y-75819504D01*
X141253238Y-75780800D01*
X141291942Y-75742095D01*
X141330647Y-75664685D01*
X141330647Y-75355047D01*
X141291942Y-76167847D02*
X141291942Y-76438780D01*
X141717695Y-76554895D02*
X141717695Y-76167847D01*
X140904895Y-76167847D01*
X140904895Y-76554895D01*
X141678990Y-76864533D02*
X141717695Y-76980647D01*
X141717695Y-77174171D01*
X141678990Y-77251580D01*
X141640285Y-77290285D01*
X141562876Y-77328990D01*
X141485466Y-77328990D01*
X141408057Y-77290285D01*
X141369352Y-77251580D01*
X141330647Y-77174171D01*
X141291942Y-77019352D01*
X141253238Y-76941942D01*
X141214533Y-76903238D01*
X141137123Y-76864533D01*
X141059714Y-76864533D01*
X140982304Y-76903238D01*
X140943600Y-76941942D01*
X140904895Y-77019352D01*
X140904895Y-77212876D01*
X140943600Y-77328990D01*
X141291942Y-77677333D02*
X141291942Y-77948266D01*
X141717695Y-78064380D02*
X141717695Y-77677333D01*
X140904895Y-77677333D01*
X140904895Y-78064380D01*
X140904895Y-78296609D02*
X140904895Y-78761066D01*
X141717695Y-78528838D02*
X140904895Y-78528838D01*
X150119276Y-87024895D02*
X150119276Y-87682876D01*
X150080571Y-87760285D01*
X150041866Y-87798990D01*
X149964457Y-87837695D01*
X149809638Y-87837695D01*
X149732228Y-87798990D01*
X149693523Y-87760285D01*
X149654819Y-87682876D01*
X149654819Y-87024895D01*
X148919428Y-87295828D02*
X148919428Y-87837695D01*
X149112952Y-86986190D02*
X149306476Y-87566761D01*
X148803314Y-87566761D01*
X142035466Y-68267695D02*
X142306400Y-67880647D01*
X142499923Y-68267695D02*
X142499923Y-67454895D01*
X142190285Y-67454895D01*
X142112876Y-67493600D01*
X142074171Y-67532304D01*
X142035466Y-67609714D01*
X142035466Y-67725828D01*
X142074171Y-67803238D01*
X142112876Y-67841942D01*
X142190285Y-67880647D01*
X142499923Y-67880647D01*
X141571009Y-67803238D02*
X141648419Y-67764533D01*
X141687123Y-67725828D01*
X141725828Y-67648419D01*
X141725828Y-67609714D01*
X141687123Y-67532304D01*
X141648419Y-67493600D01*
X141571009Y-67454895D01*
X141416190Y-67454895D01*
X141338780Y-67493600D01*
X141300076Y-67532304D01*
X141261371Y-67609714D01*
X141261371Y-67648419D01*
X141300076Y-67725828D01*
X141338780Y-67764533D01*
X141416190Y-67803238D01*
X141571009Y-67803238D01*
X141648419Y-67841942D01*
X141687123Y-67880647D01*
X141725828Y-67958057D01*
X141725828Y-68112876D01*
X141687123Y-68190285D01*
X141648419Y-68228990D01*
X141571009Y-68267695D01*
X141416190Y-68267695D01*
X141338780Y-68228990D01*
X141300076Y-68190285D01*
X141261371Y-68112876D01*
X141261371Y-67958057D01*
X141300076Y-67880647D01*
X141338780Y-67841942D01*
X141416190Y-67803238D01*
X146235466Y-94667695D02*
X146506400Y-94280647D01*
X146699923Y-94667695D02*
X146699923Y-93854895D01*
X146390285Y-93854895D01*
X146312876Y-93893600D01*
X146274171Y-93932304D01*
X146235466Y-94009714D01*
X146235466Y-94125828D01*
X146274171Y-94203238D01*
X146312876Y-94241942D01*
X146390285Y-94280647D01*
X146699923Y-94280647D01*
X145964533Y-93854895D02*
X145422666Y-93854895D01*
X145771009Y-94667695D01*
X168615933Y-76144895D02*
X168615933Y-76725466D01*
X168654638Y-76841580D01*
X168732047Y-76918990D01*
X168848161Y-76957695D01*
X168925571Y-76957695D01*
X167880542Y-76415828D02*
X167880542Y-76957695D01*
X168074066Y-76106190D02*
X168267590Y-76686761D01*
X167764428Y-76686761D01*
X121367695Y-105664533D02*
X120980647Y-105393600D01*
X121367695Y-105200076D02*
X120554895Y-105200076D01*
X120554895Y-105509714D01*
X120593600Y-105587123D01*
X120632304Y-105625828D01*
X120709714Y-105664533D01*
X120825828Y-105664533D01*
X120903238Y-105625828D01*
X120941942Y-105587123D01*
X120980647Y-105509714D01*
X120980647Y-105200076D01*
X120554895Y-106361219D02*
X120554895Y-106206400D01*
X120593600Y-106128990D01*
X120632304Y-106090285D01*
X120748419Y-106012876D01*
X120903238Y-105974171D01*
X121212876Y-105974171D01*
X121290285Y-106012876D01*
X121328990Y-106051580D01*
X121367695Y-106128990D01*
X121367695Y-106283809D01*
X121328990Y-106361219D01*
X121290285Y-106399923D01*
X121212876Y-106438628D01*
X121019352Y-106438628D01*
X120941942Y-106399923D01*
X120903238Y-106361219D01*
X120864533Y-106283809D01*
X120864533Y-106128990D01*
X120903238Y-106051580D01*
X120941942Y-106012876D01*
X121019352Y-105974171D01*
X147035466Y-120567695D02*
X147306400Y-120180647D01*
X147499923Y-120567695D02*
X147499923Y-119754895D01*
X147190285Y-119754895D01*
X147112876Y-119793600D01*
X147074171Y-119832304D01*
X147035466Y-119909714D01*
X147035466Y-120025828D01*
X147074171Y-120103238D01*
X147112876Y-120141942D01*
X147190285Y-120180647D01*
X147499923Y-120180647D01*
X146300076Y-119754895D02*
X146687123Y-119754895D01*
X146725828Y-120141942D01*
X146687123Y-120103238D01*
X146609714Y-120064533D01*
X146416190Y-120064533D01*
X146338780Y-120103238D01*
X146300076Y-120141942D01*
X146261371Y-120219352D01*
X146261371Y-120412876D01*
X146300076Y-120490285D01*
X146338780Y-120528990D01*
X146416190Y-120567695D01*
X146609714Y-120567695D01*
X146687123Y-120528990D01*
X146725828Y-120490285D01*
X158135466Y-120417695D02*
X158406400Y-120030647D01*
X158599923Y-120417695D02*
X158599923Y-119604895D01*
X158290285Y-119604895D01*
X158212876Y-119643600D01*
X158174171Y-119682304D01*
X158135466Y-119759714D01*
X158135466Y-119875828D01*
X158174171Y-119953238D01*
X158212876Y-119991942D01*
X158290285Y-120030647D01*
X158599923Y-120030647D01*
X157438780Y-119875828D02*
X157438780Y-120417695D01*
X157632304Y-119566190D02*
X157825828Y-120146761D01*
X157322666Y-120146761D01*
X152977409Y-120645104D02*
X153054819Y-120606400D01*
X153132228Y-120528990D01*
X153248342Y-120412876D01*
X153325752Y-120374171D01*
X153403161Y-120374171D01*
X153364457Y-120567695D02*
X153441866Y-120528990D01*
X153519276Y-120451580D01*
X153557980Y-120296761D01*
X153557980Y-120025828D01*
X153519276Y-119871009D01*
X153441866Y-119793600D01*
X153364457Y-119754895D01*
X153209638Y-119754895D01*
X153132228Y-119793600D01*
X153054819Y-119871009D01*
X153016114Y-120025828D01*
X153016114Y-120296761D01*
X153054819Y-120451580D01*
X153132228Y-120528990D01*
X153209638Y-120567695D01*
X153364457Y-120567695D01*
X152242019Y-120567695D02*
X152706476Y-120567695D01*
X152474247Y-120567695D02*
X152474247Y-119754895D01*
X152551657Y-119871009D01*
X152629066Y-119948419D01*
X152706476Y-119987123D01*
X161535466Y-112367695D02*
X161922514Y-112367695D01*
X161922514Y-111554895D01*
X161303238Y-111632304D02*
X161264533Y-111593600D01*
X161187123Y-111554895D01*
X160993600Y-111554895D01*
X160916190Y-111593600D01*
X160877485Y-111632304D01*
X160838780Y-111709714D01*
X160838780Y-111787123D01*
X160877485Y-111903238D01*
X161341942Y-112367695D01*
X160838780Y-112367695D01*
X150499923Y-107567695D02*
X150499923Y-106754895D01*
X150306400Y-106754895D01*
X150190285Y-106793600D01*
X150112876Y-106871009D01*
X150074171Y-106948419D01*
X150035466Y-107103238D01*
X150035466Y-107219352D01*
X150074171Y-107374171D01*
X150112876Y-107451580D01*
X150190285Y-107528990D01*
X150306400Y-107567695D01*
X150499923Y-107567695D01*
X149338780Y-107025828D02*
X149338780Y-107567695D01*
X149532304Y-106716190D02*
X149725828Y-107296761D01*
X149222666Y-107296761D01*
X142999923Y-107567695D02*
X142999923Y-106754895D01*
X142806400Y-106754895D01*
X142690285Y-106793600D01*
X142612876Y-106871009D01*
X142574171Y-106948419D01*
X142535466Y-107103238D01*
X142535466Y-107219352D01*
X142574171Y-107374171D01*
X142612876Y-107451580D01*
X142690285Y-107528990D01*
X142806400Y-107567695D01*
X142999923Y-107567695D01*
X142225828Y-106832304D02*
X142187123Y-106793600D01*
X142109714Y-106754895D01*
X141916190Y-106754895D01*
X141838780Y-106793600D01*
X141800076Y-106832304D01*
X141761371Y-106909714D01*
X141761371Y-106987123D01*
X141800076Y-107103238D01*
X142264533Y-107567695D01*
X141761371Y-107567695D01*
X142999923Y-118567695D02*
X142999923Y-117754895D01*
X142806400Y-117754895D01*
X142690285Y-117793600D01*
X142612876Y-117871009D01*
X142574171Y-117948419D01*
X142535466Y-118103238D01*
X142535466Y-118219352D01*
X142574171Y-118374171D01*
X142612876Y-118451580D01*
X142690285Y-118528990D01*
X142806400Y-118567695D01*
X142999923Y-118567695D01*
X141761371Y-118567695D02*
X142225828Y-118567695D01*
X141993600Y-118567695D02*
X141993600Y-117754895D01*
X142071009Y-117871009D01*
X142148419Y-117948419D01*
X142225828Y-117987123D01*
X127290285Y-104977485D02*
X127328990Y-104938780D01*
X127367695Y-104822666D01*
X127367695Y-104745257D01*
X127328990Y-104629142D01*
X127251580Y-104551733D01*
X127174171Y-104513028D01*
X127019352Y-104474323D01*
X126903238Y-104474323D01*
X126748419Y-104513028D01*
X126671009Y-104551733D01*
X126593600Y-104629142D01*
X126554895Y-104745257D01*
X126554895Y-104822666D01*
X126593600Y-104938780D01*
X126632304Y-104977485D01*
X127367695Y-105751580D02*
X127367695Y-105287123D01*
X127367695Y-105519352D02*
X126554895Y-105519352D01*
X126671009Y-105441942D01*
X126748419Y-105364533D01*
X126787123Y-105287123D01*
X127367695Y-106138628D02*
X127367695Y-106293447D01*
X127328990Y-106370857D01*
X127290285Y-106409561D01*
X127174171Y-106486971D01*
X127019352Y-106525676D01*
X126709714Y-106525676D01*
X126632304Y-106486971D01*
X126593600Y-106448266D01*
X126554895Y-106370857D01*
X126554895Y-106216038D01*
X126593600Y-106138628D01*
X126632304Y-106099923D01*
X126709714Y-106061219D01*
X126903238Y-106061219D01*
X126980647Y-106099923D01*
X127019352Y-106138628D01*
X127058057Y-106216038D01*
X127058057Y-106370857D01*
X127019352Y-106448266D01*
X126980647Y-106486971D01*
X126903238Y-106525676D01*
X147922514Y-107490285D02*
X147961219Y-107528990D01*
X148077333Y-107567695D01*
X148154742Y-107567695D01*
X148270857Y-107528990D01*
X148348266Y-107451580D01*
X148386971Y-107374171D01*
X148425676Y-107219352D01*
X148425676Y-107103238D01*
X148386971Y-106948419D01*
X148348266Y-106871009D01*
X148270857Y-106793600D01*
X148154742Y-106754895D01*
X148077333Y-106754895D01*
X147961219Y-106793600D01*
X147922514Y-106832304D01*
X147148419Y-107567695D02*
X147612876Y-107567695D01*
X147380647Y-107567695D02*
X147380647Y-106754895D01*
X147458057Y-106871009D01*
X147535466Y-106948419D01*
X147612876Y-106987123D01*
X146683961Y-107103238D02*
X146761371Y-107064533D01*
X146800076Y-107025828D01*
X146838780Y-106948419D01*
X146838780Y-106909714D01*
X146800076Y-106832304D01*
X146761371Y-106793600D01*
X146683961Y-106754895D01*
X146529142Y-106754895D01*
X146451733Y-106793600D01*
X146413028Y-106832304D01*
X146374323Y-106909714D01*
X146374323Y-106948419D01*
X146413028Y-107025828D01*
X146451733Y-107064533D01*
X146529142Y-107103238D01*
X146683961Y-107103238D01*
X146761371Y-107141942D01*
X146800076Y-107180647D01*
X146838780Y-107258057D01*
X146838780Y-107412876D01*
X146800076Y-107490285D01*
X146761371Y-107528990D01*
X146683961Y-107567695D01*
X146529142Y-107567695D01*
X146451733Y-107528990D01*
X146413028Y-107490285D01*
X146374323Y-107412876D01*
X146374323Y-107258057D01*
X146413028Y-107180647D01*
X146451733Y-107141942D01*
X146529142Y-107103238D01*
X152722514Y-107490285D02*
X152761219Y-107528990D01*
X152877333Y-107567695D01*
X152954742Y-107567695D01*
X153070857Y-107528990D01*
X153148266Y-107451580D01*
X153186971Y-107374171D01*
X153225676Y-107219352D01*
X153225676Y-107103238D01*
X153186971Y-106948419D01*
X153148266Y-106871009D01*
X153070857Y-106793600D01*
X152954742Y-106754895D01*
X152877333Y-106754895D01*
X152761219Y-106793600D01*
X152722514Y-106832304D01*
X151948419Y-107567695D02*
X152412876Y-107567695D01*
X152180647Y-107567695D02*
X152180647Y-106754895D01*
X152258057Y-106871009D01*
X152335466Y-106948419D01*
X152412876Y-106987123D01*
X151677485Y-106754895D02*
X151135619Y-106754895D01*
X151483961Y-107567695D01*
X150922514Y-114990285D02*
X150961219Y-115028990D01*
X151077333Y-115067695D01*
X151154742Y-115067695D01*
X151270857Y-115028990D01*
X151348266Y-114951580D01*
X151386971Y-114874171D01*
X151425676Y-114719352D01*
X151425676Y-114603238D01*
X151386971Y-114448419D01*
X151348266Y-114371009D01*
X151270857Y-114293600D01*
X151154742Y-114254895D01*
X151077333Y-114254895D01*
X150961219Y-114293600D01*
X150922514Y-114332304D01*
X150148419Y-115067695D02*
X150612876Y-115067695D01*
X150380647Y-115067695D02*
X150380647Y-114254895D01*
X150458057Y-114371009D01*
X150535466Y-114448419D01*
X150612876Y-114487123D01*
X149451733Y-114254895D02*
X149606552Y-114254895D01*
X149683961Y-114293600D01*
X149722666Y-114332304D01*
X149800076Y-114448419D01*
X149838780Y-114603238D01*
X149838780Y-114912876D01*
X149800076Y-114990285D01*
X149761371Y-115028990D01*
X149683961Y-115067695D01*
X149529142Y-115067695D01*
X149451733Y-115028990D01*
X149413028Y-114990285D01*
X149374323Y-114912876D01*
X149374323Y-114719352D01*
X149413028Y-114641942D01*
X149451733Y-114603238D01*
X149529142Y-114564533D01*
X149683961Y-114564533D01*
X149761371Y-114603238D01*
X149800076Y-114641942D01*
X149838780Y-114719352D01*
X145422514Y-107490285D02*
X145461219Y-107528990D01*
X145577333Y-107567695D01*
X145654742Y-107567695D01*
X145770857Y-107528990D01*
X145848266Y-107451580D01*
X145886971Y-107374171D01*
X145925676Y-107219352D01*
X145925676Y-107103238D01*
X145886971Y-106948419D01*
X145848266Y-106871009D01*
X145770857Y-106793600D01*
X145654742Y-106754895D01*
X145577333Y-106754895D01*
X145461219Y-106793600D01*
X145422514Y-106832304D01*
X144648419Y-107567695D02*
X145112876Y-107567695D01*
X144880647Y-107567695D02*
X144880647Y-106754895D01*
X144958057Y-106871009D01*
X145035466Y-106948419D01*
X145112876Y-106987123D01*
X143913028Y-106754895D02*
X144300076Y-106754895D01*
X144338780Y-107141942D01*
X144300076Y-107103238D01*
X144222666Y-107064533D01*
X144029142Y-107064533D01*
X143951733Y-107103238D01*
X143913028Y-107141942D01*
X143874323Y-107219352D01*
X143874323Y-107412876D01*
X143913028Y-107490285D01*
X143951733Y-107528990D01*
X144029142Y-107567695D01*
X144222666Y-107567695D01*
X144300076Y-107528990D01*
X144338780Y-107490285D01*
X143256776Y-86954895D02*
X143256776Y-87612876D01*
X143218071Y-87690285D01*
X143179366Y-87728990D01*
X143101957Y-87767695D01*
X142947138Y-87767695D01*
X142869728Y-87728990D01*
X142831023Y-87690285D01*
X142792319Y-87612876D01*
X142792319Y-86954895D01*
X142482680Y-86954895D02*
X141979519Y-86954895D01*
X142250452Y-87264533D01*
X142134338Y-87264533D01*
X142056928Y-87303238D01*
X142018223Y-87341942D01*
X141979519Y-87419352D01*
X141979519Y-87612876D01*
X142018223Y-87690285D01*
X142056928Y-87728990D01*
X142134338Y-87767695D01*
X142366566Y-87767695D01*
X142443976Y-87728990D01*
X142482680Y-87690285D01*
X124525676Y-82002895D02*
X124061219Y-82002895D01*
X124293447Y-82815695D02*
X124293447Y-82002895D01*
X123790285Y-82815695D02*
X123790285Y-82002895D01*
X123480647Y-82002895D01*
X123403238Y-82041600D01*
X123364533Y-82080304D01*
X123325828Y-82157714D01*
X123325828Y-82273828D01*
X123364533Y-82351238D01*
X123403238Y-82389942D01*
X123480647Y-82428647D01*
X123790285Y-82428647D01*
X122938780Y-82815695D02*
X122783961Y-82815695D01*
X122706552Y-82776990D01*
X122667847Y-82738285D01*
X122590438Y-82622171D01*
X122551733Y-82467352D01*
X122551733Y-82157714D01*
X122590438Y-82080304D01*
X122629142Y-82041600D01*
X122706552Y-82002895D01*
X122861371Y-82002895D01*
X122938780Y-82041600D01*
X122977485Y-82080304D01*
X123016190Y-82157714D01*
X123016190Y-82351238D01*
X122977485Y-82428647D01*
X122938780Y-82467352D01*
X122861371Y-82506057D01*
X122706552Y-82506057D01*
X122629142Y-82467352D01*
X122590438Y-82428647D01*
X122551733Y-82351238D01*
X123867695Y-83380800D02*
X123054895Y-83380800D01*
X123054895Y-83574323D01*
X123093600Y-83690438D01*
X123171009Y-83767847D01*
X123248419Y-83806552D01*
X123403238Y-83845257D01*
X123519352Y-83845257D01*
X123674171Y-83806552D01*
X123751580Y-83767847D01*
X123828990Y-83690438D01*
X123867695Y-83574323D01*
X123867695Y-83380800D01*
X123867695Y-84193600D02*
X123054895Y-84193600D01*
X123054895Y-84735466D02*
X123054895Y-84890285D01*
X123093600Y-84967695D01*
X123171009Y-85045104D01*
X123325828Y-85083809D01*
X123596761Y-85083809D01*
X123751580Y-85045104D01*
X123828990Y-84967695D01*
X123867695Y-84890285D01*
X123867695Y-84735466D01*
X123828990Y-84658057D01*
X123751580Y-84580647D01*
X123596761Y-84541942D01*
X123325828Y-84541942D01*
X123171009Y-84580647D01*
X123093600Y-84658057D01*
X123054895Y-84735466D01*
X123054895Y-85819200D02*
X123054895Y-85432152D01*
X123441942Y-85393447D01*
X123403238Y-85432152D01*
X123364533Y-85509561D01*
X123364533Y-85703085D01*
X123403238Y-85780495D01*
X123441942Y-85819200D01*
X123519352Y-85857904D01*
X123712876Y-85857904D01*
X123790285Y-85819200D01*
X123828990Y-85780495D01*
X123867695Y-85703085D01*
X123867695Y-85509561D01*
X123828990Y-85432152D01*
X123790285Y-85393447D01*
X120525676Y-76002895D02*
X120061219Y-76002895D01*
X120293447Y-76815695D02*
X120293447Y-76002895D01*
X119790285Y-76815695D02*
X119790285Y-76002895D01*
X119480647Y-76002895D01*
X119403238Y-76041600D01*
X119364533Y-76080304D01*
X119325828Y-76157714D01*
X119325828Y-76273828D01*
X119364533Y-76351238D01*
X119403238Y-76389942D01*
X119480647Y-76428647D01*
X119790285Y-76428647D01*
X118861371Y-76351238D02*
X118938780Y-76312533D01*
X118977485Y-76273828D01*
X119016190Y-76196419D01*
X119016190Y-76157714D01*
X118977485Y-76080304D01*
X118938780Y-76041600D01*
X118861371Y-76002895D01*
X118706552Y-76002895D01*
X118629142Y-76041600D01*
X118590438Y-76080304D01*
X118551733Y-76157714D01*
X118551733Y-76196419D01*
X118590438Y-76273828D01*
X118629142Y-76312533D01*
X118706552Y-76351238D01*
X118861371Y-76351238D01*
X118938780Y-76389942D01*
X118977485Y-76428647D01*
X119016190Y-76506057D01*
X119016190Y-76660876D01*
X118977485Y-76738285D01*
X118938780Y-76776990D01*
X118861371Y-76815695D01*
X118706552Y-76815695D01*
X118629142Y-76776990D01*
X118590438Y-76738285D01*
X118551733Y-76660876D01*
X118551733Y-76506057D01*
X118590438Y-76428647D01*
X118629142Y-76389942D01*
X118706552Y-76351238D01*
X121019200Y-74167695D02*
X121019200Y-73354895D01*
X120825676Y-73354895D01*
X120709561Y-73393600D01*
X120632152Y-73471009D01*
X120593447Y-73548419D01*
X120554742Y-73703238D01*
X120554742Y-73819352D01*
X120593447Y-73974171D01*
X120632152Y-74051580D01*
X120709561Y-74128990D01*
X120825676Y-74167695D01*
X121019200Y-74167695D01*
X120206400Y-74167695D02*
X120206400Y-73354895D01*
X119664533Y-73354895D02*
X119509714Y-73354895D01*
X119432304Y-73393600D01*
X119354895Y-73471009D01*
X119316190Y-73625828D01*
X119316190Y-73896761D01*
X119354895Y-74051580D01*
X119432304Y-74128990D01*
X119509714Y-74167695D01*
X119664533Y-74167695D01*
X119741942Y-74128990D01*
X119819352Y-74051580D01*
X119858057Y-73896761D01*
X119858057Y-73625828D01*
X119819352Y-73471009D01*
X119741942Y-73393600D01*
X119664533Y-73354895D01*
X118619504Y-73625828D02*
X118619504Y-74167695D01*
X118813028Y-73316190D02*
X119006552Y-73896761D01*
X118503390Y-73896761D01*
X127025676Y-82002895D02*
X126561219Y-82002895D01*
X126793447Y-82815695D02*
X126793447Y-82002895D01*
X126290285Y-82815695D02*
X126290285Y-82002895D01*
X125980647Y-82002895D01*
X125903238Y-82041600D01*
X125864533Y-82080304D01*
X125825828Y-82157714D01*
X125825828Y-82273828D01*
X125864533Y-82351238D01*
X125903238Y-82389942D01*
X125980647Y-82428647D01*
X126290285Y-82428647D01*
X125554895Y-82002895D02*
X125013028Y-82002895D01*
X125361371Y-82815695D01*
X126367695Y-83380800D02*
X125554895Y-83380800D01*
X125554895Y-83574323D01*
X125593600Y-83690438D01*
X125671009Y-83767847D01*
X125748419Y-83806552D01*
X125903238Y-83845257D01*
X126019352Y-83845257D01*
X126174171Y-83806552D01*
X126251580Y-83767847D01*
X126328990Y-83690438D01*
X126367695Y-83574323D01*
X126367695Y-83380800D01*
X126367695Y-84193600D02*
X125554895Y-84193600D01*
X125554895Y-84735466D02*
X125554895Y-84890285D01*
X125593600Y-84967695D01*
X125671009Y-85045104D01*
X125825828Y-85083809D01*
X126096761Y-85083809D01*
X126251580Y-85045104D01*
X126328990Y-84967695D01*
X126367695Y-84890285D01*
X126367695Y-84735466D01*
X126328990Y-84658057D01*
X126251580Y-84580647D01*
X126096761Y-84541942D01*
X125825828Y-84541942D01*
X125671009Y-84580647D01*
X125593600Y-84658057D01*
X125554895Y-84735466D01*
X125554895Y-85354742D02*
X125554895Y-85857904D01*
X125864533Y-85586971D01*
X125864533Y-85703085D01*
X125903238Y-85780495D01*
X125941942Y-85819200D01*
X126019352Y-85857904D01*
X126212876Y-85857904D01*
X126290285Y-85819200D01*
X126328990Y-85780495D01*
X126367695Y-85703085D01*
X126367695Y-85470857D01*
X126328990Y-85393447D01*
X126290285Y-85354742D01*
X129525676Y-82002895D02*
X129061219Y-82002895D01*
X129293447Y-82815695D02*
X129293447Y-82002895D01*
X128790285Y-82815695D02*
X128790285Y-82002895D01*
X128480647Y-82002895D01*
X128403238Y-82041600D01*
X128364533Y-82080304D01*
X128325828Y-82157714D01*
X128325828Y-82273828D01*
X128364533Y-82351238D01*
X128403238Y-82389942D01*
X128480647Y-82428647D01*
X128790285Y-82428647D01*
X127629142Y-82002895D02*
X127783961Y-82002895D01*
X127861371Y-82041600D01*
X127900076Y-82080304D01*
X127977485Y-82196419D01*
X128016190Y-82351238D01*
X128016190Y-82660876D01*
X127977485Y-82738285D01*
X127938780Y-82776990D01*
X127861371Y-82815695D01*
X127706552Y-82815695D01*
X127629142Y-82776990D01*
X127590438Y-82738285D01*
X127551733Y-82660876D01*
X127551733Y-82467352D01*
X127590438Y-82389942D01*
X127629142Y-82351238D01*
X127706552Y-82312533D01*
X127861371Y-82312533D01*
X127938780Y-82351238D01*
X127977485Y-82389942D01*
X128016190Y-82467352D01*
X128867695Y-83380800D02*
X128054895Y-83380800D01*
X128054895Y-83574323D01*
X128093600Y-83690438D01*
X128171009Y-83767847D01*
X128248419Y-83806552D01*
X128403238Y-83845257D01*
X128519352Y-83845257D01*
X128674171Y-83806552D01*
X128751580Y-83767847D01*
X128828990Y-83690438D01*
X128867695Y-83574323D01*
X128867695Y-83380800D01*
X128867695Y-84193600D02*
X128054895Y-84193600D01*
X128054895Y-84735466D02*
X128054895Y-84890285D01*
X128093600Y-84967695D01*
X128171009Y-85045104D01*
X128325828Y-85083809D01*
X128596761Y-85083809D01*
X128751580Y-85045104D01*
X128828990Y-84967695D01*
X128867695Y-84890285D01*
X128867695Y-84735466D01*
X128828990Y-84658057D01*
X128751580Y-84580647D01*
X128596761Y-84541942D01*
X128325828Y-84541942D01*
X128171009Y-84580647D01*
X128093600Y-84658057D01*
X128054895Y-84735466D01*
X128132304Y-85393447D02*
X128093600Y-85432152D01*
X128054895Y-85509561D01*
X128054895Y-85703085D01*
X128093600Y-85780495D01*
X128132304Y-85819200D01*
X128209714Y-85857904D01*
X128287123Y-85857904D01*
X128403238Y-85819200D01*
X128867695Y-85354742D01*
X128867695Y-85857904D01*
X122025676Y-82002895D02*
X121561219Y-82002895D01*
X121793447Y-82815695D02*
X121793447Y-82002895D01*
X121290285Y-82815695D02*
X121290285Y-82002895D01*
X120980647Y-82002895D01*
X120903238Y-82041600D01*
X120864533Y-82080304D01*
X120825828Y-82157714D01*
X120825828Y-82273828D01*
X120864533Y-82351238D01*
X120903238Y-82389942D01*
X120980647Y-82428647D01*
X121290285Y-82428647D01*
X120090438Y-82002895D02*
X120477485Y-82002895D01*
X120516190Y-82389942D01*
X120477485Y-82351238D01*
X120400076Y-82312533D01*
X120206552Y-82312533D01*
X120129142Y-82351238D01*
X120090438Y-82389942D01*
X120051733Y-82467352D01*
X120051733Y-82660876D01*
X120090438Y-82738285D01*
X120129142Y-82776990D01*
X120206552Y-82815695D01*
X120400076Y-82815695D01*
X120477485Y-82776990D01*
X120516190Y-82738285D01*
X121367695Y-83380800D02*
X120554895Y-83380800D01*
X120554895Y-83574323D01*
X120593600Y-83690438D01*
X120671009Y-83767847D01*
X120748419Y-83806552D01*
X120903238Y-83845257D01*
X121019352Y-83845257D01*
X121174171Y-83806552D01*
X121251580Y-83767847D01*
X121328990Y-83690438D01*
X121367695Y-83574323D01*
X121367695Y-83380800D01*
X121367695Y-84193600D02*
X120554895Y-84193600D01*
X120554895Y-84735466D02*
X120554895Y-84890285D01*
X120593600Y-84967695D01*
X120671009Y-85045104D01*
X120825828Y-85083809D01*
X121096761Y-85083809D01*
X121251580Y-85045104D01*
X121328990Y-84967695D01*
X121367695Y-84890285D01*
X121367695Y-84735466D01*
X121328990Y-84658057D01*
X121251580Y-84580647D01*
X121096761Y-84541942D01*
X120825828Y-84541942D01*
X120671009Y-84580647D01*
X120593600Y-84658057D01*
X120554895Y-84735466D01*
X121367695Y-85857904D02*
X121367695Y-85393447D01*
X121367695Y-85625676D02*
X120554895Y-85625676D01*
X120671009Y-85548266D01*
X120748419Y-85470857D01*
X120787123Y-85393447D01*
X122725676Y-53154895D02*
X122261219Y-53154895D01*
X122493447Y-53967695D02*
X122493447Y-53154895D01*
X121990285Y-53967695D02*
X121990285Y-53154895D01*
X121680647Y-53154895D01*
X121603238Y-53193600D01*
X121564533Y-53232304D01*
X121525828Y-53309714D01*
X121525828Y-53425828D01*
X121564533Y-53503238D01*
X121603238Y-53541942D01*
X121680647Y-53580647D01*
X121990285Y-53580647D01*
X121254895Y-53154895D02*
X120751733Y-53154895D01*
X121022666Y-53464533D01*
X120906552Y-53464533D01*
X120829142Y-53503238D01*
X120790438Y-53541942D01*
X120751733Y-53619352D01*
X120751733Y-53812876D01*
X120790438Y-53890285D01*
X120829142Y-53928990D01*
X120906552Y-53967695D01*
X121138780Y-53967695D01*
X121216190Y-53928990D01*
X121254895Y-53890285D01*
X120190209Y-55090285D02*
X120228914Y-55128990D01*
X120345028Y-55167695D01*
X120422438Y-55167695D01*
X120538552Y-55128990D01*
X120615961Y-55051580D01*
X120654666Y-54974171D01*
X120693371Y-54819352D01*
X120693371Y-54703238D01*
X120654666Y-54548419D01*
X120615961Y-54471009D01*
X120538552Y-54393600D01*
X120422438Y-54354895D01*
X120345028Y-54354895D01*
X120228914Y-54393600D01*
X120190209Y-54432304D01*
X119377409Y-55167695D02*
X119648342Y-54780647D01*
X119841866Y-55167695D02*
X119841866Y-54354895D01*
X119532228Y-54354895D01*
X119454819Y-54393600D01*
X119416114Y-54432304D01*
X119377409Y-54509714D01*
X119377409Y-54625828D01*
X119416114Y-54703238D01*
X119454819Y-54741942D01*
X119532228Y-54780647D01*
X119841866Y-54780647D01*
X118758133Y-54741942D02*
X119029066Y-54741942D01*
X119029066Y-55167695D02*
X119029066Y-54354895D01*
X118642019Y-54354895D01*
X118409790Y-54354895D02*
X117906628Y-54354895D01*
X118177561Y-54664533D01*
X118061447Y-54664533D01*
X117984038Y-54703238D01*
X117945333Y-54741942D01*
X117906628Y-54819352D01*
X117906628Y-55012876D01*
X117945333Y-55090285D01*
X117984038Y-55128990D01*
X118061447Y-55167695D01*
X118293676Y-55167695D01*
X118371085Y-55128990D01*
X118409790Y-55090285D01*
X122725676Y-50554895D02*
X122261219Y-50554895D01*
X122493447Y-51367695D02*
X122493447Y-50554895D01*
X121990285Y-51367695D02*
X121990285Y-50554895D01*
X121680647Y-50554895D01*
X121603238Y-50593600D01*
X121564533Y-50632304D01*
X121525828Y-50709714D01*
X121525828Y-50825828D01*
X121564533Y-50903238D01*
X121603238Y-50941942D01*
X121680647Y-50980647D01*
X121990285Y-50980647D01*
X121216190Y-50632304D02*
X121177485Y-50593600D01*
X121100076Y-50554895D01*
X120906552Y-50554895D01*
X120829142Y-50593600D01*
X120790438Y-50632304D01*
X120751733Y-50709714D01*
X120751733Y-50787123D01*
X120790438Y-50903238D01*
X121254895Y-51367695D01*
X120751733Y-51367695D01*
X120190209Y-52490285D02*
X120228914Y-52528990D01*
X120345028Y-52567695D01*
X120422438Y-52567695D01*
X120538552Y-52528990D01*
X120615961Y-52451580D01*
X120654666Y-52374171D01*
X120693371Y-52219352D01*
X120693371Y-52103238D01*
X120654666Y-51948419D01*
X120615961Y-51871009D01*
X120538552Y-51793600D01*
X120422438Y-51754895D01*
X120345028Y-51754895D01*
X120228914Y-51793600D01*
X120190209Y-51832304D01*
X119377409Y-52567695D02*
X119648342Y-52180647D01*
X119841866Y-52567695D02*
X119841866Y-51754895D01*
X119532228Y-51754895D01*
X119454819Y-51793600D01*
X119416114Y-51832304D01*
X119377409Y-51909714D01*
X119377409Y-52025828D01*
X119416114Y-52103238D01*
X119454819Y-52141942D01*
X119532228Y-52180647D01*
X119841866Y-52180647D01*
X118758133Y-52141942D02*
X119029066Y-52141942D01*
X119029066Y-52567695D02*
X119029066Y-51754895D01*
X118642019Y-51754895D01*
X118371085Y-51832304D02*
X118332380Y-51793600D01*
X118254971Y-51754895D01*
X118061447Y-51754895D01*
X117984038Y-51793600D01*
X117945333Y-51832304D01*
X117906628Y-51909714D01*
X117906628Y-51987123D01*
X117945333Y-52103238D01*
X118409790Y-52567695D01*
X117906628Y-52567695D01*
X122725676Y-55754895D02*
X122261219Y-55754895D01*
X122493447Y-56567695D02*
X122493447Y-55754895D01*
X121990285Y-56567695D02*
X121990285Y-55754895D01*
X121680647Y-55754895D01*
X121603238Y-55793600D01*
X121564533Y-55832304D01*
X121525828Y-55909714D01*
X121525828Y-56025828D01*
X121564533Y-56103238D01*
X121603238Y-56141942D01*
X121680647Y-56180647D01*
X121990285Y-56180647D01*
X120751733Y-56567695D02*
X121216190Y-56567695D01*
X120983961Y-56567695D02*
X120983961Y-55754895D01*
X121061371Y-55871009D01*
X121138780Y-55948419D01*
X121216190Y-55987123D01*
X122590209Y-59090285D02*
X122628914Y-59128990D01*
X122745028Y-59167695D01*
X122822438Y-59167695D01*
X122938552Y-59128990D01*
X123015961Y-59051580D01*
X123054666Y-58974171D01*
X123093371Y-58819352D01*
X123093371Y-58703238D01*
X123054666Y-58548419D01*
X123015961Y-58471009D01*
X122938552Y-58393600D01*
X122822438Y-58354895D01*
X122745028Y-58354895D01*
X122628914Y-58393600D01*
X122590209Y-58432304D01*
X121777409Y-59167695D02*
X122048342Y-58780647D01*
X122241866Y-59167695D02*
X122241866Y-58354895D01*
X121932228Y-58354895D01*
X121854819Y-58393600D01*
X121816114Y-58432304D01*
X121777409Y-58509714D01*
X121777409Y-58625828D01*
X121816114Y-58703238D01*
X121854819Y-58741942D01*
X121932228Y-58780647D01*
X122241866Y-58780647D01*
X121158133Y-58741942D02*
X121429066Y-58741942D01*
X121429066Y-59167695D02*
X121429066Y-58354895D01*
X121042019Y-58354895D01*
X120306628Y-59167695D02*
X120771085Y-59167695D01*
X120538857Y-59167695D02*
X120538857Y-58354895D01*
X120616266Y-58471009D01*
X120693676Y-58548419D01*
X120771085Y-58587123D01*
X144435466Y-85867695D02*
X144706400Y-85480647D01*
X144899923Y-85867695D02*
X144899923Y-85054895D01*
X144590285Y-85054895D01*
X144512876Y-85093600D01*
X144474171Y-85132304D01*
X144435466Y-85209714D01*
X144435466Y-85325828D01*
X144474171Y-85403238D01*
X144512876Y-85441942D01*
X144590285Y-85480647D01*
X144899923Y-85480647D01*
X144164533Y-85054895D02*
X143661371Y-85054895D01*
X143932304Y-85364533D01*
X143816190Y-85364533D01*
X143738780Y-85403238D01*
X143700076Y-85441942D01*
X143661371Y-85519352D01*
X143661371Y-85712876D01*
X143700076Y-85790285D01*
X143738780Y-85828990D01*
X143816190Y-85867695D01*
X144048419Y-85867695D01*
X144125828Y-85828990D01*
X144164533Y-85790285D01*
X135572966Y-89767695D02*
X135960014Y-89767695D01*
X135960014Y-88954895D01*
X134876280Y-89767695D02*
X135340738Y-89767695D01*
X135108509Y-89767695D02*
X135108509Y-88954895D01*
X135185919Y-89071009D01*
X135263328Y-89148419D01*
X135340738Y-89187123D01*
X123290285Y-104977485D02*
X123328990Y-104938780D01*
X123367695Y-104822666D01*
X123367695Y-104745257D01*
X123328990Y-104629142D01*
X123251580Y-104551733D01*
X123174171Y-104513028D01*
X123019352Y-104474323D01*
X122903238Y-104474323D01*
X122748419Y-104513028D01*
X122671009Y-104551733D01*
X122593600Y-104629142D01*
X122554895Y-104745257D01*
X122554895Y-104822666D01*
X122593600Y-104938780D01*
X122632304Y-104977485D01*
X123367695Y-105751580D02*
X123367695Y-105287123D01*
X123367695Y-105519352D02*
X122554895Y-105519352D01*
X122671009Y-105441942D01*
X122748419Y-105364533D01*
X122787123Y-105287123D01*
X122825828Y-106448266D02*
X123367695Y-106448266D01*
X122516190Y-106254742D02*
X123096761Y-106061219D01*
X123096761Y-106564380D01*
X125290285Y-104977485D02*
X125328990Y-104938780D01*
X125367695Y-104822666D01*
X125367695Y-104745257D01*
X125328990Y-104629142D01*
X125251580Y-104551733D01*
X125174171Y-104513028D01*
X125019352Y-104474323D01*
X124903238Y-104474323D01*
X124748419Y-104513028D01*
X124671009Y-104551733D01*
X124593600Y-104629142D01*
X124554895Y-104745257D01*
X124554895Y-104822666D01*
X124593600Y-104938780D01*
X124632304Y-104977485D01*
X125367695Y-105751580D02*
X125367695Y-105287123D01*
X125367695Y-105519352D02*
X124554895Y-105519352D01*
X124671009Y-105441942D01*
X124748419Y-105364533D01*
X124787123Y-105287123D01*
X124554895Y-106022514D02*
X124554895Y-106525676D01*
X124864533Y-106254742D01*
X124864533Y-106370857D01*
X124903238Y-106448266D01*
X124941942Y-106486971D01*
X125019352Y-106525676D01*
X125212876Y-106525676D01*
X125290285Y-106486971D01*
X125328990Y-106448266D01*
X125367695Y-106370857D01*
X125367695Y-106138628D01*
X125328990Y-106061219D01*
X125290285Y-106022514D01*
X131290285Y-104977485D02*
X131328990Y-104938780D01*
X131367695Y-104822666D01*
X131367695Y-104745257D01*
X131328990Y-104629142D01*
X131251580Y-104551733D01*
X131174171Y-104513028D01*
X131019352Y-104474323D01*
X130903238Y-104474323D01*
X130748419Y-104513028D01*
X130671009Y-104551733D01*
X130593600Y-104629142D01*
X130554895Y-104745257D01*
X130554895Y-104822666D01*
X130593600Y-104938780D01*
X130632304Y-104977485D01*
X131367695Y-105751580D02*
X131367695Y-105287123D01*
X131367695Y-105519352D02*
X130554895Y-105519352D01*
X130671009Y-105441942D01*
X130748419Y-105364533D01*
X130787123Y-105287123D01*
X130632304Y-106061219D02*
X130593600Y-106099923D01*
X130554895Y-106177333D01*
X130554895Y-106370857D01*
X130593600Y-106448266D01*
X130632304Y-106486971D01*
X130709714Y-106525676D01*
X130787123Y-106525676D01*
X130903238Y-106486971D01*
X131367695Y-106022514D01*
X131367695Y-106525676D01*
X150522514Y-51890285D02*
X150561219Y-51928990D01*
X150677333Y-51967695D01*
X150754742Y-51967695D01*
X150870857Y-51928990D01*
X150948266Y-51851580D01*
X150986971Y-51774171D01*
X151025676Y-51619352D01*
X151025676Y-51503238D01*
X150986971Y-51348419D01*
X150948266Y-51271009D01*
X150870857Y-51193600D01*
X150754742Y-51154895D01*
X150677333Y-51154895D01*
X150561219Y-51193600D01*
X150522514Y-51232304D01*
X149748419Y-51967695D02*
X150212876Y-51967695D01*
X149980647Y-51967695D02*
X149980647Y-51154895D01*
X150058057Y-51271009D01*
X150135466Y-51348419D01*
X150212876Y-51387123D01*
X148974323Y-51967695D02*
X149438780Y-51967695D01*
X149206552Y-51967695D02*
X149206552Y-51154895D01*
X149283961Y-51271009D01*
X149361371Y-51348419D01*
X149438780Y-51387123D01*
X137290285Y-104977485D02*
X137328990Y-104938780D01*
X137367695Y-104822666D01*
X137367695Y-104745257D01*
X137328990Y-104629142D01*
X137251580Y-104551733D01*
X137174171Y-104513028D01*
X137019352Y-104474323D01*
X136903238Y-104474323D01*
X136748419Y-104513028D01*
X136671009Y-104551733D01*
X136593600Y-104629142D01*
X136554895Y-104745257D01*
X136554895Y-104822666D01*
X136593600Y-104938780D01*
X136632304Y-104977485D01*
X137367695Y-105751580D02*
X137367695Y-105287123D01*
X137367695Y-105519352D02*
X136554895Y-105519352D01*
X136671009Y-105441942D01*
X136748419Y-105364533D01*
X136787123Y-105287123D01*
X136554895Y-106254742D02*
X136554895Y-106332152D01*
X136593600Y-106409561D01*
X136632304Y-106448266D01*
X136709714Y-106486971D01*
X136864533Y-106525676D01*
X137058057Y-106525676D01*
X137212876Y-106486971D01*
X137290285Y-106448266D01*
X137328990Y-106409561D01*
X137367695Y-106332152D01*
X137367695Y-106254742D01*
X137328990Y-106177333D01*
X137290285Y-106138628D01*
X137212876Y-106099923D01*
X137058057Y-106061219D01*
X136864533Y-106061219D01*
X136709714Y-106099923D01*
X136632304Y-106138628D01*
X136593600Y-106177333D01*
X136554895Y-106254742D01*
X129290285Y-105864533D02*
X129328990Y-105825828D01*
X129367695Y-105709714D01*
X129367695Y-105632304D01*
X129328990Y-105516190D01*
X129251580Y-105438780D01*
X129174171Y-105400076D01*
X129019352Y-105361371D01*
X128903238Y-105361371D01*
X128748419Y-105400076D01*
X128671009Y-105438780D01*
X128593600Y-105516190D01*
X128554895Y-105632304D01*
X128554895Y-105709714D01*
X128593600Y-105825828D01*
X128632304Y-105864533D01*
X129367695Y-106251580D02*
X129367695Y-106406400D01*
X129328990Y-106483809D01*
X129290285Y-106522514D01*
X129174171Y-106599923D01*
X129019352Y-106638628D01*
X128709714Y-106638628D01*
X128632304Y-106599923D01*
X128593600Y-106561219D01*
X128554895Y-106483809D01*
X128554895Y-106328990D01*
X128593600Y-106251580D01*
X128632304Y-106212876D01*
X128709714Y-106174171D01*
X128903238Y-106174171D01*
X128980647Y-106212876D01*
X129019352Y-106251580D01*
X129058057Y-106328990D01*
X129058057Y-106483809D01*
X129019352Y-106561219D01*
X128980647Y-106599923D01*
X128903238Y-106638628D01*
X133290285Y-105864533D02*
X133328990Y-105825828D01*
X133367695Y-105709714D01*
X133367695Y-105632304D01*
X133328990Y-105516190D01*
X133251580Y-105438780D01*
X133174171Y-105400076D01*
X133019352Y-105361371D01*
X132903238Y-105361371D01*
X132748419Y-105400076D01*
X132671009Y-105438780D01*
X132593600Y-105516190D01*
X132554895Y-105632304D01*
X132554895Y-105709714D01*
X132593600Y-105825828D01*
X132632304Y-105864533D01*
X132903238Y-106328990D02*
X132864533Y-106251580D01*
X132825828Y-106212876D01*
X132748419Y-106174171D01*
X132709714Y-106174171D01*
X132632304Y-106212876D01*
X132593600Y-106251580D01*
X132554895Y-106328990D01*
X132554895Y-106483809D01*
X132593600Y-106561219D01*
X132632304Y-106599923D01*
X132709714Y-106638628D01*
X132748419Y-106638628D01*
X132825828Y-106599923D01*
X132864533Y-106561219D01*
X132903238Y-106483809D01*
X132903238Y-106328990D01*
X132941942Y-106251580D01*
X132980647Y-106212876D01*
X133058057Y-106174171D01*
X133212876Y-106174171D01*
X133290285Y-106212876D01*
X133328990Y-106251580D01*
X133367695Y-106328990D01*
X133367695Y-106483809D01*
X133328990Y-106561219D01*
X133290285Y-106599923D01*
X133212876Y-106638628D01*
X133058057Y-106638628D01*
X132980647Y-106599923D01*
X132941942Y-106561219D01*
X132903238Y-106483809D01*
X135290285Y-105864533D02*
X135328990Y-105825828D01*
X135367695Y-105709714D01*
X135367695Y-105632304D01*
X135328990Y-105516190D01*
X135251580Y-105438780D01*
X135174171Y-105400076D01*
X135019352Y-105361371D01*
X134903238Y-105361371D01*
X134748419Y-105400076D01*
X134671009Y-105438780D01*
X134593600Y-105516190D01*
X134554895Y-105632304D01*
X134554895Y-105709714D01*
X134593600Y-105825828D01*
X134632304Y-105864533D01*
X134554895Y-106135466D02*
X134554895Y-106677333D01*
X135367695Y-106328990D01*
X135572966Y-91690285D02*
X135611671Y-91728990D01*
X135727785Y-91767695D01*
X135805195Y-91767695D01*
X135921309Y-91728990D01*
X135998719Y-91651580D01*
X136037423Y-91574171D01*
X136076128Y-91419352D01*
X136076128Y-91303238D01*
X136037423Y-91148419D01*
X135998719Y-91071009D01*
X135921309Y-90993600D01*
X135805195Y-90954895D01*
X135727785Y-90954895D01*
X135611671Y-90993600D01*
X135572966Y-91032304D01*
X134876280Y-90954895D02*
X135031100Y-90954895D01*
X135108509Y-90993600D01*
X135147214Y-91032304D01*
X135224623Y-91148419D01*
X135263328Y-91303238D01*
X135263328Y-91612876D01*
X135224623Y-91690285D01*
X135185919Y-91728990D01*
X135108509Y-91767695D01*
X134953690Y-91767695D01*
X134876280Y-91728990D01*
X134837576Y-91690285D01*
X134798871Y-91612876D01*
X134798871Y-91419352D01*
X134837576Y-91341942D01*
X134876280Y-91303238D01*
X134953690Y-91264533D01*
X135108509Y-91264533D01*
X135185919Y-91303238D01*
X135224623Y-91341942D01*
X135263328Y-91419352D01*
X135572966Y-87690285D02*
X135611671Y-87728990D01*
X135727785Y-87767695D01*
X135805195Y-87767695D01*
X135921309Y-87728990D01*
X135998719Y-87651580D01*
X136037423Y-87574171D01*
X136076128Y-87419352D01*
X136076128Y-87303238D01*
X136037423Y-87148419D01*
X135998719Y-87071009D01*
X135921309Y-86993600D01*
X135805195Y-86954895D01*
X135727785Y-86954895D01*
X135611671Y-86993600D01*
X135572966Y-87032304D01*
X135263328Y-87032304D02*
X135224623Y-86993600D01*
X135147214Y-86954895D01*
X134953690Y-86954895D01*
X134876280Y-86993600D01*
X134837576Y-87032304D01*
X134798871Y-87109714D01*
X134798871Y-87187123D01*
X134837576Y-87303238D01*
X135302033Y-87767695D01*
X134798871Y-87767695D01*
X128857695Y-78454533D02*
X128470647Y-78183600D01*
X128857695Y-77990076D02*
X128044895Y-77990076D01*
X128044895Y-78299714D01*
X128083600Y-78377123D01*
X128122304Y-78415828D01*
X128199714Y-78454533D01*
X128315828Y-78454533D01*
X128393238Y-78415828D01*
X128431942Y-78377123D01*
X128470647Y-78299714D01*
X128470647Y-77990076D01*
X128122304Y-78764171D02*
X128083600Y-78802876D01*
X128044895Y-78880285D01*
X128044895Y-79073809D01*
X128083600Y-79151219D01*
X128122304Y-79189923D01*
X128199714Y-79228628D01*
X128277123Y-79228628D01*
X128393238Y-79189923D01*
X128857695Y-78725466D01*
X128857695Y-79228628D01*
X131772966Y-68867695D02*
X132043900Y-68480647D01*
X132237423Y-68867695D02*
X132237423Y-68054895D01*
X131927785Y-68054895D01*
X131850376Y-68093600D01*
X131811671Y-68132304D01*
X131772966Y-68209714D01*
X131772966Y-68325828D01*
X131811671Y-68403238D01*
X131850376Y-68441942D01*
X131927785Y-68480647D01*
X132237423Y-68480647D01*
X130998871Y-68867695D02*
X131463328Y-68867695D01*
X131231100Y-68867695D02*
X131231100Y-68054895D01*
X131308509Y-68171009D01*
X131385919Y-68248419D01*
X131463328Y-68287123D01*
X168615933Y-59604895D02*
X168615933Y-60185466D01*
X168654638Y-60301580D01*
X168732047Y-60378990D01*
X168848161Y-60417695D01*
X168925571Y-60417695D01*
X168267590Y-59682304D02*
X168228885Y-59643600D01*
X168151476Y-59604895D01*
X167957952Y-59604895D01*
X167880542Y-59643600D01*
X167841838Y-59682304D01*
X167803133Y-59759714D01*
X167803133Y-59837123D01*
X167841838Y-59953238D01*
X168306295Y-60417695D01*
X167803133Y-60417695D01*
X130732695Y-78092576D02*
X129919895Y-78092576D01*
X129919895Y-78286100D01*
X129958600Y-78402214D01*
X130036009Y-78479623D01*
X130113419Y-78518328D01*
X130268238Y-78557033D01*
X130384352Y-78557033D01*
X130539171Y-78518328D01*
X130616580Y-78479623D01*
X130693990Y-78402214D01*
X130732695Y-78286100D01*
X130732695Y-78092576D01*
X129919895Y-78827966D02*
X129919895Y-79331128D01*
X130229533Y-79060195D01*
X130229533Y-79176309D01*
X130268238Y-79253719D01*
X130306942Y-79292423D01*
X130384352Y-79331128D01*
X130577876Y-79331128D01*
X130655285Y-79292423D01*
X130693990Y-79253719D01*
X130732695Y-79176309D01*
X130732695Y-78944080D01*
X130693990Y-78866671D01*
X130655285Y-78827966D01*
X124290285Y-78464533D02*
X124328990Y-78425828D01*
X124367695Y-78309714D01*
X124367695Y-78232304D01*
X124328990Y-78116190D01*
X124251580Y-78038780D01*
X124174171Y-78000076D01*
X124019352Y-77961371D01*
X123903238Y-77961371D01*
X123748419Y-78000076D01*
X123671009Y-78038780D01*
X123593600Y-78116190D01*
X123554895Y-78232304D01*
X123554895Y-78309714D01*
X123593600Y-78425828D01*
X123632304Y-78464533D01*
X123554895Y-79199923D02*
X123554895Y-78812876D01*
X123941942Y-78774171D01*
X123903238Y-78812876D01*
X123864533Y-78890285D01*
X123864533Y-79083809D01*
X123903238Y-79161219D01*
X123941942Y-79199923D01*
X124019352Y-79238628D01*
X124212876Y-79238628D01*
X124290285Y-79199923D01*
X124328990Y-79161219D01*
X124367695Y-79083809D01*
X124367695Y-78890285D01*
X124328990Y-78812876D01*
X124290285Y-78774171D01*
X122390285Y-78464533D02*
X122428990Y-78425828D01*
X122467695Y-78309714D01*
X122467695Y-78232304D01*
X122428990Y-78116190D01*
X122351580Y-78038780D01*
X122274171Y-78000076D01*
X122119352Y-77961371D01*
X122003238Y-77961371D01*
X121848419Y-78000076D01*
X121771009Y-78038780D01*
X121693600Y-78116190D01*
X121654895Y-78232304D01*
X121654895Y-78309714D01*
X121693600Y-78425828D01*
X121732304Y-78464533D01*
X121925828Y-79161219D02*
X122467695Y-79161219D01*
X121616190Y-78967695D02*
X122196761Y-78774171D01*
X122196761Y-79277333D01*
X126190285Y-78464533D02*
X126228990Y-78425828D01*
X126267695Y-78309714D01*
X126267695Y-78232304D01*
X126228990Y-78116190D01*
X126151580Y-78038780D01*
X126074171Y-78000076D01*
X125919352Y-77961371D01*
X125803238Y-77961371D01*
X125648419Y-78000076D01*
X125571009Y-78038780D01*
X125493600Y-78116190D01*
X125454895Y-78232304D01*
X125454895Y-78309714D01*
X125493600Y-78425828D01*
X125532304Y-78464533D01*
X125454895Y-78735466D02*
X125454895Y-79238628D01*
X125764533Y-78967695D01*
X125764533Y-79083809D01*
X125803238Y-79161219D01*
X125841942Y-79199923D01*
X125919352Y-79238628D01*
X126112876Y-79238628D01*
X126190285Y-79199923D01*
X126228990Y-79161219D01*
X126267695Y-79083809D01*
X126267695Y-78851580D01*
X126228990Y-78774171D01*
X126190285Y-78735466D01*
X153619276Y-51054895D02*
X153619276Y-51712876D01*
X153580571Y-51790285D01*
X153541866Y-51828990D01*
X153464457Y-51867695D01*
X153309638Y-51867695D01*
X153232228Y-51828990D01*
X153193523Y-51790285D01*
X153154819Y-51712876D01*
X153154819Y-51054895D01*
X152806476Y-51132304D02*
X152767771Y-51093600D01*
X152690361Y-51054895D01*
X152496838Y-51054895D01*
X152419428Y-51093600D01*
X152380723Y-51132304D01*
X152342019Y-51209714D01*
X152342019Y-51287123D01*
X152380723Y-51403238D01*
X152845180Y-51867695D01*
X152342019Y-51867695D01*
X130419276Y-71854895D02*
X130419276Y-72512876D01*
X130380571Y-72590285D01*
X130341866Y-72628990D01*
X130264457Y-72667695D01*
X130109638Y-72667695D01*
X130032228Y-72628990D01*
X129993523Y-72590285D01*
X129954819Y-72512876D01*
X129954819Y-71854895D01*
X129142019Y-72667695D02*
X129606476Y-72667695D01*
X129374247Y-72667695D02*
X129374247Y-71854895D01*
X129451657Y-71971009D01*
X129529066Y-72048419D01*
X129606476Y-72087123D01*
X137335466Y-68140285D02*
X137374171Y-68178990D01*
X137490285Y-68217695D01*
X137567695Y-68217695D01*
X137683809Y-68178990D01*
X137761219Y-68101580D01*
X137799923Y-68024171D01*
X137838628Y-67869352D01*
X137838628Y-67753238D01*
X137799923Y-67598419D01*
X137761219Y-67521009D01*
X137683809Y-67443600D01*
X137567695Y-67404895D01*
X137490285Y-67404895D01*
X137374171Y-67443600D01*
X137335466Y-67482304D01*
X136561371Y-68217695D02*
X137025828Y-68217695D01*
X136793600Y-68217695D02*
X136793600Y-67404895D01*
X136871009Y-67521009D01*
X136948419Y-67598419D01*
X137025828Y-67637123D01*
M02*
