M48
; DRILL file {KiCad (5.99.0-263-g133772e96)} date Fri 01 Nov 2019 12:35:23 CET
; FORMAT={-:-/ absolute / metric / decimal}
; #@! TF.CreationDate,2019-11-01T12:35:23+01:00
; #@! TF.GenerationSoftware,Kicad,Pcbnew,(5.99.0-263-g133772e96)
; #@! TF.FileFunction,Plated,1,2,PTH
FMAT,2
METRIC
T1C0.300
T2C0.400
T3C3.200
%
G90
G05
T1
X100.5Y-54.0
X100.5Y-62.0
X101.3Y-54.0
X101.3Y-62.0
X102.1Y-54.0
X102.1Y-62.0
X102.9Y-54.0
X102.9Y-62.0
X103.7Y-54.0
X103.7Y-62.0
X104.5Y-54.0
X104.5Y-62.0
X104.8Y-54.9
X104.8Y-61.1
X105.2Y-55.7
X105.2Y-60.3
X106.1Y-56.2
X106.1Y-59.8
X106.6Y-116.3
X106.9Y-56.7
X107.0Y-59.3
X107.3Y-131.9
X107.7Y-116.3
X107.87Y-57.0
X107.87Y-59.0
X108.8Y-67.9
X108.891Y-59.0
X108.9Y-116.3
X108.977Y-57.0
X109.912Y-59.0
X110.085Y-57.0
X110.933Y-59.0
X111.192Y-57.0
X111.955Y-59.0
X112.299Y-57.0
X112.976Y-59.0
X113.407Y-57.0
X113.997Y-59.0
X114.514Y-57.0
X114.9Y-74.0
X115.018Y-59.0
X115.621Y-57.0
X116.039Y-59.0
X116.8Y-57.0
X117.056Y-59.046
X117.893Y-59.595
X118.0Y-57.2
X118.7Y-62.0
X118.888Y-57.769
X119.585Y-58.519
X120.0Y-59.4
X120.0Y-61.944
X120.1Y-96.55
X121.1Y-110.9
X122.174Y-62.332
X122.9Y-62.3
X122.9Y-77.8
X123.7Y-62.3
X124.5Y-56.0
X124.8Y-77.8
X126.7Y-54.5
X126.7Y-77.8
X127.0Y-58.9
X127.6Y-114.7
X127.7Y-53.4
X127.8Y-57.2
X128.1Y-115.3
X128.6Y-115.9
X128.7Y-54.5
X129.1Y-73.7
X129.1Y-116.5
X129.6Y-117.1
X130.0Y-105.8
X130.1Y-117.7
X130.6Y-118.3
X131.4Y-57.3
X132.85Y-81.8
X132.9Y-68.4
X133.4Y-65.1
X133.4Y-65.9
X135.1Y-65.1
X135.1Y-66.0
X135.8Y-85.6
X135.8Y-86.3
X136.1Y-92.4
X136.3Y-71.2
X136.5Y-73.0
X136.5Y-81.0
X136.5Y-85.6
X136.5Y-86.3
X137.2Y-85.6
X137.2Y-86.3
X138.3Y-67.3
X138.5Y-92.5
X139.2Y-92.5
X139.3Y-54.1
X139.745Y-52.198
X139.9Y-90.8
X139.9Y-91.5
X139.9Y-92.2
X141.0Y-52.198
X141.7Y-85.3
X141.8Y-91.7
X142.0Y-82.6
X143.8Y-88.8
X144.1Y-87.4
X145.4Y-86.5
X147.8Y-92.9
X167.845Y-67.46
X167.9Y-84.0
T2
X100.9Y-50.8
X100.9Y-52.9
X102.3Y-64.1
X103.7Y-51.7
X105.3Y-66.2
X105.6Y-78.0
X105.6Y-89.6
X105.6Y-99.7
X105.6Y-108.6
X105.7Y-70.8
X105.7Y-117.4
X105.7Y-121.0
X105.9Y-126.9
X106.3Y-136.8
X107.5Y-61.9
X107.5Y-75.5
X107.6Y-69.1
X107.7Y-95.6
X108.2Y-72.5
X108.3Y-74.8
X108.6Y-93.9
X108.7Y-80.3
X108.7Y-102.7
X108.9Y-64.5
X109.0Y-82.1
X109.0Y-110.7
X109.6Y-51.0
X109.6Y-55.8
X109.8Y-70.9
X110.0Y-116.1
X110.4Y-75.5
X110.5Y-91.1
X111.0Y-78.0
X111.9Y-61.2
X111.9Y-74.0
X112.3Y-68.8
X112.4Y-107.0
X112.5Y-116.5
X112.7Y-97.1
X112.7Y-101.4
X113.0Y-98.8
X113.9Y-96.429
X114.0Y-94.2
X114.8Y-97.9
X115.6Y-96.4
X115.8Y-116.4
X115.9Y-98.9
X115.9Y-100.1
X116.3Y-51.0
X116.3Y-124.0
X116.5Y-55.6
X117.0Y-94.0
X117.1Y-78.2
X117.2Y-128.8
X117.8Y-83.8
X118.0Y-92.4
X119.3Y-89.4
X120.0Y-104.8
X120.0Y-106.6
X120.3Y-98.5
X121.0Y-136.9
X122.0Y-104.8
X122.0Y-106.6
X122.1Y-88.2
X122.2Y-80.8
X122.4Y-70.9
X122.4Y-73.6
X122.5Y-120.4
X122.9Y-111.4
X124.0Y-104.7
X124.0Y-106.6
X124.1Y-96.8
X124.6Y-94.2
X124.7Y-80.8
X124.7Y-83.7
X125.3Y-120.0
X125.6Y-70.9
X125.6Y-73.6
X126.0Y-104.7
X126.0Y-106.6
X126.1Y-50.9
X126.4Y-114.0
X126.8Y-67.8
X127.1Y-83.7
X127.2Y-80.8
X127.2Y-121.8
X127.4Y-92.3
X128.6Y-51.0
X129.2Y-67.8
X129.4Y-55.7
X129.7Y-119.5
X129.8Y-60.5
X129.8Y-88.4
X129.8Y-136.8
X130.0Y-62.2
X130.0Y-106.6
X130.1Y-94.2
X130.5Y-130.0
X130.7Y-51.9
X130.7Y-63.8
X130.9Y-58.3
X130.9Y-123.4
X131.488Y-53.802
X131.6Y-64.6
X132.0Y-106.6
X132.4Y-114.5
X132.6Y-69.1
X132.6Y-86.7
X132.9Y-63.9
X133.1Y-55.7
X133.1Y-60.0
X133.2Y-57.4
X133.4Y-119.0
X133.5Y-114.5
X134.0Y-106.6
X134.2Y-89.8
X134.4Y-92.5
X134.7Y-54.3
X135.0Y-83.1
X135.4Y-56.5
X135.6Y-67.4
X135.9Y-60.7
X136.0Y-106.6
X136.4Y-123.6
X137.1Y-77.1
X137.6Y-54.3
X137.6Y-118.0
X137.9Y-81.0
X138.0Y-106.0
X138.1Y-111.7
X138.3Y-71.3
X138.4Y-103.4
X138.5Y-51.9
X139.7Y-108.7
X139.9Y-96.6
X140.2Y-82.7
X140.4Y-128.5
X140.5Y-71.4
X141.602Y-96.279
X142.0Y-57.4
X142.2Y-66.2
X142.6Y-123.7
X142.7Y-71.3
X142.7Y-104.9
X143.9Y-119.8
X144.0Y-116.9
X144.1Y-118.2
X144.4Y-82.5
X144.6Y-56.0
X144.6Y-136.6
X144.8Y-101.5
X144.9Y-113.0
X145.1Y-70.3
X145.2Y-78.0
X146.2Y-96.8
X146.3Y-105.5
X147.4Y-113.0
X149.3Y-105.8
X149.4Y-120.7
X149.7Y-123.8
X151.6Y-90.1
X152.2Y-112.6
X152.2Y-136.8
X152.6Y-115.1
X153.8Y-90.4
X154.1Y-95.3
X154.1Y-122.2
X154.5Y-80.4
X154.8Y-107.1
X156.3Y-87.5
X157.5Y-122.2
X158.6Y-107.0
X159.2Y-56.5
X159.5Y-89.9
X159.7Y-84.0
X160.2Y-118.4
X161.0Y-136.8
X162.0Y-120.9
X162.6Y-109.2
X162.7Y-70.8
X162.9Y-66.6
X163.0Y-115.9
X163.4Y-112.6
X163.5Y-80.2
X164.0Y-129.6
X164.3Y-59.4
X165.1Y-83.9
X165.3Y-86.9
X165.4Y-74.6
X165.5Y-76.8
X169.0Y-51.1
X170.0Y-128.3
X172.7Y-59.6
X172.7Y-76.9
X172.7Y-86.6
X173.1Y-74.6
X174.2Y-119.5
X175.8Y-136.6
X176.9Y-128.3
X181.4Y-112.0
X181.8Y-82.9
X183.7Y-136.8
X186.4Y-67.9
X187.5Y-120.9
X188.8Y-134.3
X191.0Y-124.4
X191.0Y-130.8
X191.0Y-137.2
X193.1Y-134.3
X194.6Y-120.9
X198.2Y-136.6
X198.4Y-63.2
X198.6Y-51.2
X198.6Y-82.5
X198.7Y-105.6
T3
X180.0Y-134.0
X126.0Y-134.0
T0
M30
